SplineFontDB: 3.2
FontName: OpenVox
FullName: OpenVox
FamilyName: OpenVox
Weight: Book
Copyright: OpenVox by Romain Tartiere based on\nLinux Libertine by Philipp H. Poll, Open Font under Terms of following Free Software Licenses:\nGPL (General Public License) with font-exception and OFL (Open Font License).\nCreated with FontForge (http://fontforge.sf.net) Sept 2003, 2004, 2005, 2006, 2007, 2008
Version: 0.6.4
ItalicAngle: 0
UnderlinePosition: -138
UnderlineWidth: 40
Ascent: 800
Descent: 200
InvalidEm: 0
sfntRevision: 0x00009999
LayerCount: 2
Layer: 0 0 "Arri+AOgA-re" 1
Layer: 1 0 "Avant" 0
XUID: [1021 488 1042628705 5261652]
StyleMap: 0x0040
FSType: 0
OS2Version: 3
OS2_WeightWidthSlopeOnly: 0
OS2_UseTypoMetrics: 0
CreationTime: 1156455862
ModificationTime: 1761000805
PfmFamily: 17
TTFWeight: 400
TTFWidth: 5
LineGap: 0
VLineGap: 0
Panose: 2 0 5 3 0 0 0 0 0 0
OS2TypoAscent: 894
OS2TypoAOffset: 0
OS2TypoDescent: -246
OS2TypoDOffset: 0
OS2TypoLinegap: 0
OS2WinAscent: 894
OS2WinAOffset: 0
OS2WinDescent: 246
OS2WinDOffset: 0
HheadAscent: 894
HheadAOffset: 0
HheadDescent: -246
HheadDOffset: 0
OS2SubXSize: 650
OS2SubYSize: 699
OS2SubXOff: 0
OS2SubYOff: 140
OS2SupXSize: 650
OS2SupYSize: 699
OS2SupXOff: 0
OS2SupYOff: 479
OS2StrikeYSize: 49
OS2StrikeYPos: 258
OS2CapHeight: 658
OS2XHeight: 429
OS2FamilyClass: 2050
OS2Vendor: 'PfEd'
OS2CodePages: 600001bf.00000000
OS2UnicodeRanges: e0000aff.5000e5fb.00000020.00000000
Lookup: 3 0 0 "'aalt' Access All Alternates lookup 0" { "'aalt' Access All Alternates lookup 0 subtable"  } ['aalt' ('DFLT' <'dflt' > 'cyrl' <'dflt' > 'grek' <'dflt' > 'latn' <'AZE ' 'CRT ' 'DEU ' 'MOL ' 'ROM ' 'TRK ' 'dflt' > ) ]
Lookup: 1 0 0 "'locl' Localized Forms in Latin lookup 1" { "'locl' Localized Forms in Latin lookup 1 subtable"  } ['locl' ('latn' <'MOL ' 'ROM ' > ) ]

StartChar: .notdef
Encoding: 65536 -1 0
Width: 500
GlyphClass: 1
Flags: MW
HStem: 0 50<80 420 80 500> 647 51<80 420 80 80>
VStem: 0 50<95 603 95 698> 450 50<95 603 603 603>
LayerCount: 2
Fore
SplineSet
0 0 m 1
 0 698 l 1
 500 698 l 1
 500 0 l 1
 0 0 l 1
250 394 m 1
 420 647 l 1
 80 647 l 1
 250 394 l 1
280 349 m 1
 450 95 l 1
 450 603 l 1
 280 349 l 1
80 50 m 1
 420 50 l 1
 250 304 l 1
 80 50 l 1
50 603 m 1
 50 95 l 1
 220 349 l 1
 50 603 l 1
EndSplineSet
EndChar

StartChar: exclam
Encoding: 33 33 2
Width: 228
GlyphClass: 2
Flags: MW
HStem: -10 112<111 115 111 115> 638 20G<102 126.5>
VStem: 59 110<552.5 610>
LayerCount: 2
Fore
SplineSet
57 44 m 1
 57 48 l 1
 66.2001953125 74.5 80.7998046875 89.7998046875 111 102 c 1
 115 102 l 1
 144 91.5 159.799804688 76.2001953125 169 48 c 1
 169 44 l 1
 158.799804688 11.7998046875 143.200195312 -3 115 -10 c 1
 111 -10 l 1
 79.7998046875 -3 65.7998046875 10.5 57 44 c 1
113 658 m 0
 140 658 169 635 169 585 c 0
 169 520 153.200195312 478 143 392 c 0
 130.200195312 284 129 224 127 210 c 0
 126 199 123 190 113 190 c 0
 102 190 100 197 99 203 c 0
 97 224 92 314 84 392 c 0
 75 480 59 515 59 585 c 0
 59 639 91 658 113 658 c 0
EndSplineSet
EndChar

StartChar: quotedbl
Encoding: 34 34 3
Width: 336
GlyphClass: 2
Flags: MW
HStem: 426 218<89 127>
VStem: 63 86<603 605> 189 86<604 606>
LayerCount: 2
Fore
SplineSet
89 426 m 1
 89 426 63 585 63 594 c 0
 63 616 84 644 114 644 c 0
 140 644 149 627 149 611 c 0
 149 595 116 430 116 430 c 1
 89 426 l 1
215 427 m 1
 215 427 189 586 189 595 c 0
 189 617 210 645 240 645 c 0
 266 645 275 628 275 612 c 0
 275 596 242 431 242 431 c 1
 215 427 l 1
EndSplineSet
EndChar

StartChar: numbersign
Encoding: 35 35 4
Width: 470
GlyphClass: 2
Flags: MW
HStem: 195 52<34 123 27 131 167 276 34 159 319 408> 364 53<62 150 53 158 62 186 193 303 346 435>
LayerCount: 2
Fore
SplineSet
339 364 m 1
 319 247 l 1
 416 247 l 1
 408 195 l 1
 313 195 l 1
 283 14 l 1
 248 14 l 1
 276 195 l 1
 159 195 l 1
 129 14 l 1
 94 14 l 1
 123 195 l 1
 27 195 l 1
 34 247 l 1
 131 247 l 1
 150 364 l 1
 53 364 l 1
 62 417 l 1
 158 417 l 1
 187 598 l 1
 223 598 l 1
 193 417 l 1
 312 417 l 1
 340 598 l 1
 375 598 l 1
 346 417 l 1
 443 417 l 1
 435 364 l 1
 339 364 l 1
285 247 m 1
 303 364 l 1
 186 364 l 1
 167 247 l 1
 285 247 l 1
EndSplineSet
EndChar

StartChar: dollar
Encoding: 36 36 5
Width: 465
GlyphClass: 2
Flags: MW
HStem: -11.4 43.2 609.6 39.2
VStem: 53.4 72.7 224.8 38.6 358.8 84
LayerCount: 2
Fore
SplineSet
263.400390625 276.700195312 m 1
 263.400390625 35.8994140625 l 1
 315.5 47.4990234375 358.799804688 84.3994140625 358.799804688 148.799804688 c 0
 358.799804688 226.200195312 315.200195312 254.600585938 263.400390625 276.700195312 c 1
224.80078125 386.899414062 m 1
 224.80078125 609.599609375 l 1
 164.000976562 606.599609375 126.100585938 563.299804688 126.100585938 505.299804688 c 0
 126.100585938 441.399414062 180.80078125 406.599609375 224.80078125 386.899414062 c 1
224.80078125 31.7998046875 m 1
 224.80078125 292.397460938 l 1
 140.400390625 327.197265625 53.400390625 375.397460938 53.400390625 479.197265625 c 0
 53.400390625 577.296875 142.5 641.396484375 224.799804688 648.796875 c 1
 224.799804688 711.997070312 l 1
 263.399414062 711.997070312 l 1
 263.399414062 648.997070312 l 1
 366.299804688 643.897460938 402 605.297851562 402 605.297851562 c 1
 404.299804688 601.797851562 l 1
 395.200195312 572.297851562 388.400390625 542.797851562 385 507.59765625 c 1
 374.700195312 506.498046875 l 1
 351.700195312 558.198242188 316.700195312 596.098632812 263.400390625 606.798828125 c 1
 263.400390625 371.598632812 l 1
 345.200195312 341.999023438 442.799804688 296.098632812 442.799804688 183.999023438 c 0
 442.799804688 96.8994140625 359.200195312 14.7998046875 263.400390625 -6.2001953125 c 1
 263.400390625 -92 l 1
 224.80078125 -92 l 1
 224.80078125 -11.2001953125 l 1
 222.201171875 -11.2998046875 219.6015625 -11.3994140625 216.901367188 -11.3994140625 c 0
 96.5009765625 -11.3994140625 38.6005859375 34.1005859375 38.6005859375 34.1005859375 c 1
 36.30078125 37.5009765625 l 1
 44.201171875 67.0009765625 52.30078125 98.80078125 56.80078125 134.000976562 c 1
 65.900390625 135.100585938 l 1
 94.1005859375 74.1005859375 153.80078125 32.2001953125 224.80078125 31.7998046875 c 1
EndSplineSet
EndChar

StartChar: percent
Encoding: 37 37 6
Width: 680
GlyphClass: 2
Flags: MW
HStem: -13 31<500 539.5 500 547.5> 240 33<533 566.5> 324 31<156.5 195.5 156.5 204> 517 40<379.5 394> 577 33<189 218 164.5 224.5>
VStem: 63 55<413 456 397 481> 263 33<481 518 479 538.5> 406 56<76.5 120 61 145> 607 32<145 203>
LayerCount: 2
Fore
SplineSet
118 425 m 0
 118 369 147 355 166 355 c 0
 225 355 263 450 263 512 c 0
 263 565 234 577 215 577 c 0
 163 577 118 487 118 425 c 0
389 557 m 0
 434 557 516 569 549 614 c 1
 583 597 l 1
 145 -13 l 1
 109 3 l 1
 492 537 l 1
 451 521 410 517 378 517 c 0
 353 517 313 527 293 539 c 1
 295 532 296 523 296 513 c 0
 296 445 249 324 159 324 c 0
 93 324 63 386 63 440 c 0
 63 522 126 610 203 610 c 0
 233 610 264 596 275 583 c 1
 333 556 370 557 389 557 c 0
406 105 m 0
 406 185 468 273 547 273 c 0
 590 273 639 254 639 176 c 0
 639 104 592 -13 503 -13 c 0
 438 -13 406 48 406 105 c 0
462 89 m 0
 462 33 490 18 510 18 c 0
 569 18 607 115 607 175 c 0
 607 231 574 240 559 240 c 0
 507 240 462 151 462 89 c 0
EndSplineSet
EndChar

StartChar: ampersand
Encoding: 38 38 7
Width: 710
GlyphClass: 2
Flags: MW
HStem: -10 40<220.5 287.5 220.5 287.5> -10 54<568 587.5> 412 20G 619 39<318 351.5>
VStem: 44 89<107 191.5 107 202> 179 76<512.5 551.5> 396 67<526 566.5> 652 16<90 98>
LayerCount: 2
Fore
SplineSet
437 192 m 1xbf
 508 297 533 366 541 432 c 1
 551 429 570 429 580 429 c 0
 590 429 613 429 623 432 c 1
 584 365 487.299804688 187 465 153 c 1
 499 107 l 2
 530 63 560 44 576 44 c 0
 609 44 632 59 652 98 c 1
 668 90 l 1
 645 20 605 -10 570 -10 c 0x7f
 539 -10 502 -8 455 57 c 2
 426 94 l 1
 380 31 330 -10 245 -10 c 0
 138 -10 44 38 44 166 c 0
 44 238 101 301 233 375 c 1
 195 434 179 484 179 522 c 0
 179 581 236 658 336 658 c 0
 406 658 463 607 463 544 c 0
 463 489 398 419 315 371 c 1
 319 363 l 2
 337 332 391 254 437 192 c 1xbf
293 411 m 1
 357 453 396 508 396 544 c 0
 396 589 372 619 331 619 c 0
 305 619 255 590 255 524 c 0
 255 501 265 457 293 411 c 1
255 338 m 1
 152 281 133 227 133 156 c 0
 133 58 189 30 252 30 c 0xbf
 323 30 348 66 397 133 c 1
 340 208 266 317 255 338 c 1
EndSplineSet
Substitution2: "'salt' Stylistic Alternatives lookup 18 subtable" ampersand.alt
Substitution2: "'c2sc' Capitals to Small Capitals lookup 9 subtable" ampersand.alt
Substitution2: "'smcp' Lowercase to Small Capitals lookup 3 subtable" ampersand.alt
AlternateSubs2: "'aalt' Access All Alternates lookup 0 subtable" ampersand.alt
EndChar

StartChar: quotesingle
Encoding: 39 39 8
Width: 190
GlyphClass: 2
Flags: MW
HStem: 426 218<79 117>
VStem: 53 86<603 605>
LayerCount: 2
Fore
SplineSet
79 426 m 1
 79 426 53 585 53 594 c 0
 53 616 74 644 104 644 c 0
 130 644 139 627 139 611 c 0
 139 595 106 430 106 430 c 1
 79 426 l 1
EndSplineSet
EndChar

StartChar: parenleft
Encoding: 40 40 9
Width: 300
GlyphClass: 2
Flags: MW
VStem: 44 83<229.5 345>
LayerCount: 2
Fore
SplineSet
44 252 m 0
 44 438 137 605 256 707 c 1
 279 689 l 1
 247 653 127 515 127 252 c 0
 127 -11 246 -149 279 -187 c 1
 256 -204 l 1
 48 -24 44 207 44 252 c 0
EndSplineSet
Substitution2: "'case' Case-Sensitive Forms lookup 23 subtable" parenleft.sc
Substitution2: "'c2sc' Capitals to Small Capitals lookup 9 subtable" parenleft.sc
Substitution2: "'sinf' Scientific Inferiors lookup 8 subtable" parenleft.inferior
Substitution2: "'sups' Superscript lookup 7 subtable" parenleft.superior
AlternateSubs2: "'aalt' Access All Alternates lookup 0 subtable" parenleft.sc
EndChar

StartChar: parenright
Encoding: 41 41 10
Width: 300
GlyphClass: 2
Flags: MW
VStem: 173 83<159 274.5 159 383.5>
LayerCount: 2
Fore
SplineSet
256 252 m 0
 256 66 163 -101 44 -203 c 1
 21 -185 l 1
 53 -149 173 -11 173 252 c 0
 173 515 54 653 21 691 c 1
 44 708 l 1
 252 528 256 297 256 252 c 0
EndSplineSet
Substitution2: "'case' Case-Sensitive Forms lookup 23 subtable" parenright.sc
Substitution2: "'c2sc' Capitals to Small Capitals lookup 9 subtable" parenright.sc
Substitution2: "'sinf' Scientific Inferiors lookup 8 subtable" parenright.inferior
Substitution2: "'sups' Superscript lookup 7 subtable" parenright.superior
AlternateSubs2: "'aalt' Access All Alternates lookup 0 subtable" parenright.sc
EndChar

StartChar: asterisk
Encoding: 42 42 11
Width: 433
GlyphClass: 2
Flags: W
LayerCount: 2
Fore
SplineSet
198 567 m 1
 185 570 171 571 156 571 c 0
 107 571 75 578 75 608 c 0
 75 622 84 638 108 638 c 0
 142 638 160 605 204 587 c 1
 200 626 181 653 181 679 c 0
 181 700 193 718 211 718 c 0
 229 718 244 707 244 683 c 0
 244 656 227 616 225 586 c 1
 271 606 287 638 320 638 c 0
 347 638 354 618 354 608 c 0
 354 578 319 571 285 571 c 0
 266 571 248 570 230 567 c 1
 264 530 313 520 313 480 c 0
 313 462 298 451 284 451 c 0
 245 451 238 516 213 555 c 1
 188 510 181 451 143 451 c 0
 126 451 114 464 114 479 c 0
 114 522 165 530 198 567 c 1
EndSplineSet
EndChar

StartChar: plus
Encoding: 43 43 12
Width: 527
GlyphClass: 2
Flags: MW
HStem: 208 49<66 238 66 238 289 461>
VStem: 238 51<34 208 34 208 257 431>
LayerCount: 2
Fore
SplineSet
289 257 m 1
 461 257 l 1
 461 208 l 1
 289 208 l 1
 289 34 l 1
 238 34 l 1
 238 208 l 1
 66 208 l 1
 66 257 l 1
 238 257 l 1
 238 431 l 1
 289 431 l 1
 289 257 l 1
EndSplineSet
Substitution2: "'sinf' Scientific Inferiors lookup 8 subtable" plus.inferior
Substitution2: "'sups' Superscript lookup 7 subtable" plus.superior
AlternateSubs2: "'aalt' Access All Alternates lookup 0 subtable" plus.superior plus.inferior uni2098
EndChar

StartChar: comma
Encoding: 44 44 13
Width: 220
GlyphClass: 2
Flags: MW
HStem: -3 105
VStem: 131 39<-44 -16.75>
LayerCount: 2
Fore
SplineSet
48 44 m 1
 48 47.9990234375 l 1
 57.2001953125 74.4990234375 71.7998046875 89.798828125 102 101.999023438 c 1
 106 101.999023438 l 1
 142.200195312 88.8994140625 170 61.7998046875 170 -3 c 0
 170 -85 120 -112.299804688 66 -144 c 1
 59.2001953125 -138.099609375 53 -133 53 -123 c 1
 102 -90 131 -62 131 -29 c 0
 131 -4.5 114.5 -3 102 -3 c 0
 70.7998046875 4 56.7998046875 10.5 48 44 c 1
EndSplineSet
EndChar

StartChar: hyphen
Encoding: 45 45 14
Width: 333
GlyphClass: 2
Flags: MW
HStem: 236 54<43.5 287 58 274>
VStem: 33 268<248.5 276.5>
LayerCount: 2
Fore
SplineSet
274 236 m 2
 48 236 l 2
 39 236 33 244 33 253 c 0
 33 269 46 290 58 290 c 2
 287 290 l 2
 297 290 301 281 301 272 c 0
 301 261 287 236 274 236 c 2
EndSplineSet
Substitution2: "'case' Case-Sensitive Forms lookup 23 subtable" hyphen.cap
Substitution2: "'c2sc' Capitals to Small Capitals lookup 9 subtable" hyphen.sc
Substitution2: "'smcp' Lowercase to Small Capitals lookup 3 subtable" hyphen.sc
AlternateSubs2: "'aalt' Access All Alternates lookup 0 subtable" hyphen.sc
EndChar

StartChar: period
Encoding: 46 46 15
Width: 220
GlyphClass: 2
Flags: MW
HStem: -10 112<108 112 108 112>
VStem: 54 112<44 48 44 48>
LayerCount: 2
Fore
SplineSet
54 44 m 1
 54 48 l 1
 63.2001953125 74.5 77.7998046875 89.7998046875 108 102 c 1
 112 102 l 1
 141 91.5 156.799804688 76.2001953125 166 48 c 1
 166 44 l 1
 155.799804688 11.7998046875 140.200195312 -3 112 -10 c 1
 108 -10 l 1
 76.7998046875 -3 62.7998046875 10.5 54 44 c 1
EndSplineSet
EndChar

StartChar: slash
Encoding: 47 47 16
Width: 323
GlyphClass: 3
Flags: MW
HStem: 626 20G<252 293 293 293>
VStem: 15 278
LayerCount: 2
Fore
SplineSet
293 646 m 1
 56 -59 l 1
 15 -59 l 1
 252 646 l 1
 293 646 l 1
EndSplineSet
Ligature2: "'frac' Diagonal Fractions lookup 6 subtable" uni2215
AlternateSubs2: "'aalt' Access All Alternates lookup 0 subtable" uni2215
EndChar

StartChar: zero
Encoding: 48 48 17
Width: 465
GlyphClass: 2
Flags: MW
HStem: -10 40<182.5 238 182.5 266.5> 570 40<210 241.5>
VStem: 39 86<243.5 387.5> 335 86<271 384>
LayerCount: 2
Fore
SplineSet
228 -10 m 0
 104 -10 39 127 39 289 c 0
 39 486 133 610 233 610 c 0
 269 610 300.900390625 599.900390625 328 575 c 0
 363.900390625 541.900390625 421 465 421 309 c 0
 421 75 305 -10 228 -10 c 0
233 570 m 0
 187 570 125 534 125 287 c 0
 125 200 136 30 229 30 c 0
 247 30 295.599609375 39.099609375 318 122 c 0
 331.799804688 173.099609375 335 225 335 317 c 0
 335 451 308 528 277 554 c 0
 266 564 250 570 233 570 c 0
EndSplineSet
Substitution2: "'zero' Slashed Zero lookup 17 subtable" zero.slash
Substitution2: "'onum' Oldstyle Figures lookup 16 subtable" zero.taboldstyle
Substitution2: "'pnum' Proportional Numbers lookup 15 subtable" zero.fitted
Substitution2: "'sinf' Scientific Inferiors lookup 8 subtable" zero.inferior
Substitution2: "'sups' Superscript lookup 7 subtable" zero.superior
AlternateSubs2: "'aalt' Access All Alternates lookup 0 subtable" zero.oldstyle zero.fitted zero.slash zero.slashfitted perthousandzero
EndChar

StartChar: one
Encoding: 49 49 18
Width: 465
GlyphClass: 2
Flags: MW
HStem: -3 21G<239 239 333 333> 507 29<118 120> 591 20G<327 329>
VStem: 246 80<189 437 437 443>
LayerCount: 2
Fore
SplineSet
326 189 m 2
 326 110 328 60 335 0 c 1
 333 -3 l 1
 333 -3 305 0 285 0 c 0
 267 0 239 -3 239 -3 c 1
 238 0 l 1
 245 57 246 111 246 189 c 2
 246 437 l 2
 246 473 246 513 228 513 c 0
 208 513 165 512 120 507 c 1
 118 536 l 1
 211 557 262 590 327 611 c 0
 331 611 334 611 334 606 c 0
 332 592 326 551 326 443 c 2
 326 189 l 2
EndSplineSet
Substitution2: "'onum' Oldstyle Figures lookup 16 subtable" one.taboldstyle
Substitution2: "'pnum' Proportional Numbers lookup 15 subtable" one.fitted
Substitution2: "'sinf' Scientific Inferiors lookup 8 subtable" one.inferior
Substitution2: "'sups' Superscript lookup 7 subtable" one.superior
AlternateSubs2: "'aalt' Access All Alternates lookup 0 subtable" one.oldstyle one.superior one.fitted
EndChar

StartChar: two
Encoding: 50 50 19
Width: 465
GlyphClass: 2
Flags: MW
HStem: 0 56<220 247 247 295.5> 571 39<202 244>
VStem: 326 91<423 503>
LayerCount: 2
Fore
SplineSet
226 571 m 0
 178 571 124 513 91 453 c 1
 77 454 l 1
 51 523 l 1
 55 526 l 2
 80 548 144 610 234 610 c 0
 353 610 417 559 417 461 c 0
 417 385 373 346 316 291 c 2
 216 195 l 2
 175 155 156 101 153 56 c 1
 247 56 l 2
 347 56 358 59 416 64 c 1
 413 51 411 46 411 33 c 0
 411 20 413 8 416 -5 c 1
 341 -2 333 0 258 0 c 0
 182 0 132 -3 51 -5 c 1
 49 0 l 1
 49 60 66.099609375 115.900390625 167 214 c 2
 241 286 l 2
 301 346 326 377 326 462 c 0
 326 544 262 571 226 571 c 0
EndSplineSet
Substitution2: "'onum' Oldstyle Figures lookup 16 subtable" two.taboldstyle
Substitution2: "'pnum' Proportional Numbers lookup 15 subtable" two.fitted
Substitution2: "'sinf' Scientific Inferiors lookup 8 subtable" two.inferior
Substitution2: "'sups' Superscript lookup 7 subtable" two.superior
AlternateSubs2: "'aalt' Access All Alternates lookup 0 subtable" two.oldstyle two.superior two.fitted
EndChar

StartChar: three
Encoding: 51 51 20
Width: 465
GlyphClass: 2
Flags: MW
HStem: -10 41<165.5 220 165.5 254> 303 35<153 153> 470 21G<93 93> 569 41<187 235.5>
VStem: 305 86<435 502.5> 323 93<114 219.5 114 219.5>
LayerCount: 2
Fore
SplineSet
203 31 m 0xf4
 237 31 323 47 323 178 c 0xf4
 323 261 250 305 193 305 c 0
 184 305 164 305 153 303 c 1
 153 338 l 1
 250 344 305 391 305 470 c 0
 305 535 255 569 216 569 c 0
 145 569 126 530 93 470 c 1
 79 471 l 1
 58 551 l 1
 61 554 l 2
 86 576 149 610 225 610 c 0
 323 610 391 562 391 477 c 0xf8
 391 393 344 349 289 329 c 1
 289 327 l 1
 362 320 416 259 416 180 c 0
 416 48 306 -10 202 -10 c 0
 126 -10 65 24 40 46 c 2
 37 49 l 1
 58 129 l 1
 72 130 l 1
 105 70 128 31 203 31 c 0xf4
EndSplineSet
Substitution2: "'onum' Oldstyle Figures lookup 16 subtable" three.taboldstyle
Substitution2: "'pnum' Proportional Numbers lookup 15 subtable" three.fitted
Substitution2: "'sinf' Scientific Inferiors lookup 8 subtable" three.inferior
Substitution2: "'sups' Superscript lookup 7 subtable" three.superior
AlternateSubs2: "'aalt' Access All Alternates lookup 0 subtable" three.oldstyle three.superior three.fitted
EndChar

StartChar: four
Encoding: 52 52 21
Width: 465
GlyphClass: 2
Flags: MW
HStem: -3 21G<279 279 363.5 368.5> 148 50<62 286 83 286 83 286 364 414> 584 20G<295 295 363.5 368.5>
VStem: 286 78<119 148 119 148 198 452>
LayerCount: 2
Fore
SplineSet
286 512 m 1
 83 198 l 1
 286 198 l 1
 286 512 l 1
286 148 m 1
 80 148 l 2
 44 148 21 153 21 168 c 0
 21 178 24 189 34 207 c 0
 86 296 230 516 291 600 c 0
 291 601 295 604 295 604 c 1
 295 604 313 600 329 600 c 0
 344 600 359 604 368 604 c 0
 369 604 370 602 370 600 c 0
 365 554 364 485 364 452 c 2
 364 198 l 1
 428 198 l 2
 438 198 443 191 443 182 c 0
 443 171 428 148 414 148 c 2
 364 148 l 1
 364 90 366 58 370 0 c 0
 370 -1 369 -3 368 -3 c 0
 359 -3 342 0 326 0 c 0
 310 0 279 -3 279 -3 c 1
 278 0 l 1
 284 51 286 71 286 148 c 1
EndSplineSet
Substitution2: "'onum' Oldstyle Figures lookup 16 subtable" four.taboldstyle
Substitution2: "'pnum' Proportional Numbers lookup 15 subtable" four.fitted
Substitution2: "'sinf' Scientific Inferiors lookup 8 subtable" four.inferior
Substitution2: "'sups' Superscript lookup 7 subtable" four.superior
AlternateSubs2: "'aalt' Access All Alternates lookup 0 subtable" four.oldstyle four.superior four.fitted
EndChar

StartChar: five
Encoding: 53 53 22
Width: 465
GlyphClass: 2
Flags: MW
HStem: -10 40<166.5 238 166.5 261.5> 330 50<208.5 235.5> 533 67<199.5 283> 539 71<373 382>
VStem: 318 87<137 233.5>
LayerCount: 2
Fore
SplineSet
202 -10 m 0xe8
 126 -10 76 24 51 46 c 2
 47 49 l 1
 69 129 l 1
 83 130 l 1
 116 70 129 30 204 30 c 0
 272 30 318 87 318 179 c 0
 318 288 268 330 203 330 c 0
 155 330 112 323 71 306 c 1
 104 606 l 1
 138 603 181 600 218 600 c 0xe8
 271 600 325 603 382 610 c 1
 389 607 l 1
 373 539 l 1xd8
 332 534 298 533 268 533 c 0
 221 533 185 537 148 542 c 1
 127 365 l 1
 149 373 188 380 229 380 c 0
 341 380 405 293 405 196 c 0
 405 78 321 -10 202 -10 c 0xe8
EndSplineSet
Substitution2: "'onum' Oldstyle Figures lookup 16 subtable" five.taboldstyle
Substitution2: "'pnum' Proportional Numbers lookup 15 subtable" five.fitted
Substitution2: "'sinf' Scientific Inferiors lookup 8 subtable" five.inferior
Substitution2: "'sups' Superscript lookup 7 subtable" five.superior
AlternateSubs2: "'aalt' Access All Alternates lookup 0 subtable" five.oldstyle five.superior five.fitted
EndChar

StartChar: six
Encoding: 54 54 23
Width: 465
GlyphClass: 2
Flags: MW
HStem: -9 40<228.5 279 228.5 317> 318 40<229 278.5> 583 28<397 400>
VStem: 47 79<151 245 151 291.5> 344 84<144 197.5>
LayerCount: 2
Fore
SplineSet
400 583 m 1
 331 576 275 558 224 509 c 0
 176 462 140 391 129 306 c 1
 153 336 209 358 249 358 c 0
 405 358 428 228 428 180 c 0
 428 108 390 -9 244 -9 c 0
 167 -9 47 33 47 243 c 0
 47 340 80.2998046875 434.700195312 153 508 c 0
 221.299804688 576.799804688 294 605 397 611 c 1
 400 583 l 1
127 277 m 1
 126 267 126 250 126 240 c 0
 126 62 202 31 255 31 c 0
 303 31 344 63 344 173 c 0
 344 222 329 318 228 318 c 0
 206 318 166 317 127 277 c 1
EndSplineSet
Substitution2: "'onum' Oldstyle Figures lookup 16 subtable" six.taboldstyle
Substitution2: "'pnum' Proportional Numbers lookup 15 subtable" six.fitted
Substitution2: "'sinf' Scientific Inferiors lookup 8 subtable" six.inferior
Substitution2: "'sups' Superscript lookup 7 subtable" six.superior
AlternateSubs2: "'aalt' Access All Alternates lookup 0 subtable" six.oldstyle six.superior six.fitted
EndChar

StartChar: seven
Encoding: 55 55 24
Width: 465
GlyphClass: 2
Flags: MW
HStem: -13 21G<127 127> 531 69<319 348>
LayerCount: 2
Fore
SplineSet
348 531 m 1
 290 531 213 530 63 522 c 1
 65 537 68 552 68 567 c 0
 68 582 65 592 63 607 c 1
 106 601 194 600 343 600 c 0
 374 600 392 605 407 610 c 1
 424 600 l 1
 312 327 252 161 195 -9 c 1
 127 -13 l 1
 124 -7 l 1
 191 143 270 338 348 531 c 1
EndSplineSet
Substitution2: "'onum' Oldstyle Figures lookup 16 subtable" seven.taboldstyle
Substitution2: "'pnum' Proportional Numbers lookup 15 subtable" seven.fitted
Substitution2: "'sinf' Scientific Inferiors lookup 8 subtable" seven.inferior
Substitution2: "'sups' Superscript lookup 7 subtable" seven.superior
AlternateSubs2: "'aalt' Access All Alternates lookup 0 subtable" seven.oldstyle seven.superior seven.fitted
EndChar

StartChar: eight
Encoding: 56 56 25
Width: 465
GlyphClass: 2
Flags: MW
HStem: -9 37<205 251 205 291.5> 573 37<205 267.5>
VStem: 47 70<101 161 101 165.5> 72 70<475.5 511.5> 324 69<459 509.5> 345 75<124 164.5>
LayerCount: 2
Fore
SplineSet
228 28 m 0xe4
 274 28 345 44 345 141 c 0
 345 188 319 231.900390625 257 271 c 2
 211 300 l 1
 125 243 117 176 117 146 c 0
 117 56 182 28 228 28 c 0xe4
393 485 m 0xd8
 393 421 325 370 280 340 c 1
 341 300 l 2
 396 264 420 220 420 162 c 0
 420 86 357 -9 226 -9 c 0
 120 -9 47 44 47 146 c 0xe4
 47 185 65 230 106 266 c 0
 131 288 150 304 175 323 c 1
 155 334 l 2
 98 367 72 417 72 473 c 0
 72 550 139 610 241 610 c 0
 340 610 393 557 393 485 c 0xd8
235 573 m 0
 175 573 142 538 142 491 c 0
 142 460 149 423 212 382 c 2
 243 364 l 1
 271 384 324 432 324 486 c 0xd8
 324 533 300 573 235 573 c 0
EndSplineSet
Substitution2: "'onum' Oldstyle Figures lookup 16 subtable" eight.taboldstyle
Substitution2: "'pnum' Proportional Numbers lookup 15 subtable" eight.fitted
Substitution2: "'sinf' Scientific Inferiors lookup 8 subtable" eight.inferior
Substitution2: "'sups' Superscript lookup 7 subtable" eight.superior
AlternateSubs2: "'aalt' Access All Alternates lookup 0 subtable" eight.oldstyle eight.superior eight.fitted
EndChar

StartChar: nine
Encoding: 57 57 26
Width: 465
GlyphClass: 2
Flags: MW
HStem: -11 28<60 63> 242 40<181.5 231> 569 40<181 231.5>
VStem: 32 84<402.5 456> 334 79<355 449>
LayerCount: 2
Fore
SplineSet
60 17 m 1
 129 24 185 42 236 91 c 0
 284 138 320 209 331 294 c 1
 307 264 251 242 211 242 c 0
 55 242 32 372 32 420 c 0
 32 492 70 609 216 609 c 0
 293 609 413 567 413 357 c 0
 413 260 379.700195312 165.299804688 307 92 c 0
 238.700195312 23.2001953125 166 -5 63 -11 c 1
 60 17 l 1
333 323 m 1
 334 333 334 350 334 360 c 0
 334 538 258 569 205 569 c 0
 157 569 116 537 116 427 c 0
 116 378 131 282 232 282 c 0
 254 282 294 283 333 323 c 1
EndSplineSet
Substitution2: "'onum' Oldstyle Figures lookup 16 subtable" nine.taboldstyle
Substitution2: "'pnum' Proportional Numbers lookup 15 subtable" nine.fitted
Substitution2: "'sinf' Scientific Inferiors lookup 8 subtable" nine.inferior
Substitution2: "'sups' Superscript lookup 7 subtable" nine.superior
AlternateSubs2: "'aalt' Access All Alternates lookup 0 subtable" nine.oldstyle nine.superior nine.fitted
EndChar

StartChar: colon
Encoding: 58 58 27
Width: 220
GlyphClass: 2
Flags: MW
HStem: 39 112<115 119 115 119> 302 112<115 119 115 119>
VStem: 61 112<93 97 93 97 356 360>
LayerCount: 2
Fore
SplineSet
61 93 m 1
 61 97 l 1
 70.2001953125 123.5 84.7998046875 138.799804688 115 151 c 1
 119 151 l 1
 148 140.5 163.799804688 125.200195312 173 97 c 1
 173 93 l 1
 162.799804688 60.7998046875 147.200195312 46 119 39 c 1
 115 39 l 1
 83.7998046875 46 69.7998046875 59.5 61 93 c 1
61 356 m 1
 61 360 l 1
 70.2001953125 386.5 84.7998046875 401.799804688 115 414 c 1
 119 414 l 1
 148 403.5 163.799804688 388.200195312 173 360 c 1
 173 356 l 1
 162.799804688 323.799804688 147.200195312 309 119 302 c 1
 115 302 l 1
 83.7998046875 309 69.7998046875 322.5 61 356 c 1
EndSplineSet
EndChar

StartChar: semicolon
Encoding: 59 59 28
Width: 220
GlyphClass: 2
Flags: MW
HStem: -3 105 302 112
VStem: 51 112<355.999 359.999 355.999 359.999> 131 39<-44 -16.75>
LayerCount: 2
Fore
SplineSet
48 44 m 1xd0
 48 47.9990234375 l 1
 57.2001953125 74.4990234375 71.7998046875 89.798828125 102 101.999023438 c 1
 106 101.999023438 l 1
 142.200195312 88.8994140625 170 61.7998046875 170 -3 c 0
 170 -85 120 -112.299804688 66 -144 c 1
 59.2001953125 -138.099609375 53 -133 53 -123 c 1
 102 -90 131 -62 131 -29 c 0
 131 -4.5 114.5 -3 102 -3 c 0
 70.7998046875 4 56.7998046875 10.5 48 44 c 1xd0
51 355.999023438 m 1xe0
 51 359.999023438 l 1
 60.2001953125 386.499023438 74.7998046875 401.798828125 105 413.999023438 c 1
 109 413.999023438 l 1
 138 403.499023438 153.799804688 388.19921875 163 359.999023438 c 1
 163 355.999023438 l 1
 152.799804688 323.798828125 137.200195312 308.999023438 109 301.999023438 c 1
 105 301.999023438 l 1
 73.7998046875 308.999023438 59.7998046875 322.499023438 51 355.999023438 c 1xe0
EndSplineSet
EndChar

StartChar: less
Encoding: 60 60 29
Width: 487
GlyphClass: 2
Flags: MW
HStem: 73 331<439 439>
LayerCount: 2
Fore
SplineSet
122 239 m 1
 439 123 l 1
 439 73 l 1
 49 215 l 1
 49 263 l 1
 439 404 l 1
 439 354 l 1
 122 239 l 1
EndSplineSet
EndChar

StartChar: equal
Encoding: 61 61 30
Width: 527
GlyphClass: 2
Flags: MW
HStem: 144 49<66 461 66 461> 269 49<66 461 66 461>
LayerCount: 2
Fore
SplineSet
461 193 m 1
 461 144 l 1
 66 144 l 1
 66 193 l 1
 461 193 l 1
461 318 m 1
 461 269 l 1
 66 269 l 1
 66 318 l 1
 461 318 l 1
EndSplineSet
Substitution2: "'sinf' Scientific Inferiors lookup 8 subtable" equal.inferior
Substitution2: "'sups' Superscript lookup 7 subtable" equal.superior
AlternateSubs2: "'aalt' Access All Alternates lookup 0 subtable" equal.superior
EndChar

StartChar: greater
Encoding: 62 62 31
Width: 487
GlyphClass: 2
Flags: MW
HStem: 71 331<49 49>
LayerCount: 2
Fore
SplineSet
366 236 m 1
 49 352 l 1
 49 402 l 1
 439 260 l 1
 439 212 l 1
 49 71 l 1
 49 121 l 1
 366 236 l 1
EndSplineSet
EndChar

StartChar: question
Encoding: 63 63 32
Width: 405
GlyphClass: 2
Flags: MW
HStem: -10 112<178 182 178 182> 619 40<167.75 223.5>
VStem: 124 112<44 48 44 48> 167 26<184 228> 294 75<480.5 536.5>
LayerCount: 2
Fore
SplineSet
124 44 m 1xe8
 124 48 l 1
 133.200195312 74.5 147.799804688 89.7998046875 178 102 c 1
 182 102 l 1
 211 91.5 226.799804688 76.2001953125 236 48 c 1
 236 44 l 1
 225.799804688 11.7998046875 210.200195312 -3 182 -10 c 1
 178 -10 l 1
 146.799804688 -3 132.799804688 10.5 124 44 c 1xe8
195 619 m 0
 139 619 98 570 72 525 c 1
 59 526 l 1
 43 593 l 1
 46 597 l 1
 70.5 617.5 131.5 659 204 659 c 0
 306 659 369 599 369 508 c 0
 369 429 310 385 263 351 c 0
 240 334 220 318 211 301 c 0
 198 276 193 252 193 228 c 2
 193 184 l 2
 193 177 188 174 180 174 c 0
 172 174 167 177 167 184 c 2
 167 230 l 2xd8
 167 273 169.599609375 331.400390625 234 391 c 0
 274 428 294 457 294 504 c 0
 294 569 252 619 195 619 c 0
EndSplineSet
EndChar

StartChar: at
Encoding: 64 64 33
Width: 895
GlyphClass: 2
Flags: MW
HStem: -158 33<344 510.5> 27 35<593 645 593 660> 27 43 379 31<495.5 522> 581 30<383 521.5>
VStem: 59 80<166 330.5> 273 73<138 193 138 224.5> 760 79<225 375.5 225 378>
LayerCount: 2
Fore
SplineSet
583 74 m 0xdf
 583 64 592 62 594 62 c 0
 696 62 760 109 760 275 c 0
 760 481 584 581 459 581 c 0
 307 581 139 478 139 241 c 0
 139 91 215 -125 473 -125 c 0
 558 -125 620 -102 674 -59 c 1
 687 -77 l 1
 627 -123 567 -158 454 -158 c 0
 215 -158 59 10 59 223 c 0
 59 438 244 611 469 611 c 0
 684 611 839 469 839 282 c 0
 839 168 769 27 551 27 c 0
 522 27 515 52 515 68 c 0
 515 83 522 106 530 131 c 1
 528 132 l 1
 484 58 430 29 395 29 c 0
 295 29 273 113 273 153 c 0
 273 296 400 410 506 410 c 0
 539 410 573 393 583 367 c 1
 588 391 l 1
 641 404 l 1
 656 399 l 1
 596 141 l 2
 590 114 583 80.5 583 74 c 0xdf
569 316 m 0
 569 354 540 379 504 379 c 0
 487 379 444 370 414 339 c 0
 363 288 346 224 346 162 c 0
 346 114 361 70 424 70 c 0xbf
 459 70 508 127 539 200 c 0
 552 231 569 282 569 316 c 0
EndSplineSet
EndChar

StartChar: A
Encoding: 65 65 34
Width: 639
GlyphClass: 2
Flags: MW
HStem: -3 21G<19.998 19.998> 230 44<294.749 321.849 292.549 330.999> 638 20G<314.998 342.998 342.998 342.998>
AnchorPoint: "Anchor-5" 322 700 basechar 0
AnchorPoint: "Anchor-4" 322 798 basechar 0
AnchorPoint: "Anchor-3" 270 -108 basechar 0
AnchorPoint: "Anchor-2" 58 8 basechar 0
LayerCount: 2
Fore
SplineSet
411.299804688 275.5 m 1
 384.399414062 345.200195312 351.098632812 427.400390625 309.999023438 521.80078125 c 1
 307.999023438 521.80078125 l 1
 202.598632812 275.900390625 l 1
 234.298828125 275.5 278.098632812 274 306.999023438 274 c 0
 336.69921875 274 378.399414062 274.700195312 411.299804688 275.5 c 1
182.999023438 228.299804688 m 1
 147.298828125 140.799804688 116.3984375 58.2998046875 99.998046875 -3 c 1
 87.998046875 0 65.998046875 0 54.998046875 0 c 0
 43.998046875 0 31.998046875 0 19.998046875 -3 c 1
 314.998046875 658 l 1
 342.998046875 658 l 1
 434.998046875 439 566.998046875 98 616.998046875 -3 c 1
 599.998046875 0 573.998046875 0 556.998046875 0 c 0
 539.998046875 0 523.998046875 0 506.998046875 -3 c 1
 500.8984375 19.2001953125 478.298828125 97.2001953125 429.298828125 228.299804688 c 1
 391.598632812 229.200195312 349.999023438 230 311.999023438 230 c 0
 277.499023438 230 220.999023438 229.200195312 182.999023438 228.299804688 c 1
EndSplineSet
Substitution2: "'c2sc' Capitals to Small Capitals lookup 9 subtable" a.sc
Position2: "'cpsp' Capital Spacing lookup 0 subtable" dx=5 dy=0 dh=10 dv=0
EndChar

StartChar: B
Encoding: 66 66 35
Width: 616
GlyphClass: 2
Flags: MW
HStem: -3 43<261.5 359.1 252 405.5> 328 43<190 268 190 268 268 283> 605 43<256.5 309>
VStem: 104 86<200 328 371 445 445 482.5> 408 87<465.5 526.5 465.5 532> 455 99<141 210>
AnchorPoint: "Anchor-5" 289 700 basechar 0
AnchorPoint: "Anchor-4" 282 798 basechar 0
AnchorPoint: "Anchor-3" 275 -108 basechar 0
AnchorPoint: "Anchor-2" 257 0 basechar 0
LayerCount: 2
Fore
SplineSet
147 645 m 0xf4
 197 645 239 648 274 648 c 0
 460 648 495 560 495 493 c 0xf8
 495 438 453 385 402 360 c 1
 489 335 554 280 554 184 c 0
 554 98 505 -3 306 -3 c 0
 217 -3 209 0 147 0 c 0
 112 0 95 -3 95 -3 c 1
 94 0 l 1
 102 54 104 125 104 200 c 2
 104 445 l 2
 104 520 102 588 94 645 c 1
 96 648 l 1
 96 648 113 645 147 645 c 0xf4
190 328 m 1
 190 88 l 2
 190 55 217 40 287 40 c 0
 431.200195312 40 455 95.900390625 455 165 c 0xf4
 455 255 400 328 283 328 c 2
 190 328 l 1
190 559 m 2
 190 371 l 1
 268 371 l 2
 351 371 408 396 408 481 c 0xf8
 408 583 337 605 281 605 c 0
 200 605 190 592.299804688 190 559 c 2
EndSplineSet
Substitution2: "'c2sc' Capitals to Small Capitals lookup 9 subtable" b.sc
Position2: "'cpsp' Capital Spacing lookup 0 subtable" dx=5 dy=0 dh=10 dv=0
EndChar

StartChar: C
Encoding: 67 67 36
Width: 682
GlyphClass: 2
Flags: MW
HStem: -10 51<307.5 424.5> 611 47<325 411>
VStem: 52 103<261 413.5>
AnchorPoint: "Anchor-5" 371 700 basechar 0
AnchorPoint: "Anchor-4" 371 798 basechar 0
AnchorPoint: "Anchor-3" 385 -110 basechar 0
AnchorPoint: "Anchor-2" 387 -7 basechar 0
LayerCount: 2
Fore
SplineSet
380 658 m 0
 502 658 597.999023438 613 597.999023438 613 c 1
 599.999023438 610 l 1
 588.19921875 560.700195312 583.599609375 550 580 499 c 1
 570 498 l 1
 529 580 456 611 366 611 c 0
 284 611 155 537 155 334 c 0
 155 188 230 41 385 41 c 0
 478 41 527 66 598 144 c 1
 622 125 l 1
 554 36 473 -10 376 -10 c 0
 161 -10 52 154 52 315 c 0
 52 512 211 658 380 658 c 0
EndSplineSet
Substitution2: "'c2sc' Capitals to Small Capitals lookup 9 subtable" c.sc
Position2: "'cpsp' Capital Spacing lookup 0 subtable" dx=5 dy=0 dh=10 dv=0
EndChar

StartChar: D
Encoding: 68 68 37
Width: 710
GlyphClass: 2
Flags: MW
HStem: -2 44<278.5 369.5 250 400.5> 604 44<280 382>
VStem: 104 86<200 445 445 482.5> 555 103<185 361>
AnchorPoint: "Anchor-5" 309 700 basechar 0
AnchorPoint: "Anchor-4" 309 798 basechar 0
AnchorPoint: "Anchor-3" 282 -107 basechar 0
AnchorPoint: "Anchor-2" 282 4 basechar 0
LayerCount: 2
Fore
SplineSet
147 645 m 0
 211 645 248 648 312 648 c 0
 504 648 658 494 658 308 c 0
 658 62 471 -2 330 -2 c 0
 227 -2 218 0 147 0 c 0
 112 0 95 -3 95 -3 c 1
 94 0 l 1
 102 54 104 125 104 200 c 2
 104 445 l 2
 104 520 102 588 94 645 c 1
 96 648 l 1
 96 648 113 645 147 645 c 0
190 82 m 2
 190 50 201 42 299 42 c 0
 440 42 555 82 555 284 c 0
 555 438 490 604 274 604 c 0
 225 604 190 599 190 564 c 2
 190 82 l 2
EndSplineSet
Substitution2: "'c2sc' Capitals to Small Capitals lookup 9 subtable" d.sc
Position2: "'cpsp' Capital Spacing lookup 0 subtable" dx=5 dy=0 dh=10 dv=0
EndChar

StartChar: E
Encoding: 69 69 38
Width: 548
GlyphClass: 2
Flags: MW
HStem: 0 56<129.5 265 198 265 198 420> 317 50<190 214> 589 56<198 265>
VStem: 104 86<200 317 367 445>
AnchorPoint: "Anchor-5" 284 700 basechar 0
AnchorPoint: "Anchor-4" 287 805 basechar 0
AnchorPoint: "Anchor-3" 283 -107 basechar 0
AnchorPoint: "Anchor-2" 283 4 basechar 0
LayerCount: 2
Fore
SplineSet
190 200 m 2
 190 183 191 80 198 56 c 1
 332 56 480 68 480 68 c 1
 482 64 l 1
 481 56 480 41 480 31 c 0
 480 21 481 14 482 0 c 1
 480 -3 l 1
 464 -1 441 0 420 0 c 2
 147 0 l 2
 112 0 95 -3 95 -3 c 1
 94 0 l 1
 102 54 104 125 104 200 c 2
 104 445 l 2
 104 520 102 588 94 645 c 1
 96 648 l 1
 96 648 113 645 147 645 c 2
 410 645 l 2
 431 645 454 646 470 648 c 1
 472 645 l 1
 471 631 470 615 470 607 c 0
 470 598 471 589 472 581 c 1
 470 577 l 1
 470 577 332 589 198 589 c 1
 191 565 190 462 190 445 c 2
 190 367 l 1
 308 367 354 372 413 377 c 1
 416 374 l 1
 414 365 413 351 413 342 c 0
 413 333 414 319 416 310 c 1
 413 307 l 1
 344 314 238 317 190 317 c 1
 190 200 l 2
EndSplineSet
Substitution2: "'c2sc' Capitals to Small Capitals lookup 9 subtable" e.sc
Position2: "'cpsp' Capital Spacing lookup 0 subtable" dx=5 dy=0 dh=10 dv=0
EndChar

StartChar: F
Encoding: 70 70 39
Width: 504
GlyphClass: 2
Flags: MW
HStem: -3 21G<95 95 198 198> 317 50<190 214> 589 56<198 265>
VStem: 104 86<200 317 367 445>
AnchorPoint: "Anchor-5" 293 700 basechar 0
AnchorPoint: "Anchor-4" 292 798 basechar 0
AnchorPoint: "Anchor-3" 207 -111 basechar 0
AnchorPoint: "Anchor-2" 151 -1 basechar 0
LayerCount: 2
Fore
SplineSet
407 645 m 2
 431 645 454 646 470 648 c 1
 472 645 l 1
 471 631 470 619 470 611 c 0
 470 602 471 589 472 581 c 1
 470 577 l 1
 470 577 332 589 198 589 c 1
 191 565 190 462 190 445 c 2
 190 367 l 1
 308 367 354 372 413 377 c 1
 416 374 l 1
 414 365 413 351 413 342 c 0
 413 333 414 319 416 310 c 1
 413 307 l 1
 344 314 238 317 190 317 c 1
 190 200 l 2
 190 125 192 57 200 0 c 1
 198 -3 l 1
 198 -3 181 0 147 0 c 0
 112 0 95 -3 95 -3 c 1
 94 0 l 1
 102 54 104 125 104 200 c 2
 104 445 l 2
 104 520 102 588 94 645 c 1
 96 648 l 1
 96 648 113 645 147 645 c 2
 407 645 l 2
EndSplineSet
Substitution2: "'c2sc' Capitals to Small Capitals lookup 9 subtable" f.sc
Position2: "'cpsp' Capital Spacing lookup 0 subtable" dx=5 dy=0 dh=10 dv=0
EndChar

StartChar: G
Encoding: 71 71 40
Width: 726
GlyphClass: 2
Flags: MW
HStem: -10 46<310 426 310 434.249> 611 47<319.5 432>
VStem: 52 103 546 86
AnchorPoint: "Anchor-5" 379 700 basechar 0
AnchorPoint: "Anchor-4" 379 798 basechar 0
AnchorPoint: "Anchor-3" 381 -111 basechar 0
AnchorPoint: "Anchor-2" 371 2 basechar 0
LayerCount: 2
Fore
SplineSet
546 117 m 2
 544.5 192 543.999023438 250 535.999023438 307 c 1
 537.999023438 310 l 1
 537.999023438 310 554.999023438 307 588.999023438 307 c 0
 623.999023438 307 640.999023438 310 640.999023438 310 c 1
 641.999023438 307 l 1
 633.999023438 254 631.999023438 212 631.999023438 137 c 2
 631.999023438 131 l 2
 631.999023438 120 633.298828125 93.7001953125 641.999023438 83 c 1
 641.999023438 80 l 1
 574.499023438 23.400390625 492.499023438 -10 375.999023438 -10 c 0
 174.999023438 -10 51.9990234375 144 51.9990234375 317 c 0
 51.9990234375 537 228.999023438 658 400.999023438 658 c 0
 522.999023438 658 628.999023438 613 628.999023438 613 c 1
 630.999023438 610 l 1
 619.19921875 560.700195312 614.599609375 540 611 489 c 1
 601 488 l 1
 556 564 477 611 387 611 c 0
 252 611 155 502 155 327 c 0
 155 195 221 36 399 36 c 0
 453 36 512 42 546 74 c 1
 546 117 l 2
EndSplineSet
Substitution2: "'c2sc' Capitals to Small Capitals lookup 9 subtable" g.sc
Position2: "'cpsp' Capital Spacing lookup 0 subtable" dx=5 dy=0 dh=10 dv=0
EndChar

StartChar: H
Encoding: 72 72 41
Width: 726
GlyphClass: 2
Flags: MW
HStem: -3 21G<95 95 198 198 527 527 630 630> 321 44<190 536 190 536> 628 20G<96 96 199 199 528 528 631 631>
VStem: 104 86<200 321 365 445> 536 86<200 321 321 321 365 445>
AnchorPoint: "Anchor-5" 354 700 basechar 0
AnchorPoint: "Anchor-4" 354 798 basechar 0
AnchorPoint: "Anchor-3" 353 -107 basechar 0
AnchorPoint: "Anchor-2" 149 0 basechar 0
LayerCount: 2
Fore
SplineSet
536 445 m 2
 536 520 534 588 526 645 c 1
 528 648 l 1
 528 648 545 645 579 645 c 0
 614 645 631 648 631 648 c 1
 632 645 l 1
 624 592 622 520 622 445 c 2
 622 200 l 2
 622 125 624 57 632 0 c 1
 630 -3 l 1
 630 -3 613 0 579 0 c 0
 544 0 527 -3 527 -3 c 1
 526 0 l 1
 534 54 536 125 536 200 c 2
 536 321 l 1
 190 321 l 1
 190 200 l 2
 190 125 192 57 200 0 c 1
 198 -3 l 1
 198 -3 181 0 147 0 c 0
 112 0 95 -3 95 -3 c 1
 94 0 l 1
 102 54 104 125 104 200 c 2
 104 445 l 2
 104 520 102 588 94 645 c 1
 96 648 l 1
 96 648 113 645 147 645 c 0
 182 645 199 648 199 648 c 1
 200 645 l 1
 192 592 190 520 190 445 c 2
 190 365 l 1
 536 365 l 1
 536 445 l 2
EndSplineSet
Substitution2: "'c2sc' Capitals to Small Capitals lookup 9 subtable" h.sc
Position2: "'cpsp' Capital Spacing lookup 0 subtable" dx=5 dy=0 dh=10 dv=0
EndChar

StartChar: I
Encoding: 73 73 42
Width: 294
GlyphClass: 2
Flags: MW
HStem: -3 21G<95 95 198 198> 628 20G<96 96 199 199>
VStem: 104 86<200 445>
AnchorPoint: "Anchor-5" 144 700 basechar 0
AnchorPoint: "Anchor-4" 144 798 basechar 0
AnchorPoint: "Anchor-3" 143 -109 basechar 0
AnchorPoint: "Anchor-2" 143 1 basechar 0
LayerCount: 2
Fore
SplineSet
104 445 m 2
 104 520 102 588 94 645 c 1
 96 648 l 1
 96 648 113 645 147 645 c 0
 182 645 199 648 199 648 c 1
 200 645 l 1
 192 592 190 520 190 445 c 2
 190 200 l 2
 190 125 192 57 200 0 c 1
 198 -3 l 1
 198 -3 181 0 147 0 c 0
 112 0 95 -3 95 -3 c 1
 94 0 l 1
 102 54 104 125 104 200 c 2
 104 445 l 2
EndSplineSet
Substitution2: "'c2sc' Capitals to Small Capitals lookup 9 subtable" i.sc
Position2: "'cpsp' Capital Spacing lookup 0 subtable" dx=5 dy=0 dh=10 dv=0
EndChar

StartChar: J
Encoding: 74 74 43
Width: 330
GlyphClass: 2
Flags: MW
HStem: -172 60<-4.5 95.5> 628 20G<132 132 235 235>
VStem: 140 86<95 117 117 445>
AnchorPoint: "Anchor-5" 181 723 basechar 0
AnchorPoint: "Anchor-4" 182 806 basechar 0
LayerCount: 2
Fore
SplineSet
140 95 m 2
 140 445 l 2
 140 520 138 588 130 645 c 1
 132 648 l 1
 132 648 149 645 183 645 c 0
 218 645 235 648 235 648 c 1
 236 645 l 1
 228 592 226 520 226 445 c 2
 226 117 l 2
 226 2.5 216 -27 163 -96 c 0
 121 -150 68 -172 5 -172 c 0
 -14 -172 -32 -168 -40 -163 c 1
 -41 -160 l 1
 -30 -141 -20 -105 -13 -78 c 1
 -2 -77 l 1
 9 -97 27 -112 56 -112 c 0
 135 -112 140 7 140 95 c 2
EndSplineSet
Substitution2: "'ss02' Style Set 2 lookup 20 subtable" J.alt
Substitution2: "'c2sc' Capitals to Small Capitals lookup 9 subtable" j.sc
Position2: "'cpsp' Capital Spacing lookup 0 subtable" dx=5 dy=0 dh=10 dv=0
EndChar

StartChar: K
Encoding: 75 75 44
Width: 649
GlyphClass: 2
Flags: MW
HStem: -3 21G<95 95 198 198 606.999 606.999> 628 20G
VStem: 104 86<200 328.7>
AnchorPoint: "Anchor-5" 335 719 basechar 0
AnchorPoint: "Anchor-4" 336 798 basechar 0
AnchorPoint: "Anchor-3" 342 -109 basechar 0
AnchorPoint: "Anchor-2" 148 -1 basechar 0
LayerCount: 2
Fore
SplineSet
104 445 m 2
 104 520 101.999023438 588.000976562 93.9990234375 645.000976562 c 1
 95.9990234375 648.000976562 l 1
 95.9990234375 648.000976562 112.999023438 645.000976562 146.999023438 645.000976562 c 0
 181.999023438 645.000976562 198.999023438 648.000976562 198.999023438 648.000976562 c 1
 199.999023438 645.000976562 l 1
 191.999023438 592.000976562 189.999023438 520.000976562 189.999023438 445.000976562 c 2
 189.999023438 344.100585938 l 1
 195.098632812 344.600585938 205.098632812 346.900390625 211.999023438 353 c 0
 299.798828125 430.200195312 407.999023438 546 496.999023438 648 c 1
 509.999023438 645 532.999023438 645 545.999023438 645 c 0
 560.999023438 645 580.999023438 645 596.999023438 648 c 1
 508.999023438 571 360.999023438 433 292.999023438 354 c 1
 292.999023438 352 l 1
 606.999023438 -3 l 1
 587.999023438 0 563.999023438 0 544.999023438 0 c 0
 527.999023438 0 499.999023438 0 482.999023438 -3 c 1
 392.999023438 108 249.999023438 281 208.999023438 322 c 0
 204.19921875 326 195.099609375 328 190 328.700195312 c 1
 190 200 l 2
 190 125 192 57 200 0 c 1
 198 -3 l 1
 198 -3 181 0 147 0 c 0
 112 0 95 -3 95 -3 c 1
 94 0 l 1
 102 54 104 125 104 200 c 2
 104 445 l 2
EndSplineSet
Substitution2: "'ss02' Style Set 2 lookup 20 subtable" K.alt
Substitution2: "'c2sc' Capitals to Small Capitals lookup 9 subtable" k.sc
AlternateSubs2: "'aalt' Access All Alternates lookup 0 subtable" K.alt k.sc
Position2: "'cpsp' Capital Spacing lookup 0 subtable" dx=5 dy=0 dh=10 dv=0
EndChar

StartChar: L
Encoding: 76 76 45
Width: 515
GlyphClass: 2
Flags: MW
HStem: 0 61<131 266 199 266 199 421> 628 20G<96 96 200 200>
VStem: 105 86<200 445>
AnchorPoint: "Anchor-5" 150 721 basechar 0
AnchorPoint: "Anchor-4" 151 804 basechar 0
AnchorPoint: "Anchor-3" 262 -110 basechar 0
AnchorPoint: "Anchor-2" 262 1 basechar 0
LayerCount: 2
Fore
SplineSet
191 200 m 2
 191 183 192 85 199 61 c 1
 333 61 481 83 481 83 c 1
 483 79 l 1
 482 71 481 54 481 44 c 0
 481 34 482 14 483 0 c 1
 481 -3 l 1
 465 -1 442 0 421 0 c 2
 148 0 l 2
 114 0 96 -3 96 -3 c 1
 95 0 l 1
 103 54 105 125 105 200 c 2
 105 445 l 2
 105 520 102 588 94 645 c 1
 96 648 l 1
 96 648 114 645 148 645 c 0
 183 645 200 648 200 648 c 1
 201 645 l 1
 193 592 191 520 191 445 c 2
 191 200 l 2
EndSplineSet
Substitution2: "'c2sc' Capitals to Small Capitals lookup 9 subtable" l.sc
Position2: "'cpsp' Capital Spacing lookup 0 subtable" dx=5 dy=0 dh=10 dv=0
EndChar

StartChar: M
Encoding: 77 77 46
Width: 916
GlyphClass: 2
Flags: MW
HStem: -3 21G<158 158>
VStem: 82 76<4.29497e+09 4.29497e+09>
AnchorPoint: "Anchor-5" 457 721 basechar 0
AnchorPoint: "Anchor-4" 458 804 basechar 0
AnchorPoint: "Anchor-3" 434 -110 basechar 0
AnchorPoint: "Anchor-2" 148 2 basechar 0
LayerCount: 2
Fore
SplineSet
204 662 m 1
 230 661.998046875 l 1
 314.400390625 487.3984375 371.100585938 320.798828125 465.900390625 146.499023438 c 1
 734 661.999023438 l 1
 756 661.999023438 l 1
 784 418.999023438 803 213.999023438 834 -3.0009765625 c 1
 819 -0.0009765625 799 -0.0009765625 784 -0.0009765625 c 0
 769 -0.0009765625 750 -0.0009765625 735 -3.0009765625 c 1
 721.299804688 162.798828125 708.700195312 315.19921875 689.5 472.899414062 c 1
 605.599609375 318.099609375 531.099609375 166.69921875 458 -0.0009765625 c 1
 439 -0.0009765625 l 1
 366.900390625 152.899414062 312.5 312.399414062 231.5 472.099609375 c 1
 158 -3 l 1
 147 0 131 0 120 0 c 0
 108 0 93 0 82 -3 c 1
 121 184 169 460 204 662 c 1
EndSplineSet
Substitution2: "'c2sc' Capitals to Small Capitals lookup 9 subtable" m.sc
Position2: "'cpsp' Capital Spacing lookup 0 subtable" dx=5 dy=0 dh=10 dv=0
EndChar

StartChar: N
Encoding: 78 78 47
Width: 718
GlyphClass: 2
Flags: MW
HStem: -3 21G<85 85 170 170> 628 20G<553 553 633 633>
VStem: 99 63 561 53
AnchorPoint: "Anchor-5" 353 721 basechar 0
AnchorPoint: "Anchor-4" 354 804 basechar 0
AnchorPoint: "Anchor-3" 356 -109 basechar 0
AnchorPoint: "Anchor-2" 117 -3 basechar 0
LayerCount: 2
Fore
SplineSet
99 645 m 1
 101 647.999023438 l 1
 101 647.999023438 118 644.999023438 152 644.999023438 c 0
 156.5 644.999023438 166 646.999023438 166 646.999023438 c 1
 509 202.999023438 l 2
 552.299804688 146.899414062 561 123.599609375 561 178 c 2
 561 445 l 2
 561 520 559 588 551 645 c 1
 553 648 l 1
 553 648 573.700195312 645 598 645 c 0
 620.299804688 645 633 648 633 648 c 1
 634 645 l 1
 618 423 619 249 614 21 c 0
 613 2 607 -10 593 -10 c 0
 577 -10 561 -1 550 14 c 2
 201 455 l 2
 163.900390625 503 162 500 162 439 c 2
 162 200 l 2
 162 125 164 57 172 0 c 1
 170 -3 l 1
 170 -3 144.299804688 0 120 0 c 0
 97.7001953125 0 85 -3 85 -3 c 1
 84 0 l 1
 100 159 108 455 99 645 c 1
EndSplineSet
Substitution2: "'c2sc' Capitals to Small Capitals lookup 9 subtable" n.sc
Position2: "'cpsp' Capital Spacing lookup 0 subtable" dx=5 dy=0 dh=10 dv=0
EndChar

StartChar: O
Encoding: 79 79 48
Width: 741
GlyphClass: 2
Flags: MW
HStem: -10 44<329 446 329 464.5> 614 44<307 425.5>
VStem: 52 103<231 408> 586 103<229 414>
AnchorPoint: "Anchor-5" 375 721 basechar 0
AnchorPoint: "Anchor-4" 376 804 basechar 0
AnchorPoint: "Anchor-3" 371 -113 basechar 0
AnchorPoint: "Anchor-2" 371 0 basechar 0
LayerCount: 2
Fore
SplineSet
689 329 m 0
 689 129 560 -10 369 -10 c 0
 197 -10 52 113 52 310 c 0
 52 506 189 658 368 658 c 0
 548 658 689 527 689 329 c 0
355 614 m 0
 259 614 155 537 155 327 c 0
 155 135 269 34 389 34 c 0
 503 34 586 131 586 310 c 0
 586 518 496 614 355 614 c 0
EndSplineSet
Substitution2: "'c2sc' Capitals to Small Capitals lookup 9 subtable" o.sc
Position2: "'cpsp' Capital Spacing lookup 0 subtable" dx=5 dy=0 dh=10 dv=0
EndChar

StartChar: P
Encoding: 80 80 49
Width: 559
GlyphClass: 2
Flags: MW
HStem: -3 21G<95 95 198 198> 276 43<256.5 317.5 256.5 365> 609 43<274 314.5>
VStem: 104 86<200 286 329 445 445 482.5> 422 97<433.5 513 433.5 530.5>
AnchorPoint: "Anchor-5" 277 720 basechar 0
AnchorPoint: "Anchor-4" 278 803 basechar 0
AnchorPoint: "Anchor-3" 241 -110 basechar 0
AnchorPoint: "Anchor-2" 151 -3 basechar 0
LayerCount: 2
Fore
SplineSet
104 445 m 2
 104 520 102 588 94 645 c 1
 96 648 l 1
 96 648 113 645 147 645 c 0
 177 645 261 652 287 652 c 0
 472 652 519 550 519 476 c 0
 519 391 456 276 274 276 c 0
 239 276 212 279 190 286 c 1
 190 200 l 2
 190 125 192 57 200 0 c 1
 198 -3 l 1
 198 -3 181 0 147 0 c 0
 112 0 95 -3 95 -3 c 1
 94 0 l 1
 102 54 104 125 104 200 c 2
 104 445 l 2
190 565 m 2
 190 329 l 1
 203 322 244 319 269 319 c 0
 366 319 422 356 422 471 c 0
 422 590 349 609 280 609 c 0
 208 609 190 594 190 565 c 2
EndSplineSet
Substitution2: "'c2sc' Capitals to Small Capitals lookup 9 subtable" p.sc
Position2: "'cpsp' Capital Spacing lookup 0 subtable" dx=5 dy=0 dh=10 dv=0
EndChar

StartChar: Q
Encoding: 81 81 50
Width: 741
GlyphClass: 2
Flags: MW
HStem: -10 44 614 44
VStem: 52 103 586 103
AnchorPoint: "Anchor-5" 346 720 basechar 0
AnchorPoint: "Anchor-4" 348 803 basechar 0
LayerCount: 2
Fore
SplineSet
483.799804688 8.7998046875 m 1
 448.899414062 -3.5 410.400390625 -10.0009765625 369 -10.0009765625 c 0
 197 -10.0009765625 52 112.999023438 52 309.999023438 c 0
 52 505.999023438 189 657.999023438 368 657.999023438 c 0
 548 657.999023438 689 526.999023438 689 328.999023438 c 0
 689 207.298828125 641.200195312 108.098632812 560.700195312 49.1982421875 c 1
 618.299804688 17.3984375 700.299804688 -39.701171875 810 -77.0009765625 c 1
 810 -83.0009765625 l 1
 774 -102.000976562 735 -125.000976562 716 -140.000976562 c 1
 605.299804688 -77.1005859375 613.700195312 -59.7001953125 483.799804688 8.7998046875 c 1
355.000976562 613.999023438 m 0
 259.000976562 613.999023438 155.000976562 536.999023438 155.000976562 326.999023438 c 0
 155.000976562 134.999023438 269.000976562 33.9990234375 389.000976562 33.9990234375 c 0
 503.000976562 33.9990234375 586.000976562 130.999023438 586.000976562 309.999023438 c 0
 586.000976562 517.999023438 496.000976562 613.999023438 355.000976562 613.999023438 c 0
EndSplineSet
Substitution2: "'c2sc' Capitals to Small Capitals lookup 9 subtable" q.sc
Position2: "'cpsp' Capital Spacing lookup 0 subtable" dx=5 dy=0 dh=10 dv=0
EndChar

StartChar: R
Encoding: 82 82 51
Width: 600
GlyphClass: 2
Flags: MW
HStem: -3 21G<573 573> 286 40 609 43
VStem: 104 86 426 89
AnchorPoint: "Anchor-5" 269 725 basechar 0
AnchorPoint: "Anchor-4" 270 808 basechar 0
AnchorPoint: "Anchor-3" 259 -111 basechar 0
AnchorPoint: "Anchor-2" 149 -1 basechar 0
LayerCount: 2
Fore
SplineSet
190 286 m 1
 190.000976562 199.998046875 l 2
 190.000976562 124.998046875 192.000976562 56.998046875 200.000976562 -0.001953125 c 1
 198.000976562 -3.001953125 l 1
 198.000976562 -3.001953125 181.000976562 -0.001953125 147.000976562 -0.001953125 c 0
 112.000976562 -0.001953125 95.0009765625 -3.001953125 95.0009765625 -3.001953125 c 1
 94.0009765625 -0.001953125 l 1
 102.000976562 53.998046875 104.000976562 124.998046875 104.000976562 199.998046875 c 2
 104.000976562 444.998046875 l 2
 104.000976562 519.998046875 102.000976562 587.998046875 94.0009765625 644.998046875 c 1
 96.0009765625 647.998046875 l 1
 96.0009765625 647.998046875 113.000976562 644.998046875 147.000976562 644.998046875 c 0
 177.000976562 644.998046875 257.000976562 651.998046875 282.000976562 651.998046875 c 0
 345.000976562 651.998046875 414.000976562 648.998046875 462.000976562 603.998046875 c 0
 498.000976562 569.998046875 515.000976562 528.998046875 515.000976562 478.998046875 c 0
 515.000976562 396.998046875 469.000976562 344.998046875 415.000976562 317.998046875 c 0
 401.80078125 311.198242188 384.30078125 304.8984375 360.900390625 299.798828125 c 1
 424.200195312 215.69921875 525 56.599609375 575 0 c 1
 573 -3 l 1
 553 0 533 0 513 0 c 0
 494 0 472 0 453 -3 c 1
 442 31 394 118 358 176 c 0
 332.5 217.099609375 310.799804688 256.299804688 282.700195312 289.200195312 c 1
 256.200195312 287.200195312 225.5 286 190 286 c 1
283.000976562 608.998046875 m 0
 193.000976562 608.998046875 190.000976562 603.998046875 190.000976562 564.998046875 c 2
 190.000976562 325.998046875 l 1
 248.000976562 325.998046875 l 2
 345.000976562 325.998046875 426.000976562 355.998046875 426.000976562 477.998046875 c 0
 426.000976562 585.998046875 344.000976562 608.998046875 283.000976562 608.998046875 c 0
EndSplineSet
Substitution2: "'ss02' Style Set 2 lookup 20 subtable" R.alt
Substitution2: "'c2sc' Capitals to Small Capitals lookup 9 subtable" r.sc
AlternateSubs2: "'aalt' Access All Alternates lookup 0 subtable" R.alt r.sc
Position2: "'cpsp' Capital Spacing lookup 0 subtable" dx=5 dy=0 dh=10 dv=0
EndChar

StartChar: S
Encoding: 83 83 52
Width: 506
GlyphClass: 2
Flags: MW
HStem: -10 44<214 271.5 214 295.5> 614 44<252.5 285.5>
VStem: 70 81<470.5 521.5> 359 93<123 193.5>
AnchorPoint: "Anchor-5" 261 720 basechar 0
AnchorPoint: "Anchor-4" 262 803 basechar 0
AnchorPoint: "Anchor-3" 245 -111 basechar 0
AnchorPoint: "Anchor-2" 225 2 basechar 0
LayerCount: 2
Fore
SplineSet
242 34 m 0
 301 34 359 76 359 151 c 0
 359 236 306.900390625 268.599609375 242 296 c 0
 159 331 70 380 70 485 c 0
 70 558 121 616 180 641 c 0
 209 653 239 658 266 658 c 0
 383 658 425 613 425 613 c 1
 427 610 l 1
 418 580 408 546 404 510 c 1
 394 509 l 1
 367 571 313 614 258 614 c 0
 235 614 214 611 197 602 c 0
 171 588 151 548 151 512 c 0
 151 429 222 400 273 381 c 0
 353.900390625 350.799804688 452 297 452 181 c 0
 452 65 357 -10 234 -10 c 0
 117 -10 52 35 52 35 c 1
 50 38 l 1
 58 68 69 105 73 141 c 1
 83 142 l 1
 114 83 186 34 242 34 c 0
EndSplineSet
Substitution2: "'c2sc' Capitals to Small Capitals lookup 9 subtable" s.sc
Position2: "'cpsp' Capital Spacing lookup 0 subtable" dx=5 dy=0 dh=10 dv=0
EndChar

StartChar: T
Encoding: 84 84 53
Width: 540
GlyphClass: 2
Flags: MW
HStem: -3 21G<218 218 321 321> 589 56<152 219 321 388>
VStem: 227 86<200 445>
AnchorPoint: "Anchor-5" 268 720 basechar 0
AnchorPoint: "Anchor-4" 270 803 basechar 0
AnchorPoint: "Anchor-3" 273 -107 basechar 0
AnchorPoint: "Anchor-2" 266 1 basechar 0
LayerCount: 2
Fore
SplineSet
227 445 m 2
 227 462 226 565 219 589 c 1
 85 589 17 575 17 575 c 1
 15 579 l 1
 17 594 17 617 15 645 c 1
 17 648 l 1
 33 646 56 645 77 645 c 2
 463 645 l 2
 484 645 507 646 523 648 c 1
 525 645 l 1
 523 617 523 594 525 579 c 1
 523 575 l 1
 523 575 455 589 321 589 c 1
 314 565 313 462 313 445 c 2
 313 200 l 2
 313 125 315 57 323 0 c 1
 321 -3 l 1
 321 -3 304 0 270 0 c 0
 235 0 218 -3 218 -3 c 1
 217 0 l 1
 225 54 227 125 227 200 c 2
 227 445 l 2
EndSplineSet
Substitution2: "'c2sc' Capitals to Small Capitals lookup 9 subtable" t.sc
Position2: "'cpsp' Capital Spacing lookup 0 subtable" dx=5 dy=0 dh=10 dv=0
EndChar

StartChar: U
Encoding: 85 85 54
Width: 692
GlyphClass: 2
Flags: MW
HStem: -10 56<292 439.5> 628 20G<96 96 199 199 537 537 607 607>
VStem: 104 86<242 269 269 445> 545 53<277 295 295 445>
AnchorPoint: "Anchor-5" 353 722 basechar 0
AnchorPoint: "Anchor-4" 354 805 basechar 0
AnchorPoint: "Anchor-3" 344 -109 basechar 0
AnchorPoint: "Anchor-2" 344 4 basechar 0
LayerCount: 2
Fore
SplineSet
545 445 m 2
 545 520 543 588 535 645 c 1
 537 648 l 1
 537 648 547.700195312 645 572 645 c 0
 594.299804688 645 607 648 607 648 c 1
 608 645 l 1
 600 592 598 520 598 445 c 2
 598 295 l 2
 598 117 542 -10 337 -10 c 0
 247 -10 104 32 104 236 c 2
 104 445 l 2
 104 520 102 588 94 645 c 1
 96 648 l 1
 96 648 113 645 147 645 c 0
 182 645 199 648 199 648 c 1
 200 645 l 1
 192 592 190 520 190 445 c 2
 190 269 l 2
 190 215 190 46 358 46 c 0
 527 46 545 165 545 277 c 2
 545 445 l 2
EndSplineSet
Substitution2: "'c2sc' Capitals to Small Capitals lookup 9 subtable" u.sc
Position2: "'cpsp' Capital Spacing lookup 0 subtable" dx=5 dy=0 dh=10 dv=0
EndChar

StartChar: V
Encoding: 86 86 55
Width: 631
GlyphClass: 2
Flags: MW
HStem: -10 21G 628 20G
LayerCount: 2
Fore
SplineSet
323.303710938 676.586914062 m 1
 354.153320312 630.764648438 396.889648438 520.118164062 396.889648438 520.118164062 c 1
 528.0625 648 l 2
 536.20703125 646.06640625 552.989257812 645.078125 578.41015625 645.078125 c 0
 593.381835938 645.078125 604.940429688 646.06640625 613.083984375 648 c 1
 531.518554688 466.110351562 l 2
 536.20703125 457.760742188 540.073242188 448.298828125 541.267578125 439.208984375 c 0
 546.942382812 395.690429688 618.965820312 373.314453125 655.287109375 364.552734375 c 0
 680.0078125 358.547851562 691.483398438 348.716796875 649.857421875 297.793945312 c 0
 620.981445312 262.419921875 570.51171875 262.831054688 546.161132812 263.901367188 c 0
 463.731445312 267.5625 435.390625 250.532226562 407.37890625 188.298828125 c 2
 317.956054688 -10.0849609375 l 1
 290.109375 -10.0849609375 l 2
 268.596679688 41.7021484375 236.5546875 119.854492188 193.858398438 224.413085938 c 0
 151.533203125 328.973632812 114.883789062 418.190429688 83.951171875 492.147460938 c 0
 53.3486328125 566.0625 30.685546875 618.0546875 16 648 c 1
 27.39453125 646.06640625 47.42578125 645.078125 76.095703125 645.078125 c 0
 101.186523438 645.078125 119.44921875 646.06640625 130.842773438 648 c 0
 170.90625 506.008789062 234.62109375 334.033203125 321.905273438 132.0703125 c 1
 324.33203125 132.0703125 l 1
 324.33203125 132.0703125 391.666992188 288.416015625 450.239257812 297.465820312 c 0
 503.670898438 305.774414062 579.561523438 261.967773438 637.352539062 315.892578125 c 1
 623.8203125 322.186523438 617.280273438 331.852539062 617.690429688 344.891601562 c 1
 617.690429688 344.891601562 576.393554688 330.20703125 521.111328125 342.423828125 c 0
 499.557617188 347.153320312 465.829101562 364.635742188 432.922851562 373.561523438 c 0
 358.924804688 393.592773438 319.06640625 357.025390625 298.459960938 329.137695312 c 1
 314.294921875 339.626953125 352.013671875 331.481445312 372.91015625 304.293945312 c 0
 345.268554688 279.3671875 327.087890625 240.619140625 323.303710938 205.081054688 c 1
 227.79296875 453.235351562 l 1
 227.79296875 453.235351562 279.908203125 603.288085938 323.303710938 676.586914062 c 1
323.509765625 633.80859375 m 1
 307.755859375 585.930664062 291.548828125 458.623046875 291.548828125 458.623046875 c 1
 303.642578125 479.848632812 335.149414062 504.610351562 371.100585938 514.76953125 c 1
 371.100585938 514.76953125 342.635742188 600.408203125 323.509765625 633.80859375 c 1
512.30859375 603.247070312 m 1
 458.095703125 517.032226562 l 1
 464.759765625 515.756835938 483.927734375 508.065429688 493.017578125 503.252929688 c 1
 512.30859375 603.247070312 l 1
430.001953125 431.969726562 m 0
 427.1640625 432.009765625 424.28515625 431.88671875 421.282226562 431.599609375 c 1
 433.745117188 411.814453125 450.651367188 398.1171875 479.772460938 406.549804688 c 1
 467.021484375 423.455078125 450.033203125 431.681640625 430.001953125 431.969726562 c 0
323.303710938 676.586914062 m 1
 354.153320312 630.764648438 396.889648438 520.118164062 396.889648438 520.118164062 c 1
 528.0625 648 l 2
 536.20703125 646.06640625 552.989257812 645.078125 578.41015625 645.078125 c 0
 593.381835938 645.078125 604.940429688 646.06640625 613.083984375 648 c 1
 531.518554688 466.110351562 l 2
 536.20703125 457.760742188 540.073242188 448.298828125 541.267578125 439.208984375 c 0
 546.942382812 395.690429688 618.965820312 373.314453125 655.287109375 364.552734375 c 0
 680.0078125 358.547851562 691.483398438 348.716796875 649.857421875 297.793945312 c 0
 620.981445312 262.419921875 570.51171875 262.831054688 546.161132812 263.901367188 c 0
 463.731445312 267.5625 435.390625 250.532226562 407.37890625 188.298828125 c 2
 317.956054688 -10.0849609375 l 1
 290.109375 -10.0849609375 l 2
 268.596679688 41.7021484375 236.5546875 119.854492188 193.858398438 224.413085938 c 0
 151.533203125 328.973632812 114.883789062 418.190429688 83.951171875 492.147460938 c 0
 53.3486328125 566.0625 30.685546875 618.0546875 16 648 c 1
 27.39453125 646.06640625 47.42578125 645.078125 76.095703125 645.078125 c 0
 101.186523438 645.078125 119.44921875 646.06640625 130.842773438 648 c 0
 170.90625 506.008789062 234.62109375 334.033203125 321.905273438 132.0703125 c 1
 324.33203125 132.0703125 l 1
 324.33203125 132.0703125 391.666992188 288.416015625 450.239257812 297.465820312 c 0
 503.670898438 305.774414062 579.561523438 261.967773438 637.352539062 315.892578125 c 1
 623.8203125 322.186523438 617.280273438 331.852539062 617.690429688 344.891601562 c 1
 617.690429688 344.891601562 576.393554688 330.20703125 521.111328125 342.423828125 c 0
 499.557617188 347.153320312 465.829101562 364.635742188 432.922851562 373.561523438 c 0
 358.924804688 393.592773438 319.06640625 357.025390625 298.459960938 329.137695312 c 1
 314.294921875 339.626953125 352.013671875 331.481445312 372.91015625 304.293945312 c 0
 345.268554688 279.3671875 327.087890625 240.619140625 323.303710938 205.081054688 c 1
 227.79296875 453.235351562 l 1
 227.79296875 453.235351562 279.908203125 603.288085938 323.303710938 676.586914062 c 1
323.509765625 633.80859375 m 1
 307.755859375 585.930664062 291.548828125 458.623046875 291.548828125 458.623046875 c 1
 303.642578125 479.848632812 335.149414062 504.610351562 371.100585938 514.76953125 c 1
 371.100585938 514.76953125 342.635742188 600.408203125 323.509765625 633.80859375 c 1
512.30859375 603.247070312 m 1
 458.095703125 517.032226562 l 1
 464.759765625 515.756835938 483.927734375 508.065429688 493.017578125 503.252929688 c 1
 512.30859375 603.247070312 l 1
430.001953125 431.969726562 m 0
 427.1640625 432.009765625 424.28515625 431.88671875 421.282226562 431.599609375 c 1
 433.745117188 411.814453125 450.651367188 398.1171875 479.772460938 406.549804688 c 1
 467.021484375 423.455078125 450.033203125 431.681640625 430.001953125 431.969726562 c 0
EndSplineSet
Substitution2: "'c2sc' Capitals to Small Capitals lookup 9 subtable" v.sc
AlternateSubs2: "'aalt' Access All Alternates lookup 0 subtable" V.alt
Position2: "'cpsp' Capital Spacing lookup 0 subtable" dx=5 dy=0 dh=10 dv=0
EndChar

StartChar: W
Encoding: 87 87 56
Width: 951
GlyphClass: 2
Flags: MW
HStem: -10 21G<290.001 318.001 290.001 290.001 610.001 638.001 610.001 610.001> 628 20G<933.001 933.001>
VStem: 366 115<648 648>
AnchorPoint: "Anchor-5" 429 722 basechar 0
AnchorPoint: "Anchor-4" 430 805 basechar 0
AnchorPoint: "Anchor-3" 449 -107 basechar 0
AnchorPoint: "Anchor-2" 295 0 basechar 0
LayerCount: 2
Fore
SplineSet
644 132 m 1
 716 298 814.000976562 519 848.000976562 648 c 1
 860.000976562 645 887.000976562 645 898.000976562 645 c 0
 909.000976562 645 921.000976562 645 933.000976562 648 c 1
 638.000976562 -10 l 1
 610.000976562 -10 l 1
 478.500976562 351.599609375 l 1
 318.000976562 -10 l 1
 290.000976562 -10 l 1
 198.000976562 209 66.0009765625 547 16.0009765625 648 c 1
 33.0009765625 645 59.0009765625 645 76.0009765625 645 c 0
 93.0009765625 645 109.000976562 645 126.000976562 648 c 1
 136.000976562 613 188.000976562 434 323.000976562 123 c 1
 325.000976562 123 l 1
 452.30078125 422.099609375 l 1
 415.400390625 520.899414062 383.700195312 604.299804688 366 648 c 1
 383 645 409 645 426 645 c 0
 443 645 464 645 481 648 c 1
 495 585 539 435 642 132 c 1
 644 132 l 1
EndSplineSet
Substitution2: "'c2sc' Capitals to Small Capitals lookup 9 subtable" w.sc
AlternateSubs2: "'aalt' Access All Alternates lookup 0 subtable" W.alt
Position2: "'cpsp' Capital Spacing lookup 0 subtable" dx=5 dy=0 dh=10 dv=0
EndChar

StartChar: X
Encoding: 88 88 57
Width: 581
GlyphClass: 2
Flags: MW
HStem: -3 21G<23.001 23.001> 628 20G<28.001 28.001>
AnchorPoint: "Anchor-5" 331 722 basechar 0
AnchorPoint: "Anchor-4" 332 805 basechar 0
AnchorPoint: "Anchor-3" 307 -107 basechar 0
AnchorPoint: "Anchor-2" 97 0 basechar 0
LayerCount: 2
Fore
SplineSet
564 -3 m 1
 546 0 524.000976562 -0.0009765625 506.000976562 -0.0009765625 c 0
 488.000976562 -0.0009765625 466.000976562 -0.0009765625 448.000976562 -3.0009765625 c 1
 395.701171875 97.3994140625 338.30078125 178.299804688 274.400390625 274.899414062 c 1
 218.100585938 189.19921875 160.100585938 95.099609375 107.000976562 -3 c 1
 96.0009765625 0 77.0009765625 0 65.0009765625 0 c 0
 54.0009765625 0 34.0009765625 0 23.0009765625 -3 c 1
 244.000976562 321 l 1
 28.0009765625 648 l 1
 45.0009765625 645 67.0009765625 645 84.0009765625 645 c 0
 101.000976562 645 123.000976562 645 141.000976562 648 c 1
 169.80078125 588.200195312 236.500976562 491.200195312 302.000976562 390.799804688 c 1
 385.600585938 511.799804688 409.80078125 547.799804688 464.000976562 648 c 1
 475.000976562 645 495.000976562 645 506.000976562 645 c 0
 517.000976562 645 537.000976562 645 548.000976562 648 c 1
 504.80078125 587.200195312 422.900390625 479.600585938 331.5 345.400390625 c 1
 418.299804688 211.900390625 483 111.400390625 564 -3 c 1
EndSplineSet
Substitution2: "'c2sc' Capitals to Small Capitals lookup 9 subtable" x.sc
Position2: "'cpsp' Capital Spacing lookup 0 subtable" dx=5 dy=0 dh=10 dv=0
EndChar

StartChar: Y
Encoding: 89 89 58
Width: 582
GlyphClass: 2
Flags: MW
HStem: -3 21G 628 20G
VStem: 246 88.3
AnchorPoint: "Anchor-5" 293 722 basechar 0
AnchorPoint: "Anchor-4" 295 805 basechar 0
AnchorPoint: "Anchor-3" 295 -109 basechar 0
AnchorPoint: "Anchor-2" 295 1 basechar 0
LayerCount: 2
Fore
SplineSet
334.299804688 285.599609375 m 1
 335.200195312 186.5 337.900390625 44.90234375 342 -2.998046875 c 1
 326 0.001953125 305 0.001953125 290 0.001953125 c 0
 275 0.001953125 255 0.001953125 239 -2.998046875 c 1
 244.700195312 52.501953125 245.799804688 177.501953125 246 275.1015625 c 1
 207.900390625 340.201171875 56 588.000976562 16 648.000976562 c 1
 33 645.000976562 56 645.000976562 73 645.000976562 c 0
 90 645.000976562 113 645.000976562 130 648.000976562 c 1
 183.700195312 542.600585938 242 448.700195312 305.200195312 340.200195312 c 1
 363 431.100585938 429.5 543.200195312 480 648 c 1
 492 645 509 645 522 645 c 0
 534 645 551 645 564 648 c 1
 443.299804688 463.5 375.299804688 365.5 334.299804688 285.599609375 c 1
EndSplineSet
Substitution2: "'c2sc' Capitals to Small Capitals lookup 9 subtable" y.sc
Position2: "'cpsp' Capital Spacing lookup 0 subtable" dx=5 dy=0 dh=10 dv=0
EndChar

StartChar: Z
Encoding: 90 90 59
Width: 624
GlyphClass: 2
Flags: MW
HStem: 0 54<187 252.5 187 496> 591 54<373.5 437.5>
AnchorPoint: "Anchor-5" 339 720 basechar 0
AnchorPoint: "Anchor-4" 340 803 basechar 0
AnchorPoint: "Anchor-3" 307 -107 basechar 0
AnchorPoint: "Anchor-2" 307 4 basechar 0
LayerCount: 2
Fore
SplineSet
187 54 m 1
 318 54 567 75 567 75 c 1
 569 72 l 1
 568 64 567 49 567 39 c 0
 567 29 568 14 569 0 c 1
 567 -3 l 1
 551 -1 531.799804688 0 496 0 c 2
 133 0 l 2
 103 0 46 -3 46 -3 c 1
 43 1 l 1
 54 15 63 30 69 38 c 2
 438 579 l 2
 443.200195312 586.599609375 440 591 435 591 c 0
 312 591 218 578 80 570 c 1
 78 573 l 1
 79 581 80 596 80 606 c 0
 80 616 79 631 78 645 c 1
 80 648 l 1
 96 646 119 645 141 645 c 2
 445 645 l 2
 476 645 554.5 648.799804688 571 651 c 0
 575.5 651 577 649 577 645 c 0
 577 634 567 619 547 591 c 2
 192 72 l 2
 187.299804688 65.099609375 187 59 187 54 c 1
EndSplineSet
Substitution2: "'c2sc' Capitals to Small Capitals lookup 9 subtable" z.sc
Position2: "'cpsp' Capital Spacing lookup 0 subtable" dx=5 dy=0 dh=10 dv=0
EndChar

StartChar: bracketleft
Encoding: 91 91 60
Width: 361
GlyphClass: 2
Flags: MW
HStem: -192 29<110 325> 673 30<110 325>
VStem: 110 68<-93.5 -50 -50 561>
LayerCount: 2
Fore
SplineSet
110 -192 m 1
 110 703 l 1
 325 703 l 1
 325 673 l 1
 188 663 178 648 178 561 c 2
 178 -50 l 2
 178 -137 187 -152 325 -163 c 1
 325 -192 l 1
 110 -192 l 1
EndSplineSet
Substitution2: "'case' Case-Sensitive Forms lookup 23 subtable" bracketleft.sc
Substitution2: "'c2sc' Capitals to Small Capitals lookup 9 subtable" bracketleft.sc
AlternateSubs2: "'aalt' Access All Alternates lookup 0 subtable" bracketleft.sc
EndChar

StartChar: backslash
Encoding: 92 92 61
Width: 292
GlyphClass: 2
Flags: MW
HStem: 688 21G
LayerCount: 2
Fore
SplineSet
60 698 m 1
 290 -48 l 1
 241 -48 l 1
 11 698 l 1
 60 698 l 1
EndSplineSet
EndChar

StartChar: bracketright
Encoding: 93 93 62
Width: 361
GlyphClass: 2
Flags: MW
HStem: -192 30<36 251 36 36> 674 29<36 251>
VStem: 183 68<-50 561 561 604.5>
LayerCount: 2
Fore
SplineSet
251 703 m 1
 251 -192 l 1
 36 -192 l 1
 36 -162 l 1
 173 -152 183 -137 183 -50 c 2
 183 561 l 2
 183 648 174 663 36 674 c 1
 36 703 l 1
 251 703 l 1
EndSplineSet
Substitution2: "'case' Case-Sensitive Forms lookup 23 subtable" bracketright.sc
Substitution2: "'c2sc' Capitals to Small Capitals lookup 9 subtable" bracketright.sc
AlternateSubs2: "'aalt' Access All Alternates lookup 0 subtable" bracketright.sc
EndChar

StartChar: asciicircum
Encoding: 94 94 63
Width: 518
GlyphClass: 2
Flags: MW
HStem: 346 304<112 281 112 281 239 362 239 407>
VStem: 112 295<346 346>
LayerCount: 2
Fore
SplineSet
259 593 m 1
 157 346 l 1
 112 346 l 1
 239 650 l 1
 281 650 l 1
 407 346 l 1
 362 346 l 1
 259 593 l 1
EndSplineSet
EndChar

StartChar: underscore
Encoding: 95 95 64
Width: 486
GlyphClass: 2
Flags: MW
HStem: -154 44<5 482 5 482>
LayerCount: 2
Fore
SplineSet
482 -110 m 1
 482 -154 l 1
 5 -154 l 1
 5 -110 l 1
 482 -110 l 1
EndSplineSet
EndChar

StartChar: grave
Encoding: 96 96 65
Width: 392
GlyphClass: 2
Flags: MW
HStem: 538 161<178 243>
VStem: 96 158<546.5 667>
LayerCount: 2
Fore
SplineSet
178 699 m 2
 248 573 l 2
 253 563 254 556 254 549 c 0
 254 544 247 538 239 538 c 0
 233 538 226 543 210 558 c 2
 96 667 l 1
 98 678 l 1
 106 684 129 701 163 701 c 0
 168 701 174 700 178 699 c 2
EndSplineSet
Substitution2: "'case' Case-Sensitive Forms lookup 23 subtable" grave.cap
EndChar

StartChar: a
Encoding: 97 97 66
Width: 481
GlyphClass: 2
Flags: MW
HStem: -10 51<177.5 197.5> 394 45<191 233>
VStem: 45 81<86.5 124.5 86.5 132> 311 79<272.5 332.5>
AnchorPoint: "Anchor-5" 222 550 basechar 0
AnchorPoint: "Anchor-4" 221 645 basechar 0
AnchorPoint: "Anchor-3" 207 -108 basechar 0
AnchorPoint: "Anchor-2" 177 -5 basechar 0
AnchorPoint: "Anchor-1" 434 16 basechar 0
LayerCount: 2
Fore
SplineSet
386 76 m 0
 386 56 391 45 403 45 c 0
 418 45 431 59 441 66 c 1
 444 64 l 1
 461 43 l 1
 428 3 405 -10 372 -10 c 0
 322 -10 310 32 308 48 c 1
 306 48 l 1
 253 3 225 -10 170 -10 c 0
 96 -10 45 24 45 98 c 0
 45 166 109 220 211 243 c 2
 304 264 l 2
 307 265 311 269 311 276 c 0
 311 389 251 394 215 394 c 0
 167 394 133 354 105 309 c 1
 92 310 l 1
 75 377 l 1
 78 381 l 1
 103 402 149 439 225 439 c 0
 301 439 390 412 390 277 c 0
 390 266 386 105 386 76 c 0
310 225 m 1
 225 202 l 2
 147 180.900390625 126 147 126 102 c 0
 126 71 155 41 200 41 c 0
 230 41 264 59 292 80 c 0
 300 86 306 93 306 106 c 2
 310 225 l 1
EndSplineSet
Substitution2: "'sinf' Scientific Inferiors lookup 8 subtable" a.inferior
Substitution2: "'sups' Superscript lookup 7 subtable" a.superior
Substitution2: "'smcp' Lowercase to Small Capitals lookup 3 subtable" a.sc
AlternateSubs2: "'aalt' Access All Alternates lookup 0 subtable" a.sc
EndChar

StartChar: b
Encoding: 98 98 67
Width: 504
GlyphClass: 2
Flags: MW
HStem: -10 40<221.5 284.5 221.5 294> 389 50<263 297.5> 678 20G<163 166.15>
VStem: 82 80<72 72 72 343 384 482 482 500> 377 90<167 272.5>
AnchorPoint: "Anchor-5" 283 553 basechar 0
AnchorPoint: "Anchor-3" 241 -108 basechar 0
LayerCount: 2
Fore
SplineSet
162 500 m 2
 162 384 l 1
 196 421 239 439 287 439 c 0
 374 439 467 354 467 232 c 0
 467 73 345 -10 243 -10 c 0
 200 -10 170 2 141 27 c 1
 126.5 14 117 2 108 -12 c 1
 98.5 -12 83 -10.7998046875 77 -7 c 1
 81.2001953125 14.7998046875 82 32 82 71 c 2
 82 482 l 2
 82 558 79.7001953125 627.299804688 72 670 c 1
 74 673 l 1
 114.5 676 137.900390625 688 163 698 c 0
 169.299804688 698 172 695 172 688 c 0
 164.299804688 626.700195312 162 574 162 500 c 2
162 72 m 1
 182 47 206 30 237 30 c 0
 332 30 377 110 377 224 c 0
 377 321 328 389 267 389 c 0
 256 389 201 383 162 343 c 1
 162 72 l 1
EndSplineSet
Substitution2: "'sinf' Scientific Inferiors lookup 8 subtable" b.inferior
Substitution2: "'sups' Superscript lookup 7 subtable" b.superior
Substitution2: "'smcp' Lowercase to Small Capitals lookup 3 subtable" b.sc
AlternateSubs2: "'aalt' Access All Alternates lookup 0 subtable" b.sc
EndChar

StartChar: c
Encoding: 99 99 68
Width: 435
GlyphClass: 2
Flags: MW
HStem: -10 50<223.5 270> 399 40<218 270.25>
VStem: 36 86<164.5 278 164.5 286>
AnchorPoint: "Anchor-5" 227 488 basechar 0
AnchorPoint: "Anchor-4" 224 573 basechar 0
AnchorPoint: "Anchor-3" 219 -100 basechar 0
AnchorPoint: "Anchor-2" 233 2 basechar 0
AnchorPoint: "Anchor-1" 328 37 basechar 0
LayerCount: 2
Fore
SplineSet
251 399 m 0
 185 399 122 333 122 223 c 0
 122 106 185 40 262 40 c 0
 305 40 334 53 372 87 c 1
 376 87 l 1
 395 66 l 1
 355 15 300 -10 240 -10 c 0
 114 -10 36 78.900390625 36 218 c 0
 36 354 148 439 252 439 c 0
 302 439 362 427 393 411 c 1
 395 408 l 1
 372 326 l 1
 359 325 l 1
 332.5 370.5 289.5 399 251 399 c 0
EndSplineSet
Substitution2: "'sinf' Scientific Inferiors lookup 8 subtable" c.inferior
Substitution2: "'sups' Superscript lookup 7 subtable" c.superior
Substitution2: "'smcp' Lowercase to Small Capitals lookup 3 subtable" c.sc
AlternateSubs2: "'aalt' Access All Alternates lookup 0 subtable" c.sc
EndChar

StartChar: d
Encoding: 100 100 69
Width: 530
GlyphClass: 2
Flags: MW
HStem: -10 57<217 242> -3 21G<374 377 456 456> 394 45<241.8 287 211.9 289.5> 678 20G<442 445.15>
VStem: 40 85<158.5 271> 361 80<154.5 192 192 335 335 335 417 482 482 500>
AnchorPoint: "Anchor-5" 240 550 basechar 0
AnchorPoint: "Anchor-4" 239 645 basechar 0
AnchorPoint: "Anchor-3" 242 -107 basechar 0
AnchorPoint: "Anchor-1" 333 20 basechar 0
LayerCount: 2
Fore
SplineSet
361 64 m 1x7c
 325 17.5 266 -10 218 -10 c 0xbc
 110 -10 40 80 40 203 c 0
 40 339 146.799804688 439 277 439 c 0
 297 439 338 430 361 417 c 1
 361 482 l 2
 361 558 358.700195312 627.299804688 351 670 c 1
 353 673 l 1
 393.5 676 416.900390625 688 442 698 c 0
 448.299804688 698 451 695 451 688 c 0
 443.299804688 626.700195312 441 574 441 500 c 2
 441 192 l 2
 441 117 450 43 458 0 c 1
 456 -3 l 1
 443 -1 424.099609375 0 411.5 0 c 0
 397 0 390.299804688 -1.2998046875 377 -3 c 0
 371 -3 368 -2 368 0 c 2
 363 64 l 1
 361 64 l 1x7c
361 109 m 1
 361 335 l 1
 337 373 313 394 266 394 c 0
 217.599609375 394 125 371 125 221 c 0
 125 96 190 47 244 47 c 0
 284.5 47 324.5 62.5 361 109 c 1
EndSplineSet
Substitution2: "'sinf' Scientific Inferiors lookup 8 subtable" d.inferior
Substitution2: "'sups' Superscript lookup 7 subtable" d.superior
Substitution2: "'smcp' Lowercase to Small Capitals lookup 3 subtable" d.sc
AlternateSubs2: "'aalt' Access All Alternates lookup 0 subtable" d.sc
EndChar

StartChar: e
Encoding: 101 101 70
Width: 450
GlyphClass: 2
Flags: MW
HStem: -10 59 233 42 399 40
VStem: 34 88<203.949 232.999 203.949 282.499> 320 89
AnchorPoint: "Anchor-5" 245 550 basechar 0
AnchorPoint: "Anchor-4" 238 645 basechar 0
AnchorPoint: "Anchor-3" 237 -108 basechar 0
AnchorPoint: "Anchor-1" 373 41 basechar 0
LayerCount: 2
Fore
SplineSet
389 104 m 1
 409.000976562 78.9990234375 l 1
 371.000976562 26.9990234375 310.000976562 -10.0009765625 238.000976562 -10.0009765625 c 0
 170.600585938 -10.0009765625 113.400390625 14.69921875 79 55.9990234375 c 0
 45.5 96.19921875 34 152.298828125 34 208.999023438 c 0
 34 355.999023438 144 438.999023438 239 438.999023438 c 0
 371 438.999023438 409 333.999023438 409 249.999023438 c 0
 409 238.999023438 402 232.999023438 391 232.999023438 c 2
 122 232.999023438 l 1
 122 174.899414062 128.400390625 134.099609375 146 106 c 0
 173.5 62 220.799804688 49 255 49 c 0
 310 49 354 66 389 104 c 1
125.000976562 274.999023438 m 1
 306.000976562 274.999023438 l 2
 316.000976562 274.999023438 320.000976562 279.999023438 320.000976562 288.999023438 c 0
 320.000976562 363.999023438 275.000976562 398.999023438 239.000976562 398.999023438 c 0
 216.000976562 398.999023438 142.000976562 378.999023438 125.000976562 274.999023438 c 1
EndSplineSet
Substitution2: "'sinf' Scientific Inferiors lookup 8 subtable" e.inferior
Substitution2: "'sups' Superscript lookup 7 subtable" e.superior
Substitution2: "'smcp' Lowercase to Small Capitals lookup 3 subtable" e.sc
AlternateSubs2: "'aalt' Access All Alternates lookup 0 subtable" e.sc
EndChar

StartChar: f
Encoding: 102 102 71
Width: 314
GlyphClass: 2
Flags: MW
HStem: -4 21G<90 90 187 187> 385 44<31 99 51 99 51 99 179 272> 602 21G<315 315> 637 60<228.35 317.5>
VStem: 99 80<199 385 429 438>
AnchorPoint: "Anchor-3" 132 -111 basechar 0
AnchorPoint: "Anchor-2" 133 10 basechar 0
LayerCount: 2
Fore
SplineSet
154 621 m 0
 190 670 245 697 308 697 c 0
 327 697 345 693 353 688 c 1
 354 685 l 1
 343 666 333 630 326 603 c 1
 315 602 l 1
 304 622 286 637 257 637 c 0
 199.700195312 637 174 589.200195312 174 534 c 0
 174 516 179 474 179 438 c 2
 179 429 l 1
 287 429 l 2
 292 429 295 427 295 423 c 2
 295 398 l 2
 295 389 281 385 272 385 c 2
 179 385 l 1
 179 199 l 2
 179 124 180.5 56 189 -1 c 1
 187 -4 l 1
 187 -4 173.299804688 -1 139 -1 c 0
 104 -1 90 -4 90 -4 c 1
 89 -1 l 1
 97.5 52.5 99 124 99 199 c 2
 99 385 l 1
 33 385 l 2
 29 385 28 386 28 391 c 2
 28 409 l 2
 28 417 33 429 51 429 c 2
 99 429 l 1
 99 468 l 2
 99 546 118 572 154 621 c 0
EndSplineSet
Substitution2: "'sinf' Scientific Inferiors lookup 8 subtable" f.inferior
Substitution2: "'sups' Superscript lookup 7 subtable" f.superior
Substitution2: "'smcp' Lowercase to Small Capitals lookup 3 subtable" f.sc
AlternateSubs2: "'aalt' Access All Alternates lookup 0 subtable" f.sc
EndChar

StartChar: g
Encoding: 103 103 72
Width: 499
GlyphClass: 2
Flags: MW
HStem: -238 43<214.999 268.499> -15 62<165.999 180.499 163.999 180.749> -12 66<248.099 307.499> 136 40<213.949 268.5 193.5 286.999> 401 38<195 240.749 187.499 261>
VStem: 32 69 55 78 64 56 322 78<250 319.5> 400 73
AnchorPoint: "Anchor-5" 220 549 basechar 0
AnchorPoint: "Anchor-4" 220 645 basechar 0
AnchorPoint: "Anchor-3" 225 -88 basechar 0
LayerCount: 2
Fore
SplineSet
322 284 m 0x9ac0
 322 355 296 401 226 401 c 0
 164 401 133 358 133 292 c 0
 133 219 153 176 234 176 c 0
 303 176 322 216 322 284 c 0x9ac0
400 289 m 0
 400 205 344.999023438 136 228.999023438 136 c 0
 198.899414062 136 162.999023438 143 149.999023438 150 c 1
 127.999023438 131 119.999023438 114 119.999023438 94 c 0
 119.999023438 51 149.999023438 47 177.999023438 47 c 0xd9c0
 182.999023438 47 192.999023438 48 206.999023438 49 c 0
 229.999023438 52 272.999023438 54 289.999023438 54 c 0
 324.999023438 54 393.499023438 53 430.999023438 21 c 0
 458.999023438 -2.900390625 472.999023438 -33.900390625 472.999023438 -78 c 0
 472.999023438 -186 332.999023438 -238 203.999023438 -238 c 0
 130.999023438 -238 31.9990234375 -211 31.9990234375 -124 c 0xbcc0
 31.9990234375 -105.299804688 42.4990234375 -77 54.9990234375 -58 c 1xbac0
 80.8994140625 -38 117.999023438 -20 139.899414062 -7.2998046875 c 1
 85.9990234375 2 63.9990234375 38 63.9990234375 79 c 0xb9c0
 63.9990234375 113 96.9990234375 142 125.999023438 162 c 1
 97.9990234375 178 54.9990234375 212 54.9990234375 287 c 0
 54.9990234375 386.099609375 144.999023438 439 229.999023438 439 c 0
 251.499023438 439 278.399414062 436 296.299804688 430.400390625 c 1
 370.899414062 434.30078125 406.19921875 444.900390625 453.999023438 449 c 1
 456.999023438 446 l 1
 454.999023438 437 453.999023438 429 453.999023438 420 c 0
 453.999023438 411 454.999023438 403 456.999023438 394 c 1
 453.999023438 391 l 1
 412.798828125 395.200195312 379.69921875 399 349.599609375 401.400390625 c 1
 373 386 400 358 400 289 c 0
100.999023438 -104 m 0xdcc0
 100.999023438 -172 197.999023438 -195 231.999023438 -195 c 0
 317.999023438 -195 399.999023438 -162 399.999023438 -101 c 0
 399.999023438 -75 389.999023438 -46 360.999023438 -29 c 0
 333.598632812 -12.900390625 302.999023438 -12 254.999023438 -12 c 0xbcc0
 241.19921875 -12 195.499023438 -15 165.999023438 -15 c 1
 130.999023438 -34 100.999023438 -70.900390625 100.999023438 -104 c 0xdcc0
EndSplineSet
Substitution2: "'sinf' Scientific Inferiors lookup 8 subtable" g.inferior
Substitution2: "'sups' Superscript lookup 7 subtable" g.superior
Substitution2: "'smcp' Lowercase to Small Capitals lookup 3 subtable" g.sc
AlternateSubs2: "'aalt' Access All Alternates lookup 0 subtable" g.sc
EndChar

StartChar: h
Encoding: 104 104 73
Width: 539
GlyphClass: 2
Flags: MW
HStem: -3 21G<81 81 178 178 368 368 465 465> 383 56<307.5 321> 678 20G<171 174.15>
VStem: 90 80<180 284 347 481 481 501> 377 80<180 284>
AnchorPoint: "Anchor-5" 307 550 basechar 0
AnchorPoint: "Anchor-4" 306 645 basechar 0
AnchorPoint: "Anchor-3" 266 -111 basechar 0
AnchorPoint: "Anchor-1" 430 10 basechar 0
LayerCount: 2
Fore
SplineSet
377 180 m 2
 377 285 l 2
 377 366 347 383 295 383 c 0
 259 383 209 336 170 284 c 1
 170 180 l 2
 170 104 171.5 57 180 0 c 1
 178 -3 l 1
 178 -3 164.299804688 0 130 0 c 0
 95 0 81 -3 81 -3 c 1
 80 0 l 1
 88.5 53.5 90 105.5 90 180 c 2
 90 481 l 2
 90 557 87.7001953125 627.299804688 80 670 c 1
 82 673 l 1
 122.5 676 145.900390625 688 171 698 c 0
 177.299804688 698 180 695 180 688 c 0
 172.299804688 626.700195312 170 575 170 501 c 2
 170 347 l 1
 174 344 l 1
 231 416 280 439 335 439 c 0
 407 439 457 387 457 284 c 2
 457 180 l 2
 457 103.799804688 458.5 57 467 0 c 1
 465 -3 l 1
 465 -3 451.299804688 0 417 0 c 0
 382 0 368 -3 368 -3 c 1
 367 0 l 1
 375.5 53.5 377 105.5 377 180 c 2
EndSplineSet
Substitution2: "'salt' Stylistic Alternatives lookup 18 subtable" h.alt
Substitution2: "'sinf' Scientific Inferiors lookup 8 subtable" h.inferior
Substitution2: "'sups' Superscript lookup 7 subtable" h.superior
Substitution2: "'smcp' Lowercase to Small Capitals lookup 3 subtable" h.sc
AlternateSubs2: "'aalt' Access All Alternates lookup 0 subtable" h.sc h.alt
EndChar

StartChar: i
Encoding: 105 105 74
Width: 260
GlyphClass: 2
Flags: MW
HStem: -3 21G<81 81 178 178> 419 20G<171 174> 546 102<117.5 144.5>
VStem: 80 102<583.5 610.5> 90 80<180 235 235 251 142 272.5>
AnchorPoint: "Anchor-3" 130 -107 basechar 0
AnchorPoint: "Anchor-2" 131 12 basechar 0
AnchorPoint: "Anchor-1" 203 10 basechar 0
LayerCount: 2
Fore
SplineSet
90 235 m 2xe8
 90 310 88 368 80 411 c 1xf0
 82 414 l 1
 122 417 146 429 171 439 c 0
 177 439 180 436 180 429 c 0
 172 368 170 326 170 251 c 2
 170 180 l 2xe8
 170 104 172 57 180 0 c 1
 178 -3 l 1
 178 -3 164 0 130 0 c 0
 95 0 81 -3 81 -3 c 1
 80 0 l 1xf0
 88 54 90 105 90 180 c 2
 90 235 l 2xe8
80 597 m 0
 80 624 104 648 131 648 c 0
 158 648 182 624 182 597 c 0
 182 570 158 546 131 546 c 0
 104 546 80 570 80 597 c 0
EndSplineSet
Substitution2: "'sinf' Scientific Inferiors lookup 8 subtable" i.inferior
Substitution2: "'sups' Superscript lookup 7 subtable" i.superior
Substitution2: "'smcp' Lowercase to Small Capitals in Latin lookup 4 subtable" idotaccent.sc
Substitution2: "'smcp' Lowercase to Small Capitals lookup 2 subtable" i.sc
AlternateSubs2: "'aalt' Access All Alternates lookup 0 subtable" i.sc
EndChar

StartChar: j
Encoding: 106 106 75
Width: 272
GlyphClass: 2
Flags: MW
HStem: 419 20G 546 102
VStem: 90 102<583.499 610.499> 102 80<95.999 97.999 97.999 234.999 234.999 250.999>
LayerCount: 2
Fore
SplineSet
106 -43 m 0xd0
 106 -27 102 -13.0009765625 102 95.9990234375 c 2
 102 234.999023438 l 2xd0
 102 309.999023438 100 367.999023438 92 410.999023438 c 1
 94 413.999023438 l 1
 134 416.999023438 158 428.999023438 183 438.999023438 c 0
 189 438.999023438 192 435.999023438 192 428.999023438 c 0xe0
 184 367.999023438 182 325.999023438 182 250.999023438 c 2
 182 97.9990234375 l 2
 182 70.0986328125 185.5 34.298828125 185.5 -0.0009765625 c 0
 185.5 -102.100585938 146 -134.000976562 124 -156.000976562 c 0
 100.799804688 -179.201171875 84 -195.901367188 41.2001953125 -208.000976562 c 0
 23.900390625 -212.901367188 6.900390625 -216.201171875 -1 -214.80078125 c 1
 -2.900390625 -212.400390625 l 1
 -4 -188 -20.2001953125 -163.200195312 -22.2001953125 -137.299804688 c 1
 -13.2001953125 -133 l 1
 2.3994140625 -146.5 14.099609375 -163.200195312 39.099609375 -153 c 0
 76 -138 106 -95 106 -43 c 0xd0
90 596.999023438 m 0xe0
 90 623.999023438 114 647.999023438 141 647.999023438 c 0
 168 647.999023438 192 623.999023438 192 596.999023438 c 0
 192 569.999023438 168 545.999023438 141 545.999023438 c 0
 114 545.999023438 90 569.999023438 90 596.999023438 c 0xe0
EndSplineSet
Substitution2: "'sinf' Scientific Inferiors lookup 8 subtable" j.inferior
Substitution2: "'sups' Superscript lookup 7 subtable" j.superior
Substitution2: "'smcp' Lowercase to Small Capitals lookup 3 subtable" j.sc
AlternateSubs2: "'aalt' Access All Alternates lookup 0 subtable" j.sc idotaccent.sc
EndChar

StartChar: k
Encoding: 107 107 76
Width: 488
GlyphClass: 2
Flags: MW
HStem: -3 21G<81 81 178 178> 212 25 412 20G 678 20G
VStem: 90 80<162.75 200>
AnchorPoint: "Anchor-5" 281 551 basechar 0
AnchorPoint: "Anchor-4" 280 646 basechar 0
AnchorPoint: "Anchor-3" 268 -107 basechar 0
AnchorPoint: "Anchor-2" 130 9 basechar 0
LayerCount: 2
Fore
SplineSet
90 200 m 2
 90.0009765625 482.000976562 l 2
 90.0009765625 558.000976562 87.701171875 627.30078125 80.0009765625 670.000976562 c 1
 82.0009765625 673.000976562 l 1
 122.500976562 676.000976562 145.901367188 688.000976562 171.000976562 698.000976562 c 0
 177.30078125 698.000976562 180.000976562 695.000976562 180.000976562 688.000976562 c 0
 172.30078125 626.701171875 170.000976562 575.000976562 170.000976562 500.000976562 c 2
 170.000976562 237.000976562 l 1
 180.600585938 237.30078125 189.400390625 242.30078125 202 252.000976562 c 0
 241.599609375 282.500976562 313.899414062 366.500976562 356.999023438 429.000976562 c 1
 383.999023438 429.000976562 438.999023438 429.000976562 457.999023438 432.000976562 c 1
 459.999023438 429.000976562 l 1
 394.999023438 373.901367188 312.399414062 278.901367188 272.999023438 238.000976562 c 1
 368.399414062 122.80078125 406.599609375 78.6005859375 481 0.0009765625 c 1
 479 -2.9990234375 l 1
 470 -1.19921875 435.700195312 0.0009765625 419 0.0009765625 c 0
 402 0.0009765625 368.299804688 -1.19921875 353 -2.9990234375 c 1
 282 95.80078125 263 135.000976562 198 203.000976562 c 0
 189.400390625 210.600585938 177.200195312 211.900390625 170 212 c 1
 170 200 l 2
 170 124.799804688 171.5 57 180 0 c 1
 178 -3 l 1
 178 -3 164.299804688 0 130 0 c 0
 95 0 81 -3 81 -3 c 1
 80 0 l 1
 88.5 53.5 90 125.5 90 200 c 2
EndSplineSet
Substitution2: "'sinf' Scientific Inferiors lookup 8 subtable" k.inferior
Substitution2: "'sups' Superscript lookup 7 subtable" k.superior
Substitution2: "'smcp' Lowercase to Small Capitals lookup 3 subtable" k.sc
AlternateSubs2: "'aalt' Access All Alternates lookup 0 subtable" k.sc
EndChar

StartChar: l
Encoding: 108 108 77
Width: 252
GlyphClass: 2
Flags: MW
HStem: -3 21G<81 81 178 178> 678 20G<171 174.15>
VStem: 90 80<200 482 482 500>
AnchorPoint: "Anchor-3" 135 -107 basechar 0
AnchorPoint: "Anchor-2" 130 10 basechar 0
LayerCount: 2
Fore
SplineSet
90 200 m 2
 90 482 l 2
 90 558 87.7001953125 627.299804688 80 670 c 1
 82 673 l 1
 122.5 676 145.900390625 688 171 698 c 0
 177.299804688 698 180 695 180 688 c 0
 172.299804688 626.700195312 170 575 170 500 c 2
 170 200 l 2
 170 124.799804688 171.5 57 180 0 c 1
 178 -3 l 1
 178 -3 164.299804688 0 130 0 c 0
 95 0 81 -3 81 -3 c 1
 80 0 l 1
 88.5 53.5 90 125.5 90 200 c 2
EndSplineSet
Substitution2: "'sinf' Scientific Inferiors lookup 8 subtable" l.inferior
Substitution2: "'sups' Superscript lookup 7 subtable" l.superior
Substitution2: "'smcp' Lowercase to Small Capitals lookup 3 subtable" l.sc
AlternateSubs2: "'aalt' Access All Alternates lookup 0 subtable" l.sc
EndChar

StartChar: m
Encoding: 109 109 78
Width: 774
GlyphClass: 2
Flags: MW
HStem: -3 21G<73 73 170 170 341 341 438 438 610 610 707 707> 383 56<286 300 548 566>
VStem: 82 80<180 235 235 272.35> 350 80<180 281> 619 80<180 280>
AnchorPoint: "Anchor-5" 388 550 basechar 0
AnchorPoint: "Anchor-4" 387 645 basechar 0
AnchorPoint: "Anchor-3" 387 -105 basechar 0
AnchorPoint: "Anchor-2" 122 9 basechar 0
LayerCount: 2
Fore
SplineSet
619 180 m 2
 619 292 l 2
 619 359 593 383 539 383 c 0
 500 383 477 372 429 319 c 1
 430 307 430 295 430 281 c 2
 430 180 l 2
 430 103.799804688 431.5 57 440 0 c 1
 438 -3 l 1
 438 -3 424.299804688 0 390 0 c 0
 355 0 341 -3 341 -3 c 1
 340 0 l 1
 348.5 53.5 350 105.5 350 180 c 2
 350 290 l 2
 350 357 319 383 281 383 c 0
 246 383 209 344 162 295 c 1
 162 180 l 2
 162 104 163.5 57 172 0 c 1
 170 -3 l 1
 170 -3 156.299804688 0 122 0 c 0
 87 0 73 -3 73 -3 c 1
 72 0 l 1
 80.5 53.5 82 105 82 180 c 2
 82 235 l 2
 82 309.700195312 79.7001953125 368.299804688 72 411 c 1
 74 414 l 1
 114.5 417 134.900390625 429 160 439 c 0
 166.299804688 439 169 436 169 429 c 0
 164 398.700195312 159.799804688 347 159.799804688 347 c 1
 164 344 l 1
 211 394 255 439 317 439 c 0
 373 439 416 405 423 360 c 1
 480 420 521 439 575 439 c 0
 683 439 699 369 699 280 c 2
 699 180 l 2
 699 103.799804688 700.5 57 709 0 c 1
 707 -3 l 1
 707 -3 693.299804688 0 659 0 c 0
 624 0 610 -3 610 -3 c 1
 609 0 l 1
 617.5 53.5 619 105.5 619 180 c 2
EndSplineSet
Substitution2: "'sinf' Scientific Inferiors lookup 8 subtable" m.inferior
Substitution2: "'sups' Superscript lookup 7 subtable" m.superior
Substitution2: "'smcp' Lowercase to Small Capitals lookup 3 subtable" m.sc
AlternateSubs2: "'aalt' Access All Alternates lookup 0 subtable" m.sc
EndChar

StartChar: n
Encoding: 110 110 79
Width: 523
GlyphClass: 2
Flags: MW
HStem: -3 21G<73 73 170 170 359 359 456 456> 383 56<297.5 319.5>
VStem: 82 80<180 235 235 272.35> 368 80<180 278 278 281>
AnchorPoint: "Anchor-5" 253 550 basechar 0
AnchorPoint: "Anchor-4" 252 646 basechar 0
AnchorPoint: "Anchor-3" 253 -111 basechar 0
AnchorPoint: "Anchor-2" 122 9 basechar 0
AnchorPoint: "Anchor-1" 408 44 basechar 0
LayerCount: 2
Fore
SplineSet
448 180 m 2
 448 104 449 57 458 0 c 1
 456 -3 l 1
 456 -3 442 0 408 0 c 0
 373 0 359 -3 359 -3 c 1
 358 0 l 1
 367 54 368 105 368 180 c 2
 368 278 l 2
 368 359 346 383 293 383 c 0
 249 383 213 347 162 287 c 1
 162 180 l 2
 162 104 163.5 57 172 0 c 1
 170 -3 l 1
 170 -3 156.299804688 0 122 0 c 0
 87 0 73 -3 73 -3 c 1
 72 0 l 1
 80.5 53.5 82 105 82 180 c 2
 82 235 l 2
 82 309.700195312 79.7001953125 368.299804688 72 411 c 1
 74 414 l 1
 114.5 417 134.900390625 429 160 439 c 0
 166.299804688 439 169 436 169 429 c 0
 164 398.700195312 159.799804688 347 159.799804688 347 c 1
 164 344 l 1
 228 419 272 439 323 439 c 0
 413 439 448 385 448 281 c 2
 448 180 l 2
EndSplineSet
Substitution2: "'sinf' Scientific Inferiors lookup 8 subtable" n.inferior
Substitution2: "'sups' Superscript lookup 7 subtable" n.superior
Substitution2: "'smcp' Lowercase to Small Capitals lookup 3 subtable" n.sc
AlternateSubs2: "'aalt' Access All Alternates lookup 0 subtable" n.sc
EndChar

StartChar: o
Encoding: 111 111 80
Width: 494
GlyphClass: 2
Flags: MW
HStem: -10 40<203 289.5 203 313> 399 40<197 297>
VStem: 38 88<183.5 265.5 183.5 276> 368 88<148.5 256.5>
AnchorPoint: "Anchor-5" 245 550 basechar 0
AnchorPoint: "Anchor-4" 235 645 basechar 0
AnchorPoint: "Anchor-3" 254 -107 basechar 0
AnchorPoint: "Anchor-2" 247 -3 basechar 0
AnchorPoint: "Anchor-1" 386 44 basechar 0
LayerCount: 2
Fore
SplineSet
244 399 m 0
 150 399 126 309 126 222 c 0
 126 145 150 30 256 30 c 0
 323 30 368 100.900390625 368 196 c 0
 368 317 350 399 244 399 c 0
38 205 m 0
 38 347 120 439 251 439 c 0
 386 439 456 350 456 214 c 0
 456 83 379 -10 247 -10 c 0
 114 -10 38 85 38 205 c 0
EndSplineSet
Substitution2: "'sinf' Scientific Inferiors lookup 8 subtable" o.inferior
Substitution2: "'sups' Superscript lookup 7 subtable" o.superior
Substitution2: "'smcp' Lowercase to Small Capitals lookup 3 subtable" o.sc
AlternateSubs2: "'aalt' Access All Alternates lookup 0 subtable" o.sc
EndChar

StartChar: p
Encoding: 112 112 81
Width: 523
GlyphClass: 2
Flags: MW
HStem: -235 21G<73 73 170 170> -10 44<247 308.5 247 325.6> 389 50<287 306.5>
VStem: 82 80<-32 12 77 235 235 272.35> 387 96<172 269.5>
AnchorPoint: "Anchor-5" 279 551 basechar 0
AnchorPoint: "Anchor-4" 278 646 basechar 0
LayerCount: 2
Fore
SplineSet
82 -32 m 2
 82 235 l 2
 82 309.700195312 79.7001953125 368.299804688 72 411 c 1
 74 414 l 1
 114.5 417 135.900390625 429 161 439 c 0
 167.299804688 439 170 436 170 429 c 0
 165 398.700195312 160.799804688 360 160.799804688 360 c 1
 163 360 l 1
 209 430 271 439 303 439 c 0
 415 439 483 332 483 226 c 0
 483 85.099609375 390.200195312 -10 261 -10 c 0
 225 -10 188 -2 162 12 c 1
 162 -32 l 2
 162 -107.200195312 163.5 -175 172 -232 c 1
 170 -235 l 1
 170 -235 156.299804688 -232 122 -232 c 0
 87 -232 73 -235 73 -235 c 1
 72 -232 l 1
 80.5 -178.5 82 -106.5 82 -32 c 2
162 301 m 1
 162 77 l 1
 197 36 239 34 255 34 c 0
 362 34 387 131 387 213 c 0
 387 326 337 389 276 389 c 0
 242 389 184 354 162 301 c 1
EndSplineSet
Substitution2: "'sinf' Scientific Inferiors lookup 8 subtable" p.inferior
Substitution2: "'sups' Superscript lookup 7 subtable" p.superior
Substitution2: "'smcp' Lowercase to Small Capitals lookup 3 subtable" p.sc
AlternateSubs2: "'aalt' Access All Alternates lookup 0 subtable" p.sc
EndChar

StartChar: q
Encoding: 113 113 82
Width: 522
GlyphClass: 2
Flags: MW
HStem: -235 21G<351 351 448 448> -10 54<234 267.5> 399 40<210 271>
VStem: 38 96<169.5 279 151.5 282> 360 80<-32 23 23 23 66 326 326 326>
AnchorPoint: "Anchor-5" 249 550 basechar 0
AnchorPoint: "Anchor-4" 248 645 basechar 0
LayerCount: 2
Fore
SplineSet
360 -32 m 2
 360 23 l 1
 345 10 296 -10 239 -10 c 0
 95 -10 38 123 38 216 c 0
 38 348 132 439 254 439 c 0
 303 439 356 428 389 399 c 1
 404 423 l 2
 411 435 420 442 427 442 c 0
 438 442 440 431 440 417 c 2
 440 -32 l 2
 440 -107.200195312 441.5 -175 450 -232 c 1
 448 -235 l 1
 448 -235 434.299804688 -232 400 -232 c 0
 365 -232 351 -235 351 -235 c 1
 350 -232 l 1
 358.5 -178.5 360 -106 360 -32 c 2
360 326 m 1
 333 371 292 399 250 399 c 0
 170 399 134 331 134 227 c 0
 134 76 205 44 263 44 c 0
 282 44 334 46 360 66 c 1
 360 326 l 1
EndSplineSet
Substitution2: "'sinf' Scientific Inferiors lookup 8 subtable" q.inferior
Substitution2: "'sups' Superscript lookup 7 subtable" q.superior
Substitution2: "'smcp' Lowercase to Small Capitals lookup 3 subtable" q.sc
AlternateSubs2: "'aalt' Access All Alternates lookup 0 subtable" q.sc
EndChar

StartChar: r
Encoding: 114 114 83
Width: 355
GlyphClass: 2
Flags: MW
HStem: -3 21G<78 78 175 175> 366 73
VStem: 87 80<180 232 142 235 142 272.5>
AnchorPoint: "Anchor-5" 185 551 basechar 0
AnchorPoint: "Anchor-4" 184 646 basechar 0
AnchorPoint: "Anchor-3" 128 -108 basechar 0
AnchorPoint: "Anchor-2" 127 7 basechar 0
LayerCount: 2
Fore
SplineSet
169 331 m 1
 213 407 243 439 297 439 c 0
 315 439 316 437 333 432 c 1
 337 428 l 1
 317 354 l 1
 309 352 l 1
 296 364 277.099609375 366 257 366 c 0
 238 366 214.400390625 354 199 332 c 0
 185 312 167 274 167 232 c 2
 167 180 l 2
 167 104 169 57 177 0 c 1
 175 -3 l 1
 175 -3 161 0 127 0 c 0
 92 0 78 -3 78 -3 c 1
 77 0 l 1
 85 54 87 105 87 180 c 2
 87 235 l 2
 87 310 80 368 72 411 c 1
 74 414 l 1
 115 417 133 429 158 439 c 0
 164 439 167 436 167 429 c 0
 166 400 165 334 165 334 c 1
 169 331 l 1
EndSplineSet
Substitution2: "'sinf' Scientific Inferiors lookup 8 subtable" r.inferior
Substitution2: "'sups' Superscript lookup 7 subtable" r.superior
Substitution2: "'smcp' Lowercase to Small Capitals lookup 3 subtable" r.sc
AlternateSubs2: "'aalt' Access All Alternates lookup 0 subtable" r.sc
EndChar

StartChar: s
Encoding: 115 115 84
Width: 396
GlyphClass: 2
Flags: MW
HStem: -10 40<165 209.5 159 253> 399 40<179.5 227>
VStem: 54 71<311 356.5 311 358.5> 275 79<99.5 137.5>
AnchorPoint: "Anchor-5" 208 550 basechar 0
AnchorPoint: "Anchor-4" 207 645 basechar 0
AnchorPoint: "Anchor-3" 198 -111 basechar 0
AnchorPoint: "Anchor-2" 197 2 basechar 0
AnchorPoint: "Anchor-1" 292 13 basechar 0
LayerCount: 2
Fore
SplineSet
50 99 m 1
 65 100 l 1
 88 57 135 30 183 30 c 0
 236 30 275 60 275 113 c 0
 275 162 231.900390625 172.700195312 174 194 c 0
 136 208 96 222 74 252 c 0
 62 267 54 291 54 317 c 0
 54 400 131 439 205 439 c 0
 256 439 311 422 340 407 c 1
 342 404 l 1
 322 334 l 1
 308 333 l 1
 294 361 253 399 201 399 c 0
 158 399 125 377 125 336 c 0
 125 286 181.099609375 270.299804688 218 258 c 0
 290 234 354 209 354 127 c 0
 354 72 322 -10 184 -10 c 0
 146 -10 90 -3 33 17 c 1
 50 99 l 1
EndSplineSet
Substitution2: "'sinf' Scientific Inferiors lookup 8 subtable" s.inferior
Substitution2: "'sups' Superscript lookup 7 subtable" s.superior
Substitution2: "'smcp' Lowercase to Small Capitals lookup 3 subtable" s.sc
AlternateSubs2: "'aalt' Access All Alternates lookup 0 subtable" s.sc
EndChar

StartChar: t
Encoding: 116 116 85
Width: 340
GlyphClass: 2
Flags: MW
HStem: -10 54<147 218> 385 44<31 32 32 95 175 276> 558 20G<171 174.15>
VStem: 95 80<231 242 242 385 429 458>
AnchorPoint: "Anchor-3" 163 -107 basechar 0
AnchorPoint: "Anchor-2" 165 -3 basechar 0
AnchorPoint: "Anchor-1" 237 15 basechar 0
LayerCount: 2
Fore
SplineSet
95 429 m 1
 95 487 95 508 88 550 c 1
 90 553 l 1
 130.5 556 145.900390625 568 171 578 c 0
 177.299804688 578 180 575.299804688 180 568 c 0
 175.5 510 175 503.799804688 175 429 c 1
 292 429 l 2
 297 429 300 427 300 423 c 2
 300 398 l 2
 300 389 286 385 276 385 c 2
 175 385 l 1
 175 242 l 2
 175 182 172 139 172 109 c 0
 172 68 178 44 205 44 c 0
 231 44 257 46.400390625 283.700195312 61.7001953125 c 1
 296 37 l 1
 257.299804688 1 212 -10 170 -10 c 0
 124 -10 92 22 92 69 c 0
 92 99 95 171 95 231 c 2
 95 385 l 1
 32 385 l 2
 29 385 28 386 28 389 c 2
 28 425 l 2
 28 428 29 429 31 429 c 2
 95 429 l 1
EndSplineSet
Substitution2: "'sinf' Scientific Inferiors lookup 8 subtable" t.inferior
Substitution2: "'sups' Superscript lookup 7 subtable" t.superior
Substitution2: "'smcp' Lowercase to Small Capitals lookup 3 subtable" t.sc
AlternateSubs2: "'aalt' Access All Alternates lookup 0 subtable" t.sc
EndChar

StartChar: u
Encoding: 117 117 86
Width: 538
GlyphClass: 2
Flags: MW
HStem: -10 56<219 249> -3 21G<379 382 461 461> 412 20G<72 72 169 169 358 358 455 455>
VStem: 80 80<126 150 150 249> 366 80<154.5 192 192 249 154.5 287>
AnchorPoint: "Anchor-5" 262 550 basechar 0
AnchorPoint: "Anchor-4" 262 646 basechar 0
AnchorPoint: "Anchor-3" 240 -111 basechar 0
AnchorPoint: "Anchor-2" 218 0 basechar 0
AnchorPoint: "Anchor-1" 298 7 basechar 0
LayerCount: 2
Fore
SplineSet
364 92 m 1x78
 331 41 280 -10 218 -10 c 0
 119 -10 80 57 80 126 c 2
 80 249 l 2
 80 325 79 372 70 429 c 1
 72 432 l 1
 72 432 86 429 120 429 c 0
 155 429 169 432 169 432 c 1
 170 429 l 1
 161 376 160 324 160 249 c 2
 160 150 l 2
 160 61 204 46 234 46 c 0xb8
 283 46 345 115 366 151 c 1
 366 249 l 2
 366 325 365 372 356 429 c 1
 358 432 l 1
 358 432 372 429 406 429 c 0
 441 429 455 432 455 432 c 1
 456 429 l 1
 447 376 446 324 446 249 c 2
 446 192 l 2
 446 117 455 43 463 0 c 1
 461 -3 l 1
 448 -1 429.099609375 0 416.5 0 c 0
 402 0 395.299804688 -1.2998046875 382 -3 c 0
 376 -3 373 -2 373 0 c 2
 368 89 l 1
 364 92 l 1x78
EndSplineSet
Substitution2: "'sinf' Scientific Inferiors lookup 8 subtable" u.inferior
Substitution2: "'sups' Superscript lookup 7 subtable" u.superior
Substitution2: "'smcp' Lowercase to Small Capitals lookup 3 subtable" u.sc
AlternateSubs2: "'aalt' Access All Alternates lookup 0 subtable" u.sc
EndChar

StartChar: v
Encoding: 118 118 87
Width: 472
GlyphClass: 2
Flags: MW
HStem: -3 21G 412 20G
AnchorPoint: "Anchor-5" 258 551 basechar 0
AnchorPoint: "Anchor-4" 257 646 basechar 0
AnchorPoint: "Anchor-3" 235 -113 basechar 0
LayerCount: 2
Fore
SplineSet
207 -3 m 1
 151 143 92 285 25 432 c 1
 41 429 62 429 78 429 c 0
 92 429 115 429 128 432 c 1
 163.400390625 320.299804688 199.80078125 210.399414062 247.900390625 98.9990234375 c 1
 292.100585938 195.899414062 330.700195312 322.299804688 370 432 c 1
 379 429 394 429 404 429 c 0
 414 429 433 429 442 432 c 1
 377 285 310 143 258 -3 c 1
 249 0 244 0 234 0 c 0
 224 0 217 0 207 -3 c 1
EndSplineSet
Substitution2: "'sinf' Scientific Inferiors lookup 8 subtable" v.inferior
Substitution2: "'sups' Superscript lookup 7 subtable" v.superior
Substitution2: "'smcp' Lowercase to Small Capitals lookup 3 subtable" v.sc
AlternateSubs2: "'aalt' Access All Alternates lookup 0 subtable" v.sc
EndChar

StartChar: w
Encoding: 119 119 88
Width: 747
GlyphClass: 2
Flags: MW
HStem: 0 90.1 412 20G
AnchorPoint: "Anchor-5" 341 552 basechar 0
AnchorPoint: "Anchor-4" 340 646 basechar 0
AnchorPoint: "Anchor-3" 347 -111 basechar 0
LayerCount: 2
Fore
SplineSet
210 -4 m 1
 154 142 92.0009765625 283.999023438 25.0009765625 430.999023438 c 1
 41.0009765625 427.999023438 62.0009765625 427.999023438 78.0009765625 427.999023438 c 0
 92.0009765625 427.999023438 115.000976562 427.999023438 128.000976562 430.999023438 c 1
 164.30078125 316.298828125 202.701171875 203.598632812 252.80078125 89.0986328125 c 1
 258.80078125 89.0986328125 l 1
 288.500976562 152.499023438 319.80078125 229.598632812 348.400390625 306.798828125 c 1
 305 431.999023438 l 1
 321 428.999023438 342 428.999023438 358 428.999023438 c 0
 372 428.999023438 395 428.999023438 408 431.999023438 c 1
 431 325.999023438 467 199.999023438 508.799804688 90.0986328125 c 1
 516.799804688 90.0986328125 l 1
 558 185.999023438 608 313.999023438 645 431.999023438 c 1
 654 428.999023438 669 428.999023438 679 428.999023438 c 0
 689 428.999023438 713 428.999023438 722 431.999023438 c 1
 665 306.999023438 580 114.999023438 531 -3.0009765625 c 1
 522 -0.0009765625 504 -0.0009765625 494 -0.0009765625 c 0
 484 -0.0009765625 472 -0.0009765625 462 -3.0009765625 c 1
 373.599609375 237.19921875 l 1
 339.599609375 157.599609375 306.799804688 74 279 -4 c 1
 270 -1 253 -1 243 -1 c 0
 233 -1 220 -1 210 -4 c 1
EndSplineSet
Substitution2: "'sinf' Scientific Inferiors lookup 8 subtable" w.inferior
Substitution2: "'sups' Superscript lookup 7 subtable" w.superior
Substitution2: "'smcp' Lowercase to Small Capitals lookup 3 subtable" w.sc
AlternateSubs2: "'aalt' Access All Alternates lookup 0 subtable" w.sc
EndChar

StartChar: x
Encoding: 120 120 89
Width: 455
GlyphClass: 2
Flags: MW
HStem: -3 21G<28 28> 412 20G
AnchorPoint: "Anchor-5" 257 551 basechar 0
AnchorPoint: "Anchor-4" 256 646 basechar 0
AnchorPoint: "Anchor-3" 224 -110 basechar 0
AnchorPoint: "Anchor-2" 104 8 basechar 0
LayerCount: 2
Fore
SplineSet
184.5 206.799804688 m 1
 23.9990234375 431.999023438 l 1
 39.9990234375 428.999023438 65.9990234375 428.999023438 81.9990234375 428.999023438 c 0
 98.9990234375 428.999023438 118.999023438 428.999023438 135.999023438 431.999023438 c 1
 169.598632812 376.298828125 196.999023438 323.19921875 237.098632812 268.599609375 c 1
 279.298828125 323.19921875 310.598632812 376.298828125 348.999023438 431.999023438 c 1
 359.999023438 428.999023438 374.999023438 428.999023438 385.999023438 428.999023438 c 0
 395.999023438 428.999023438 419.999023438 428.999023438 430.999023438 431.999023438 c 1
 266.899414062 230.298828125 l 1
 320.799804688 152.19921875 369.5 75.099609375 430 -3 c 1
 415 0 394 0 379 0 c 0
 363 0 337 0 322 -3 c 1
 285.599609375 54.2998046875 256 109 216 165.099609375 c 1
 176 109 146.200195312 54.2998046875 108 -3 c 1
 98 0 74 0 64 0 c 0
 54 0 38 0 28 -3 c 1
 184.5 206.799804688 l 1
EndSplineSet
Substitution2: "'sinf' Scientific Inferiors lookup 8 subtable" x.inferior
Substitution2: "'sups' Superscript lookup 7 subtable" x.superior
Substitution2: "'smcp' Lowercase to Small Capitals lookup 3 subtable" x.sc
AlternateSubs2: "'aalt' Access All Alternates lookup 0 subtable" x.sc
EndChar

StartChar: y
Encoding: 121 121 90
Width: 506
GlyphClass: 2
Flags: MW
HStem: -237 21G 412 20G
AnchorPoint: "Anchor-5" 294 550 basechar 0
AnchorPoint: "Anchor-4" 285 644 basechar 0
LayerCount: 2
Fore
SplineSet
28 432 m 1
 42 429 67 429.001953125 80 429.001953125 c 0
 94 429.001953125 116 429.001953125 129 432.001953125 c 1
 166.400390625 317.801757812 213.5 206.501953125 262.700195312 87.6015625 c 1
 264.700195312 87.6015625 l 1
 313.299804688 191.201171875 360 319.000976562 396 432.000976562 c 1
 406 429.000976562 425 429.000976562 435 429.000976562 c 0
 445 429.000976562 468 429.000976562 478 432.000976562 c 1
 445 365.000976562 226 -111.999023438 188 -236.999023438 c 1
 178 -233.999023438 149 -231.999023438 139 -231.999023438 c 0
 129 -231.999023438 114 -233.999023438 104 -236.999023438 c 1
 149.200195312 -161.69921875 190 -84.69921875 222 -9.9990234375 c 1
 186.599609375 85.1005859375 67.7998046875 343.200195312 28 432 c 1
EndSplineSet
Substitution2: "'sinf' Scientific Inferiors lookup 8 subtable" y.inferior
Substitution2: "'sups' Superscript lookup 7 subtable" y.superior
Substitution2: "'smcp' Lowercase to Small Capitals lookup 3 subtable" y.sc
AlternateSubs2: "'aalt' Access All Alternates lookup 0 subtable" y.sc
EndChar

StartChar: z
Encoding: 122 122 91
Width: 416
GlyphClass: 2
Flags: MW
HStem: 0 50 378.7 50.3
AnchorPoint: "Anchor-5" 221 551 basechar 0
AnchorPoint: "Anchor-4" 220 646 basechar 0
AnchorPoint: "Anchor-3" 207 -111 basechar 0
AnchorPoint: "Anchor-2" 208 4 basechar 0
LayerCount: 2
Fore
SplineSet
135.900390625 50 m 1
 257.5 50.7001953125 386 60.998046875 386 60.998046875 c 1
 388 57.998046875 l 1
 387 49.998046875 386 35.998046875 386 26.998046875 c 0
 386 17.998046875 387 12.998046875 388 -0.001953125 c 1
 386 -3.001953125 l 1
 371 -1.001953125 350 -0.001953125 330 -0.001953125 c 2
 104 -0.001953125 l 2
 75.5 -0.001953125 23 -3.001953125 23 -3.001953125 c 1
 20 1.498046875 l 1
 28 10.6982421875 33.900390625 20.0986328125 42 31.9990234375 c 2
 277 378.69921875 l 1
 162.400390625 377.099609375 49 368 49 368 c 1
 47 371 l 1
 48 379 49 393 49 402 c 0
 49 411 48 416 47 429 c 1
 49 432 l 1
 64 430 85 429 105 429 c 2
 309 429 l 2
 338 429 384.700195312 435.299804688 389.700195312 435.299804688 c 0
 393.700195312 435.299804688 395 433 395 429 c 0
 389 422 382.200195312 412.299804688 365 387 c 2
 135.900390625 50 l 1
EndSplineSet
Substitution2: "'sinf' Scientific Inferiors lookup 8 subtable" z.inferior
Substitution2: "'sups' Superscript lookup 7 subtable" z.superior
Substitution2: "'smcp' Lowercase to Small Capitals lookup 3 subtable" z.sc
AlternateSubs2: "'aalt' Access All Alternates lookup 0 subtable" z.sc
EndChar

StartChar: braceleft
Encoding: 123 123 92
Width: 278
GlyphClass: 2
Flags: MW
HStem: -212 22<227 249> 685 22<249 249>
VStem: 106 73<-49 95 370 386 386 554 554 562>
LayerCount: 2
Fore
SplineSet
179 562 m 2
 179 386 l 2
 179 295 165 268 116 247 c 1
 174 222 179 180 179 95 c 2
 179 -64 l 2
 179 -136 205 -190 249 -190 c 1
 249 -212 l 1
 147 -210 106 -179 106 -49 c 2
 106 121 l 2
 106 182 88 226 34 239 c 1
 34 254 l 1
 90 270 106 320 106 370 c 2
 106 554 l 2
 106 669 148 704 249 707 c 1
 249 685 l 1
 211 674 179 653 179 562 c 2
EndSplineSet
Substitution2: "'case' Case-Sensitive Forms lookup 23 subtable" braceleft.sc
Substitution2: "'c2sc' Capitals to Small Capitals lookup 9 subtable" braceleft.sc
AlternateSubs2: "'aalt' Access All Alternates lookup 0 subtable" braceleft.sc
EndChar

StartChar: bar
Encoding: 124 124 93
Width: 210
GlyphClass: 2
Flags: MW
HStem: -232 21G<81 130 81 81> 678 20G<81 130 130 130>
VStem: 81 49<-232 698>
LayerCount: 2
Fore
SplineSet
130 -232 m 1
 81 -232 l 1
 81 698 l 1
 130 698 l 1
 130 -232 l 1
EndSplineSet
EndChar

StartChar: braceright
Encoding: 125 125 94
Width: 278
GlyphClass: 2
Flags: MW
HStem: -213 22<29 29> 684 22<29 51>
VStem: 99 73<-68 -60 -60 108 108 124 399 543>
LayerCount: 2
Fore
SplineSet
99 -68 m 2
 99 108 l 2
 99 199 113 226 162 247 c 1
 104 272 99 314 99 399 c 2
 99 558 l 2
 99 630 73 684 29 684 c 1
 29 706 l 1
 131 704 172 673 172 543 c 2
 172 373 l 2
 172 312 190 268 244 255 c 1
 244 240 l 1
 188 224 172 174 172 124 c 2
 172 -60 l 2
 172 -175 130 -210 29 -213 c 1
 29 -191 l 1
 67 -180 99 -159 99 -68 c 2
EndSplineSet
Substitution2: "'case' Case-Sensitive Forms lookup 23 subtable" braceright.sc
Substitution2: "'c2sc' Capitals to Small Capitals lookup 9 subtable" braceright.sc
AlternateSubs2: "'aalt' Access All Alternates lookup 0 subtable" braceright.sc
EndChar

StartChar: asciitilde
Encoding: 126 126 95
Width: 449
GlyphClass: 2
Flags: MW
HStem: 213 59<290 309> 278 59<130.5 160.5>
VStem: 26 13<206 209> 400 17<333 339>
LayerCount: 2
Fore
SplineSet
26 209 m 1
 39 274 93 337 154 337 c 0
 177 337 202 321 228 305 c 0
 253 289 279 272 301 272 c 0
 329 272 378 289 400 339 c 1
 417 333 l 1
 386 226 321 213 297 213 c 0
 271 213 246 229 222 246 c 0
 197 263 173 278 148 278 c 0
 113 278 62 250 39 206 c 1
 26 209 l 1
EndSplineSet
EndChar

StartChar: exclamdown
Encoding: 161 161 97
Width: 228
GlyphClass: 2
Flags: MW
HStem: -229 21G<101.5 126> 327 112<113 117 113 117>
VStem: 59 110<-181 -123.5>
LayerCount: 2
Fore
SplineSet
171 385 m 1
 171 381 l 1
 161.799804688 354.5 147.200195312 339.200195312 117 327 c 1
 113 327 l 1
 84 337.5 68.2001953125 352.799804688 59 381 c 1
 59 385 l 1
 69.2001953125 417.200195312 84.7998046875 432 113 439 c 1
 117 439 l 1
 148.200195312 432 162.200195312 418.5 171 385 c 1
115 -229 m 0
 88 -229 59 -206 59 -156 c 0
 59 -91 74.7998046875 -49 85 37 c 0
 97.7998046875 145 99 205 101 219 c 0
 102 230 105 239 115 239 c 0
 126 239 128 232 129 226 c 0
 131 205 136 115 144 37 c 0
 153 -51 169 -86 169 -156 c 0
 169 -210 137 -229 115 -229 c 0
EndSplineSet
Substitution2: "'case' Case-Sensitive Forms lookup 23 subtable" exclamdown.sc
Substitution2: "'c2sc' Capitals to Small Capitals lookup 9 subtable" exclamdown.sc
AlternateSubs2: "'aalt' Access All Alternates lookup 0 subtable" exclamdown.sc
EndChar

StartChar: cent
Encoding: 162 162 98
Width: 500
GlyphClass: 2
Flags: MW
HStem: 94.6 50.8 436.6 21G 512.2 40.9 636.3 20G
VStem: 73.1 88 255.5 38.6
LayerCount: 2
Fore
SplineSet
255.5 154.700195312 m 1
 255.499023438 505.200195312 l 1
 203.399414062 485.200195312 161.099609375 423.700195312 161.099609375 332.400390625 c 0
 161.099609375 238.700195312 200.5 177 255.5 154.700195312 c 1
255.499023438 656.299804688 m 1
 294.09765625 656.298828125 l 1
 294.09765625 553.098632812 l 1
 345.197265625 553.098632812 406.397460938 540.798828125 437.997070312 524.499023438 c 1
 439.997070312 521.399414062 l 1
 416.497070312 437.599609375 l 1
 403.197265625 436.599609375 l 1
 376.397460938 482.599609375 333.09765625 511.599609375 294.09765625 512.19921875 c 1
 294.09765625 145.69921875 l 2
 297.397460938 145.499023438 300.697265625 145.399414062 304.09765625 145.399414062 c 0
 347.998046875 145.399414062 377.698242188 158.69921875 416.498046875 193.399414062 c 1
 420.59765625 193.399414062 l 1
 439.998046875 171.899414062 l 1
 401.8984375 123.299804688 350.498046875 97.8994140625 294.09765625 94.599609375 c 1
 294.09765625 -13.6005859375 l 1
 255.498046875 -13.6005859375 l 1
 255.498046875 95.599609375 l 1
 142.198242188 107.19921875 73.0986328125 194.999023438 73.0986328125 327.298828125 c 0
 73.0986328125 449.598632812 161.798828125 531.499023438 255.499023438 549.399414062 c 1
 255.499023438 656.299804688 l 1
EndSplineSet
EndChar

StartChar: sterling
Encoding: 163 163 99
Width: 500
GlyphClass: 2
Flags: MW
HStem: -11.4 59 52.2 45.4 320.2 44.3 587.1 60.2
VStem: 19.3 77.2 149.9 86.3
LayerCount: 2
Fore
SplineSet
236.200195312 440.599609375 m 2
 236.202148438 364.501953125 l 1
 370.202148438 364.501953125 l 2
 375.90234375 364.501953125 378.102539062 362.202148438 378.102539062 357.702148438 c 2
 378.102539062 333.90234375 l 2
 378.102539062 324.802734375 363.40234375 320.203125 352.001953125 320.203125 c 2
 236.202148438 320.203125 l 1
 235.102539062 191.903320312 194.102539062 131.703125 157.802734375 97.603515625 c 1
 163.502929688 97.603515625 l 2
 286.102539062 97.603515625 281.702148438 47.603515625 353.202148438 47.603515625 c 0
 385.001953125 47.603515625 436.001953125 55.703125 464.40234375 94.302734375 c 1
 483.702148438 82.90234375 l 1
 457.602539062 27.302734375 404.302734375 -11.3974609375 333.90234375 -11.3974609375 c 0
 237.40234375 -11.3974609375 236.202148438 52.2021484375 141.90234375 52.2021484375 c 0
 104.40234375 52.2021484375 96.501953125 37.501953125 96.501953125 26.1015625 c 0
 96.501953125 1.1015625 77.2021484375 -11.3984375 53.40234375 -11.3984375 c 0
 33.001953125 -11.3984375 19.3017578125 1.201171875 19.3017578125 18.201171875 c 0
 19.3017578125 38.6015625 44.3017578125 55.6015625 73.8017578125 71.501953125 c 1
 137.401367188 118.1015625 149.901367188 204.401367188 149.901367188 302.1015625 c 2
 149.901367188 320.201171875 l 1
 81.8017578125 320.201171875 l 2
 76.1015625 320.201171875 74.9013671875 321.30078125 74.9013671875 327.000976562 c 2
 74.9013671875 341.80078125 l 2
 74.9013671875 350.900390625 81.8017578125 364.5 101.1015625 364.5 c 2
 149.901367188 364.5 l 1
 149.901367188 386.099609375 l 2
 149.901367188 476.899414062 168.1015625 516.69921875 222.6015625 571.19921875 c 0
 279.401367188 627.999023438 348.6015625 647.298828125 412.201171875 647.298828125 c 0
 431.500976562 647.298828125 449.701171875 642.69921875 457.6015625 638.19921875 c 1
 458.801757812 634.798828125 l 1
 447.401367188 615.499023438 437.201171875 580.298828125 430.401367188 552.999023438 c 1
 419.000976562 551.899414062 l 1
 407.600585938 571.19921875 389.500976562 587.099609375 361.100585938 587.099609375 c 0
 303.200195312 587.099609375 236.200195312 517.799804688 236.200195312 440.599609375 c 2
EndSplineSet
EndChar

StartChar: currency
Encoding: 164 164 100
Width: 500
GlyphClass: 2
Flags: MW
HStem: 128.3 47.7 478.1 47.7
VStem: 47.7 68.1 380.4 69.3
LayerCount: 2
Fore
SplineSet
248.700195312 128.299804688 m 0
 203.299804688 128.299804688 162.299804688 141.90234375 126 169.202148438 c 1
 77.2001953125 109.001953125 l 1
 30.7001953125 154.40234375 l 1
 92 203.302734375 l 1
 62.5 238.502929688 47.7001953125 280.403320312 47.7001953125 327.002929688 c 0
 47.7001953125 375.802734375 62.5 417.90234375 92 452.001953125 c 1
 32.900390625 498.501953125 l 1
 74.900390625 543.90234375 l 1
 127.200195312 486.001953125 l 1
 164.700195312 513.301757812 204.400390625 525.801757812 248.700195312 525.801757812 c 0
 295.299804688 525.801757812 336.200195312 512.1015625 372.5 483.701171875 c 1
 424.700195312 546.201171875 l 1
 469 499.6015625 l 1
 406.5 449.701171875 l 1
 434.900390625 415.6015625 449.700195312 374.701171875 449.700195312 327.000976562 c 0
 449.700195312 281.600585938 435 240.700195312 407.700195312 205.5 c 1
 466.700195312 155.599609375 l 1
 425.799804688 112.399414062 l 1
 373.599609375 170.299804688 l 1
 336.099609375 141.899414062 295.299804688 128.299804688 248.700195312 128.299804688 c 0
115.799804688 328.203125 m 0
 115.799804688 245.302734375 168.100585938 176.001953125 248.700195312 176.001953125 c 0
 328.200195312 176.001953125 380.400390625 246.40234375 380.400390625 327.001953125 c 0
 380.400390625 412.202148438 321.400390625 478.102539062 251 478.102539062 c 0
 171.5 478.102539062 115.799804688 408.802734375 115.799804688 328.203125 c 0
EndSplineSet
EndChar

StartChar: yen
Encoding: 165 165 101
Width: 500
GlyphClass: 2
Flags: MW
HStem: -3.39999 21G 144.2 44.3 260 45.4 632.9 20G
VStem: 201.2 92
LayerCount: 2
Fore
SplineSet
53.400390625 260 m 2
 47.7001953125 260 47.701171875 261.203125 47.701171875 266.903320312 c 2
 47.701171875 282.803710938 l 2
 47.701171875 291.903320312 53.4013671875 305.403320312 72.701171875 305.403320312 c 2
 186.30078125 305.403320312 l 1
 137.900390625 394.903320312 40.80078125 591.403320312 4.5009765625 652.903320312 c 1
 21.5009765625 649.502929688 45.5009765625 649.502929688 62.5009765625 649.502929688 c 0
 79.5009765625 649.502929688 102.201171875 649.502929688 119.201171875 652.903320312 c 1
 162.30078125 541.203125 199.000976562 452.203125 261.701171875 342.802734375 c 1
 319.1015625 433.602539062 355.1015625 533.302734375 404.301757812 652.90234375 c 1
 415.702148438 649.501953125 432.702148438 649.501953125 446.301757812 649.501953125 c 0
 458.801757812 649.501953125 475.801757812 649.501953125 488.301757812 652.90234375 c 1
 391.501953125 483.501953125 340.501953125 383.301757812 300.1015625 305.401367188 c 1
 446.301757812 305.401367188 l 2
 450.801757812 305.401367188 454.202148438 303.201171875 454.202148438 298.701171875 c 2
 454.202148438 274.80078125 l 2
 454.202148438 264.600585938 439.501953125 260.000976562 428.1015625 260.000976562 c 2
 291.301757812 260.000976562 l 1
 291.6015625 237.100585938 291.901367188 212.900390625 292.301757812 188.5 c 1
 446.301757812 188.5 l 2
 450.801757812 188.5 454.202148438 186.200195312 454.202148438 181.700195312 c 2
 454.202148438 159 l 2
 454.202148438 148.799804688 439.501953125 144.200195312 428.1015625 144.200195312 c 2
 293.201171875 144.200195312 l 1
 294.6015625 81.400390625 296.6015625 23.900390625 298.701171875 -3.3994140625 c 1
 282.80078125 0.0009765625 261.201171875 0.0009765625 246.401367188 0.0009765625 c 0
 231.6015625 0.0009765625 211.201171875 0.0009765625 195.30078125 -3.3994140625 c 1
 198.600585938 28.80078125 200.30078125 84.201171875 201.201171875 144.201171875 c 1
 53.4013671875 144.201171875 l 2
 47.701171875 144.201171875 47.701171875 145.30078125 47.701171875 151.000976562 c 2
 47.701171875 165.80078125 l 2
 47.701171875 174.900390625 53.4013671875 188.5 72.701171875 188.5 c 2
 201.701171875 188.5 l 1
 201.901367188 212.700195312 202.000976562 236.900390625 202.100585938 260 c 1
 53.400390625 260 l 2
EndSplineSet
Substitution2: "'pnum' Proportional Numbers lookup 15 subtable" Yen.fitted
EndChar

StartChar: brokenbar
Encoding: 166 166 102
Width: 205
GlyphClass: 2
Flags: MW
VStem: 81 48<-201 161 -201 161 312 674>
LayerCount: 2
Fore
SplineSet
129 161 m 1
 129 -201 l 1
 81 -201 l 1
 81 161 l 1
 129 161 l 1
129 674 m 1
 129 312 l 1
 81 312 l 1
 81 674 l 1
 129 674 l 1
EndSplineSet
EndChar

StartChar: section
Encoding: 167 167 103
Width: 483
GlyphClass: 2
Flags: MW
HStem: -172 40<220.5 271.5 220.5 289> 618 40
VStem: 50 57<258 297.3> 81 69<512.499 548.999> 333 69<-63 -26.5> 376 57<188.699 228>
LayerCount: 2
Fore
SplineSet
125.099609375 407.299804688 m 1xe8
 93.2998046875 440.899414062 81 478.899414062 81 515.999023438 c 0
 81 581.999023438 144 657.999023438 244 657.999023438 c 0
 313 657.999023438 356 617.999023438 383 594.999023438 c 1
 386 589.999023438 l 1
 369 516.999023438 l 1
 355 514.999023438 l 1
 326 564.999023438 290 617.999023438 235 617.999023438 c 0
 188 617.999023438 150 583.999023438 150 535.999023438 c 0
 150 488.999023438 179 457.999023438 230 436.999023438 c 0
 310.900390625 403.69921875 433 341.999023438 433 218.999023438 c 0xd4
 433 158.399414062 399.5 109.69921875 357.900390625 78.69921875 c 1
 389.700195312 45.099609375 402 7.099609375 402 -30 c 0
 402 -96 339 -172 239 -172 c 0
 170 -172 127 -132 100 -109 c 1
 97 -104 l 1
 114 -31 l 1
 128 -29 l 1
 157 -79 193 -132 248 -132 c 0
 295 -132 333 -98 333 -50 c 0
 333 -3 304 28 253 49 c 0
 172.099609375 82.2998046875 50 144 50 267 c 0
 50 327.599609375 83.5 376.299804688 125.099609375 407.299804688 c 1xe8
147.5 387 m 1
 127.400390625 367.200195312 107 335.700195312 107 305 c 0xe4
 107 211 217.200195312 165.299804688 293 126 c 0
 309.200195312 117.599609375 323.299804688 108.5 335.5 99 c 1
 355.599609375 118.799804688 376 150.299804688 376 181 c 0
 376 275 265.799804688 320.700195312 190 360 c 0
 173.799804688 368.400390625 159.700195312 377.5 147.5 387 c 1
EndSplineSet
EndChar

StartChar: dieresis
Encoding: 168 168 104
Width: 379
GlyphClass: 2
Flags: MW
HStem: 527 95<84 110 253 279>
VStem: 50 94<561 587> 219 94<561 587>
LayerCount: 2
Fore
SplineSet
219 574 m 0
 219 600 240 622 266 622 c 0
 292 622 313 600 313 574 c 0
 313 548 292 527 266 527 c 0
 240 527 219 548 219 574 c 0
50 574 m 0
 50 600 71 622 97 622 c 0
 123 622 144 600 144 574 c 0
 144 548 123 527 97 527 c 0
 71 527 50 548 50 574 c 0
EndSplineSet
EndChar

StartChar: copyright
Encoding: 169 169 105
Width: 633
GlyphClass: 2
Flags: MW
HStem: 23 32<247 386 247 395> 152 29<296 348.5> 434 23<299 347.5> 557 31<247 386.5>
VStem: 34 31<237 375.5 237 384> 165 62<274.5 343> 416 20<360 364> 568 31<236.5 375.5>
LayerCount: 2
Fore
SplineSet
317 557 m 0
 177 557 65 445 65 306 c 0
 65 168 177 55 317 55 c 0
 455 55 568 167 568 306 c 0
 568 445 456 557 317 557 c 0
317 23 m 0
 160 23 34 151 34 306 c 0
 34 462 161 588 317 588 c 0
 473 588 599 462 599 306 c 0
 599 150 473 23 317 23 c 0
439 216 m 1
 419 185 376 152 321 152 c 0
 232 152 165 222 165 301 c 0
 165 385 235 457 323 457 c 0
 393 457 393 442 422 442 c 1
 436 364 l 1
 416 360 l 1
 399 406 376 434 319 434 c 0
 279 434 227 409 227 311 c 0
 227 238 262 181 330 181 c 0
 381 181 409 215 420 231 c 1
 439 216 l 1
EndSplineSet
EndChar

StartChar: ordfeminine
Encoding: 170 170 106
Width: 297
GlyphClass: 2
Flags: MW
HStem: 358 34<213.5 252.5> 609 28<117 143>
VStem: 26 53<417.5 441 417.5 446> 189 51<504 578 533 570>
LayerCount: 2
Fore
SplineSet
238 411 m 0
 238 399 241 392 248 392 c 0
 257 392 266 401 272 405 c 1
 274 404 l 1
 284 391 l 1
 264 366 249 358 229 358 c 0
 198 358 191 384 190 394 c 1
 186 394 l 1
 153 366 138 358 104 358 c 0
 58 358 26 379 26 425 c 0
 26 467 66 500 129 515 c 2
 185 528 l 2
 187 529 189 531 189 535 c 0
 189 605 154 609 132 609 c 0
 102 609 81 582 64 554 c 1
 56 554 l 1
 45 598 l 1
 47 600 l 2
 63 613 91 637 138 637 c 0
 185 637 240 620 240 536 c 0
 240 529 238 429 238 411 c 0
189 504 m 1
 138 489 l 2
 90 474.900390625 79 455 79 427 c 0
 79 408 95 390 123 390 c 0
 142 390 161 401 178 414 c 0
 183 418 186 422 186 430 c 2
 189 504 l 1
EndSplineSet
EndChar

StartChar: guillemotleft
Encoding: 171 171 107
Width: 536
GlyphClass: 2
Flags: W
LayerCount: 2
Fore
SplineSet
288 429 m 1
 288 378 l 1
 243 312 195 257 144 215 c 1
 192 178 240 124 288 52 c 1
 288 1 l 1
 207 94 134 159 68 196 c 1
 68 234 l 1
 139 284 212 349 288 429 c 1
468 429 m 1
 468 378 l 1
 424 312 376 257 325 215 c 1
 374 178 421 124 468 52 c 1
 468 1 l 1
 388 94 315 159 250 196 c 1
 250 234 l 1
 320 284 393 349 468 429 c 1
EndSplineSet
Substitution2: "'case' Case-Sensitive Forms lookup 23 subtable" guillemotleft.sc
Substitution2: "'c2sc' Capitals to Small Capitals lookup 9 subtable" guillemotleft.sc
AlternateSubs2: "'aalt' Access All Alternates lookup 0 subtable" guillemotleft.sc
EndChar

StartChar: logicalnot
Encoding: 172 172 108
Width: 560
GlyphClass: 2
Flags: MW
HStem: 357 44<24 483 24 537>
VStem: 483 54<133 357 357 357>
LayerCount: 2
Fore
SplineSet
483 133 m 1
 483 357 l 1
 24 357 l 1
 24 401 l 1
 537 401 l 1
 537 133 l 1
 483 133 l 1
EndSplineSet
EndChar

StartChar: uni00AD
Encoding: 173 173 109
Width: 333
GlyphClass: 2
Flags: MW
HStem: 236 54<43.5 287 58 274>
VStem: 33 268<248.5 276.5>
LayerCount: 2
Fore
SplineSet
274 236 m 2
 48 236 l 2
 39 236 33 244 33 253 c 0
 33 269 46 290 58 290 c 2
 287 290 l 2
 297 290 301 281 301 272 c 0
 301 261 287 236 274 236 c 2
EndSplineSet
EndChar

StartChar: registered
Encoding: 174 174 110
Width: 633
GlyphClass: 2
Flags: MW
HStem: 23 32<247 386 247 395> 169 24<201 209> 288 24<286 288.5> 421 24<201.5 205 205 216 313.5 335 335 343> 556 32
VStem: 34 40 239 47<216 288 312 396> 376 55<350.5 385 350.5 387> 568 40
LayerCount: 2
Fore
SplineSet
317 557 m 0
 177 557 65 445 65 306 c 0
 65 168 177 55 317 55 c 0
 455 55 568 167 568 306 c 0
 568 445 456 557 317 557 c 0
317 23 m 0
 160 23 34 151 34 306 c 0
 34 462 161 588 317 588 c 0
 473 588 599 462 599 306 c 0
 599 150 473 23 317 23 c 0
376 370 m 0
 376 404 360 421 326 421 c 0
 301 421 286 414 286 396 c 2
 286 312 l 1
 318 312 l 2
 348 312 376 319 376 370 c 0
431 370 m 0
 431 331 404 306 373 296 c 1
 421 214 l 2
 432 195.200195312 448 190 464 193 c 1
 468 176 l 1
 456 171 444 169 432 169 c 0
 412 169 388 175 371 204 c 2
 323 284 l 2
 319 287 291 288 286 288 c 1
 286 216 l 2
 286 203 290 196.099609375 298 195 c 2
 312 193 l 2
 320 192 323 192 323 187 c 2
 323 171 l 1
 321 169 l 1
 321 169 280 171 262 171 c 0
 242 171 201 169 201 169 c 1
 199 171 l 1
 199 188 l 2
 199 192 202 192 209 193 c 2
 226 195 l 2
 234 196 239 203 239 216 c 2
 239 396 l 2
 239 413 228 421 216 421 c 2
 205 421 l 2
 198 421 197 423 197 426 c 2
 197 443 l 1
 199 445 l 1
 335 445 l 2
 410 445 431 400 431 370 c 0
EndSplineSet
EndChar

StartChar: macron
Encoding: 175 175 111
Width: 397
GlyphClass: 2
Flags: MW
HStem: 529 44<66.5 325 81 315>
VStem: 59 280<540.5 562>
LayerCount: 2
Fore
SplineSet
315 529 m 2
 71 529 l 2
 62 529 59 537 59 544 c 0
 59 556 69 573 81 573 c 2
 325 573 l 2
 335 573 339 565 339 559 c 0
 339 547 328 529 315 529 c 2
EndSplineSet
EndChar

StartChar: degree
Encoding: 176 176 112
Width: 267
GlyphClass: 2
Flags: MW
HStem: 426 28<113 154.5 113 161.5> 597 28<112.5 156.5>
VStem: 34 33<506.5 542 506.5 553> 200 33<507 540.5>
LayerCount: 2
Fore
SplineSet
34 525 m 0
 34 581 79 625 134 625 c 0
 189 625 233 581 233 525 c 0
 233 470 189 426 134 426 c 0
 79 426 34 470 34 525 c 0
200 524 m 0
 200 557 179 597 134 597 c 0
 91 597 67 560 67 524 c 0
 67 489 92 454 134 454 c 0
 175 454 200 490 200 524 c 0
EndSplineSet
EndChar

StartChar: plusminus
Encoding: 177 177 113
Width: 527
GlyphClass: 2
Flags: MW
HStem: 19 49<66 461 66 461> 293 49<66 238 66 238 289 461>
VStem: 238 51<119 293 119 293 342 516>
LayerCount: 2
Fore
SplineSet
461 68 m 1
 461 19 l 1
 66 19 l 1
 66 68 l 1
 461 68 l 1
289 342 m 1
 461 342 l 1
 461 293 l 1
 289 293 l 1
 289 119 l 1
 238 119 l 1
 238 293 l 1
 66 293 l 1
 66 342 l 1
 238 342 l 1
 238 516 l 1
 289 516 l 1
 289 342 l 1
EndSplineSet
EndChar

StartChar: two.superior
Encoding: 178 178 114
Width: 307
GlyphClass: 2
Flags: MW
HStem: 364 34<107 178 178 184> 664 24<128.5 159>
VStem: 45 62<364 413.5> 47 49<604.5 641.5> 203 59<582 627.5>
LayerCount: 2
Fore
SplineSet
178 398 m 2xe8
 225 398 238 400 265 402 c 1
 264 396 263 388 263 382 c 0
 263 376 264 368 265 362 c 1
 230 364 219 364 184 364 c 2
 45 364 l 1xe8
 45 412 88 454 136 491 c 0
 181 527 203 550 203 604 c 0
 203 651 168 664 150 664 c 0
 107 664 96 648 96 635 c 0
 96 626 101 619 101 611 c 0
 101 595 83 587 73 587 c 0
 61 587 47 598 47 611 c 0xd8
 47 637 75 688 154 688 c 0
 204 688 262 669 262 605 c 0
 262 559 229 526 173 486 c 0
 131 456 107 429 107 398 c 1
 178 398 l 2xe8
EndSplineSet
EndChar

StartChar: three.superior
Encoding: 179 179 115
Width: 307
GlyphClass: 2
Flags: MW
HStem: 358 24 527 24<115 117> 664 24<138 157.5>
VStem: 188 56 215 59<438.5 493.5>
LayerCount: 2
Fore
SplineSet
188 624 m 0xf0
 188 655 167 664 148 664 c 0
 128 664 94 654 93 629 c 0
 92 617 90 600 67 600 c 0
 48 600 44 615 44 618 c 0
 44 635 73 688 160 688 c 0
 212 688 245 666 245 629 c 0
 245 600 223 577 194 561 c 1
 227 558 274 531 274 473 c 0
 274 404 208 358 128 358 c 0
 91 358 39 374 39 395 c 0
 39 405 52 415 63 415 c 0
 77 415 83 408 89 401 c 0
 97 391 107 383 139 383 c 0
 158 383 215 396 215 465 c 0xe8
 215 522 161 529 137 529 c 0
 130 529 125 528 117 527 c 1
 115 551 l 1
 159 557 188 583 188 624 c 0xf0
EndSplineSet
EndChar

StartChar: acute
Encoding: 180 180 116
Width: 341
GlyphClass: 2
Flags: MW
HStem: 542 160
LayerCount: 2
Fore
SplineSet
175 703 m 2
 178 704 184.000976562 705 189.000976562 705 c 0
 195.401367188 705 221.000976562 704 244.000976562 682 c 1
 247.000976562 671 l 1
 132.000976562 562 l 2
 117.000976562 547 109.000976562 543 102.000976562 543 c 0
 95.0009765625 543 88.0009765625 549 88.0009765625 556 c 0
 88.0009765625 567.200195312 91.30078125 571.200195312 99.400390625 584 c 2
 175 703 l 2
EndSplineSet
Substitution2: "'case' Case-Sensitive Forms lookup 23 subtable" acute.cap
EndChar

StartChar: uni00B5
Encoding: 181 181 117
Width: 486
GlyphClass: 2
Flags: MW
HStem: -234 21G<93 112.5> -10 45<171.5 209.5> 419 20G<126 126 399 399>
VStem: 47 95<-189.5 -152.5 -194.5 -143.5> 54 75<134 147 147 322 322 336> 63 47<-28.5 6.5 -28.5 8.5> 324 75<40.5 124 99 124 124 429 429 429>
LayerCount: 2
Fore
SplineSet
101 -234 m 0xf2
 85 -234 47 -210 47 -169 c 0xf2
 47 -118 63 -71 63 -8 c 0xe6
 63 25 54 76 54 134 c 2
 54 322 l 2
 54 350 44 429 44 429 c 1
 67 429 98 436 126 439 c 1
 126 439 129 375 129 343 c 2
 129 147 l 2xea
 129 82 145 35 198 35 c 0
 252 35 302 66 324 99 c 1
 324 429 l 1
 348 429 374 436 399 439 c 1
 399 124 l 2
 399 61 399 37 425 37 c 0
 438 37 448 52 459 79 c 1
 483 68 l 1
 464 18 444 -10 392 -10 c 0
 354 -10 324 21 324 60 c 1
 284 16 240 -10 179 -10 c 0
 157 -10 133 0 122 13 c 1
 116 13 110 9 110 4 c 0xe6
 110 -61 142 -131 142 -174 c 0
 142 -215 124 -234 101 -234 c 0xf2
EndSplineSet
EndChar

StartChar: paragraph
Encoding: 182 182 118
Width: 602
GlyphClass: 2
Flags: MW
HStem: -232 33<395.5 418.5 395.5 424> 612 33<395.5 418.5>
VStem: 57 310<414 520.5> 317 50<-32 285 285 285> 448 50<-69.5 -32 -32 445>
LayerCount: 2
Fore
SplineSet
408 645 m 0xe8
 443 645 507 648 507 648 c 1
 508 645 l 1
 500 592 498 520 498 445 c 2
 498 -32 l 2
 498 -107 500 -175 508 -232 c 1
 506 -235 l 1
 506 -235 441 -232 407 -232 c 0
 373 -232 309 -235 309 -235 c 1
 307 -232 l 1
 315 -175 317 -107 317 -32 c 2
 317 285 l 1xd8
 308 283 300 282 285 282 c 0
 139 282 57 347 57 481 c 0
 57 560 115 647 247 647 c 0
 322 647 381 645 408 645 c 0xe8
367 574 m 2
 367 -161 l 2
 367 -188 384 -199 407 -199 c 0
 430 -199 448 -192 448 -161 c 2
 448 574 l 2
 448 605 430 612 407 612 c 0
 384 612 367 601 367 574 c 2
EndSplineSet
EndChar

StartChar: periodcentered
Encoding: 183 183 119
Width: 250
GlyphClass: 2
Flags: MW
HStem: 204 108<110.5 138.5 110.5 140.5>
VStem: 71 108<244 272>
LayerCount: 2
Fore
SplineSet
125 204 m 0
 92 204 71 230 71 258 c 0
 71 286 96 312 125 312 c 0
 152 312 179 288 179 258 c 0
 179 229 156 204 125 204 c 0
EndSplineSet
EndChar

StartChar: cedilla
Encoding: 184 184 120
Width: 541
GlyphClass: 4
Flags: MW
HStem: -200 29<274 299 274 320.5> -96 32<292.5 346> -20 20G<291 325 325 325>
VStem: 335 62<-144 -120.5>
AnchorPoint: "Anchor-2" 297 7 mark 0
LayerCount: 2
Fore
SplineSet
302 -96 m 0
 283 -96 273 -97 257 -102 c 1
 251 -96 l 1
 291 0 l 1
 325 0 l 1
 300 -67 l 1
 308 -65 317 -64 326 -64 c 0
 366 -64 397 -88 397 -126 c 0
 397 -169 351 -200 290 -200 c 0
 258 -200 241 -194 216 -183 c 1
 216 -171 219 -164 226 -157 c 1
 253 -167 264 -171 284 -171 c 0
 314 -171 335 -157 335 -131 c 0
 335 -110 325 -96 302 -96 c 0
EndSplineSet
EndChar

StartChar: one.superior
Encoding: 185 185 121
Width: 307
GlyphClass: 2
Flags: MW
HStem: 364 324<138 201 160.5 201 195 208> 599 21G<66 66>
VStem: 147 54<492 577 577 593>
LayerCount: 2
Fore
SplineSet
147 492 m 2xa0
 147 577 l 2
 147 609 147 619 135 619 c 0
 122 619 80 606 66 599 c 1x60
 56 628 l 1
 103 645 151 661 195 688 c 1
 201 688 l 2
 204 688 204 685 204 682 c 2
 204 682 201 648 201 618 c 2
 201 492 l 2
 201 438 202 405 208 364 c 1
 207 362 l 1
 207 362 198 364 173 364 c 0
 148 364 139 362 139 362 c 1
 138 364 l 1
 145 402 147 439 147 492 c 2xa0
EndSplineSet
EndChar

StartChar: ordmasculine
Encoding: 186 186 122
Width: 349
GlyphClass: 2
Flags: MW
HStem: 303 28<153 196.5 153 219> 541 25<146 196>
VStem: 39 58<414.5 466 414.5 471.5> 254 57<401 459>
LayerCount: 2
Fore
SplineSet
171 541 m 0
 121 541 97 493 97 439 c 0
 97 390 123 331 183 331 c 0
 210 331 254 347 254 419 c 0
 254 499 221 541 171 541 c 0
39 429 m 0
 39 514 91 566 177 566 c 0
 275 566 311 502 311 435 c 0
 311 367 266 303 172 303 c 0
 98 303 39 357 39 429 c 0
EndSplineSet
EndChar

StartChar: guillemotright
Encoding: 187 187 123
Width: 536
GlyphClass: 2
Flags: MW
HStem: 1 21G<48 48 228 228> 409 20G<48 48 228 228>
LayerCount: 2
Fore
SplineSet
228 1 m 1
 228 52 l 1
 273 118 321 173 372 215 c 1
 324 252 276 306 228 378 c 1
 228 429 l 1
 309 336 382 271 448 234 c 1
 448 196 l 1
 377 146 304 81 228 1 c 1
48 1 m 1
 48 52 l 1
 92 118 140 173 191 215 c 1
 142 252 95 306 48 378 c 1
 48 429 l 1
 128 336 201 271 266 234 c 1
 266 196 l 1
 196 146 123 81 48 1 c 1
EndSplineSet
Substitution2: "'case' Case-Sensitive Forms lookup 23 subtable" guillemotright.sc
Substitution2: "'c2sc' Capitals to Small Capitals lookup 9 subtable" guillemotright.sc
AlternateSubs2: "'aalt' Access All Alternates lookup 0 subtable" guillemotright.sc
EndChar

StartChar: onequarter
Encoding: 188 188 124
Width: 660
GlyphClass: 3
LigCaretCntFixed: 1
Flags: MW
HStem: 18 34<436 529 436 529 583.5 583.5 583.5 626> 581 20G<557 557>
VStem: 144 54<443 528 528 544> 529 54<18 157 52 129 129 132>
LayerCount: 2
Fore
SplineSet
144 443 m 2
 144 528 l 2
 144 560 144 570 132 570 c 0
 119 570 77 557 63 550 c 1
 53 579 l 1
 100 596 148 612 192 639 c 1
 198 639 l 2
 201 639 201 636 201 633 c 2
 201 633 198 599 198 569 c 2
 198 443 l 2
 198 389 199 356 205 315 c 1
 204 313 l 1
 204 313 195 315 170 315 c 0
 145 315 136 313 136 313 c 1
 135 315 l 1
 142 353 144 390 144 443 c 2
520 -81 m 1
 525.700195312 -50.2998046875 528.299804688 -20.2998046875 529 18 c 1
 385 18 l 1
 381 30 l 1
 535 248 l 1
 566 238 l 1
 521 169 458 86 436 52 c 1
 529 52 l 1
 529 129 l 2
 529 135 534 143 536 146 c 0
 543 155 555 167 562 167 c 0
 568 167 583 166 583 157 c 2
 583 52 l 1
 632 52 l 1
 626 18 l 1
 583.5 18 l 1
 584.200195312 -20 585.200195312 -47.900390625 590 -81 c 1
 589 -83 l 1
 589 -83 580 -81 555 -81 c 0
 530 -81 521 -83 521 -83 c 1
 520 -81 l 1
557 601 m 1
 598 593 l 1
 140 -62 l 1
 98 -54 l 1
 557 601 l 1
EndSplineSet
Ligature2: "'frac' Diagonal Fractions lookup 6 subtable" one slash four
LCarets2: 2 215 424
EndChar

StartChar: onehalf
Encoding: 189 189 125
Width: 660
GlyphClass: 3
LigCaretCntFixed: 1
Flags: MW
HStem: -79 34<465 536 536 542> 221 24<486.5 517> 581 20G<532 532>
VStem: 146 54<443 528 528 544> 403 62<-79 -29.5> 405 49<161.5 198.5> 561 59<139 184.5>
LayerCount: 2
Fore
SplineSet
146 443 m 2xf2
 146 528 l 2
 146 560 146 570 134 570 c 0
 121 570 79 557 65 550 c 1
 55 579 l 1
 102 596 150 612 194 639 c 1
 200 639 l 2
 203 639 203 636 203 633 c 2
 203 633 200 599 200 569 c 2
 200 443 l 2
 200 389 201 356 207 315 c 1
 206 313 l 1
 206 313 197 315 172 315 c 0
 147 315 138 313 138 313 c 1
 137 315 l 1
 144 353 146 390 146 443 c 2xf2
536 -45 m 2
 583 -45 596 -43 623 -41 c 1
 622 -47 621 -55 621 -61 c 0
 621 -67 622 -75 623 -81 c 1
 588 -79 577 -79 542 -79 c 2
 403 -79 l 1xfa
 403 -31 446 11 494 48 c 0
 539 84 561 107 561 161 c 0
 561 208 526 221 508 221 c 0
 465 221 454 205 454 192 c 0
 454 183 459 176 459 168 c 0
 459 152 441 144 431 144 c 0
 419 144 405 155 405 168 c 0xf6
 405 194 433 245 512 245 c 0
 562 245 620 226 620 162 c 0
 620 116 587 83 531 43 c 0
 489 13 465 -14 465 -45 c 1xfa
 536 -45 l 2
532 601 m 1
 574 593 l 1
 115 -62 l 1
 74 -54 l 1
 532 601 l 1
EndSplineSet
Ligature2: "'frac' Diagonal Fractions lookup 6 subtable" one slash two
LCarets2: 2 208 414
EndChar

StartChar: threequarters
Encoding: 190 190 126
Width: 660
GlyphClass: 3
LigCaretCntFixed: 1
Flags: MW
HStem: 20 34<440 533 440 533 587.5 587.5 587.5 630> 307 25<121 146.5 121 166> 476 24<113 115> 581 20G<562 562> 613 24<136 155.5>
VStem: 42 49 186 57<563.5 588.5> 213 59<387.5 442.5> 533 54<20 159 54 131 131 134>
LayerCount: 2
Fore
SplineSet
524 -79 m 1xfc80
 529.700195312 -48.2998046875 532.299804688 -18.2998046875 533 20 c 1
 389 20 l 1
 385 32 l 1
 539 250 l 1
 570 240 l 1
 525 171 462 88 440 54 c 1
 533 54 l 1
 533 131 l 2
 533 137 538 145 540 148 c 0
 547 157 559 169 566 169 c 0
 572 169 587 168 587 159 c 2
 587 54 l 1
 636 54 l 1
 630 20 l 1
 587.5 20 l 1
 588.200195312 -18 589.200195312 -45.900390625 594 -79 c 1
 593 -81 l 1
 593 -81 584 -79 559 -79 c 0
 534 -79 525 -81 525 -81 c 1
 524 -79 l 1xfc80
186 573 m 0xfe80
 186 604 165 613 146 613 c 0
 126 613 92 603 91 578 c 0
 90 566 88 549 65 549 c 0
 46 549 42 564 42 567 c 0
 42 584 71 637 158 637 c 0
 210 637 243 615 243 578 c 0xfe80
 243 549 221 526 192 510 c 1
 225 507 272 480 272 422 c 0
 272 353 206 307 126 307 c 0
 89 307 37 323 37 344 c 0
 37 354 50 364 61 364 c 0
 75 364 81 357 87 350 c 0
 95 340 105 332 137 332 c 0
 156 332 213 345 213 414 c 0xfd80
 213 471 159 478 135 478 c 0
 128 478 123 477 115 476 c 1
 113 500 l 1
 157 506 186 532 186 573 c 0xfe80
562 601 m 1
 603 593 l 1
 145 -62 l 1
 103 -54 l 1
 562 601 l 1
EndSplineSet
Ligature2: "'frac' Diagonal Fractions lookup 6 subtable" three slash four
LCarets2: 2 260 447
EndChar

StartChar: questiondown
Encoding: 191 191 127
Width: 405
GlyphClass: 2
Flags: MW
HStem: -230 40<182.5 238.25> 327 112<224 228 224 228>
VStem: 37 75<-107.5 -51.5 -107.5 -39.5> 170 112<381 385 381 385> 213 26<201 245>
LayerCount: 2
Fore
SplineSet
282 385 m 1xf0
 282 381 l 1
 272.799804688 354.5 258.200195312 339.200195312 228 327 c 1
 224 327 l 1
 195 337.5 179.200195312 352.799804688 170 381 c 1
 170 385 l 1
 180.200195312 417.200195312 195.799804688 432 224 439 c 1
 228 439 l 1
 259.200195312 432 273.200195312 418.5 282 385 c 1xf0
211 -190 m 0
 267 -190 308 -141 334 -96 c 1
 347 -97 l 1
 363 -164 l 1
 360 -168 l 1
 335.5 -188.5 274.5 -230 202 -230 c 0
 100 -230 37 -170 37 -79 c 0
 37 0 96 44 143 78 c 0
 166 95 186 111 195 128 c 0
 208 153 213 177 213 201 c 2
 213 245 l 2
 213 252 218 255 226 255 c 0
 234 255 239 252 239 245 c 2
 239 199 l 2xe8
 239 156 236.400390625 97.599609375 172 38 c 0
 132 1 112 -28 112 -75 c 0
 112 -140 154 -190 211 -190 c 0
EndSplineSet
Substitution2: "'case' Case-Sensitive Forms lookup 23 subtable" questiondown.sc
Substitution2: "'c2sc' Capitals to Small Capitals lookup 9 subtable" questiondown.sc
AlternateSubs2: "'aalt' Access All Alternates lookup 0 subtable" questiondown.sc
EndChar

StartChar: Agrave
Encoding: 192 192 128
Width: 639
GlyphClass: 2
Flags: MW
HStem: -3 21G<19.998 19.998> 230 44<294.749 321.849 292.549 330.999> 638 20G<314.998 342.998 342.998 342.998> 698 21G<372.999 380.999>
LayerCount: 2
Fore
SplineSet
411.299804688 275.5 m 1
 384.399414062 345.200195312 351.098632812 427.400390625 309.999023438 521.80078125 c 1
 307.999023438 521.80078125 l 1
 202.598632812 275.900390625 l 1
 234.298828125 275.5 278.098632812 274 306.999023438 274 c 0
 336.69921875 274 378.399414062 274.700195312 411.299804688 275.5 c 1
182.999023438 228.299804688 m 1
 147.298828125 140.799804688 116.3984375 58.2998046875 99.998046875 -3 c 1
 87.998046875 0 65.998046875 0 54.998046875 0 c 0
 43.998046875 0 31.998046875 0 19.998046875 -3 c 1
 314.998046875 658 l 1
 342.998046875 658 l 1
 434.998046875 439 566.998046875 98 616.998046875 -3 c 1
 599.998046875 0 573.998046875 0 556.998046875 0 c 0
 539.998046875 0 523.998046875 0 506.998046875 -3 c 1
 500.8984375 19.2001953125 478.298828125 97.2001953125 429.298828125 228.299804688 c 1
 391.598632812 229.200195312 349.999023438 230 311.999023438 230 c 0
 277.499023438 230 220.999023438 229.200195312 182.999023438 228.299804688 c 1
255.999023438 818 m 1
 376.999023438 734 l 2
 387.999023438 726 391.999023438 720 391.999023438 713 c 0
 391.999023438 705 384.999023438 698 376.999023438 698 c 0
 368.999023438 698 354.999023438 701 333.999023438 710 c 2
 179.999023438 773 l 1
 198.298828125 790.700195312 221.798828125 806.400390625 255.999023438 818 c 1
EndSplineSet
Substitution2: "'c2sc' Capitals to Small Capitals lookup 9 subtable" agrave.sc
AlternateSubs2: "'aalt' Access All Alternates lookup 0 subtable" agrave.sc
Position2: "'cpsp' Capital Spacing lookup 0 subtable" dx=5 dy=0 dh=10 dv=0
EndChar

StartChar: Aacute
Encoding: 193 193 129
Width: 639
GlyphClass: 2
Flags: MW
HStem: -3 21G<19.998 19.998> 230 44<294.749 321.849 292.549 330.999> 638 20G<314.998 342.998 342.998 342.998> 698 21G<238.499 247.499>
LayerCount: 2
Fore
SplineSet
411.299804688 275.5 m 1
 384.399414062 345.200195312 351.098632812 427.400390625 309.999023438 521.80078125 c 1
 307.999023438 521.80078125 l 1
 202.598632812 275.900390625 l 1
 234.298828125 275.5 278.098632812 274 306.999023438 274 c 0
 336.69921875 274 378.399414062 274.700195312 411.299804688 275.5 c 1
182.999023438 228.299804688 m 1
 147.298828125 140.799804688 116.3984375 58.2998046875 99.998046875 -3 c 1
 87.998046875 0 65.998046875 0 54.998046875 0 c 0
 43.998046875 0 31.998046875 0 19.998046875 -3 c 1
 314.998046875 658 l 1
 342.998046875 658 l 1
 434.998046875 439 566.998046875 98 616.998046875 -3 c 1
 599.998046875 0 573.998046875 0 556.998046875 0 c 0
 539.998046875 0 523.998046875 0 506.998046875 -3 c 1
 500.8984375 19.2001953125 478.298828125 97.2001953125 429.298828125 228.299804688 c 1
 391.598632812 229.200195312 349.999023438 230 311.999023438 230 c 0
 277.499023438 230 220.999023438 229.200195312 182.999023438 228.299804688 c 1
366.999023438 820 m 1
 395.598632812 806.700195312 416.298828125 789.299804688 428.999023438 768 c 1
 284.999023438 710 l 2
 263.999023438 701 251.999023438 698 242.999023438 698 c 0
 233.999023438 698 227.999023438 705 227.999023438 713 c 0
 227.999023438 720 229.999023438 725 242.999023438 734 c 2
 366.999023438 820 l 1
EndSplineSet
Substitution2: "'c2sc' Capitals to Small Capitals lookup 9 subtable" aacute.sc
AlternateSubs2: "'aalt' Access All Alternates lookup 0 subtable" aacute.sc
Position2: "'cpsp' Capital Spacing lookup 0 subtable" dx=5 dy=0 dh=10 dv=0
EndChar

StartChar: Acircumflex
Encoding: 194 194 130
Width: 639
GlyphClass: 2
Flags: MW
HStem: -3 21G<19.998 19.998> 230 44<294.749 321.849 292.549 330.999> 638 20G<314.998 342.998 342.998 342.998> 690 21G<208.999 222.999>
LayerCount: 2
Fore
SplineSet
411.299804688 275.5 m 1
 384.399414062 345.200195312 351.098632812 427.400390625 309.999023438 521.80078125 c 1
 307.999023438 521.80078125 l 1
 202.598632812 275.900390625 l 1
 234.298828125 275.5 278.098632812 274 306.999023438 274 c 0
 336.69921875 274 378.399414062 274.700195312 411.299804688 275.5 c 1
182.999023438 228.299804688 m 1
 147.298828125 140.799804688 116.3984375 58.2998046875 99.998046875 -3 c 1
 87.998046875 0 65.998046875 0 54.998046875 0 c 0
 43.998046875 0 31.998046875 0 19.998046875 -3 c 1
 314.998046875 658 l 1
 342.998046875 658 l 1
 434.998046875 439 566.998046875 98 616.998046875 -3 c 1
 599.998046875 0 573.998046875 0 556.998046875 0 c 0
 539.998046875 0 523.998046875 0 506.998046875 -3 c 1
 500.8984375 19.2001953125 478.298828125 97.2001953125 429.298828125 228.299804688 c 1
 391.598632812 229.200195312 349.999023438 230 311.999023438 230 c 0
 277.499023438 230 220.999023438 229.200195312 182.999023438 228.299804688 c 1
350.999023438 805 m 1
 380.999023438 769 415.999023438 738 451.999023438 711 c 1
 435.999023438 690 l 1
 396.999023438 708 362.999023438 727 329.999023438 752 c 1
 292.999023438 725 260.999023438 707 222.999023438 690 c 1
 208.999023438 711 l 1
 245.999023438 739 276.999023438 771 307.999023438 805 c 1
 350.999023438 805 l 1
EndSplineSet
Substitution2: "'c2sc' Capitals to Small Capitals lookup 9 subtable" acircumflex.sc
AlternateSubs2: "'aalt' Access All Alternates lookup 0 subtable" acircumflex.sc
Position2: "'cpsp' Capital Spacing lookup 0 subtable" dx=5 dy=0 dh=10 dv=0
EndChar

StartChar: Atilde
Encoding: 195 195 131
Width: 639
GlyphClass: 2
Flags: MW
HStem: -3 21G<19.998 19.998> 230 44<294.749 321.849 292.549 330.999> 638 20G<314.998 342.998 342.998 342.998> 700 44<384.499 403.999> 748 46<249.999 271.499>
VStem: 190 24 444 24
LayerCount: 2
Fore
SplineSet
411.299804688 275.5 m 1
 384.399414062 345.200195312 351.098632812 427.400390625 309.999023438 521.80078125 c 1
 307.999023438 521.80078125 l 1
 202.598632812 275.900390625 l 1
 234.298828125 275.5 278.098632812 274 306.999023438 274 c 0
 336.69921875 274 378.399414062 274.700195312 411.299804688 275.5 c 1
182.999023438 228.299804688 m 1
 147.298828125 140.799804688 116.3984375 58.2998046875 99.998046875 -3 c 1
 87.998046875 0 65.998046875 0 54.998046875 0 c 0
 43.998046875 0 31.998046875 0 19.998046875 -3 c 1
 314.998046875 658 l 1
 342.998046875 658 l 1
 434.998046875 439 566.998046875 98 616.998046875 -3 c 1
 599.998046875 0 573.998046875 0 556.998046875 0 c 0
 539.998046875 0 523.998046875 0 506.998046875 -3 c 1
 500.8984375 19.2001953125 478.298828125 97.2001953125 429.298828125 228.299804688 c 1
 391.598632812 229.200195312 349.999023438 230 311.999023438 230 c 0
 277.499023438 230 220.999023438 229.200195312 182.999023438 228.299804688 c 1
393.999023438 744 m 0
 415.999023438 744 429.999023438 754 443.999023438 796 c 1
 467.999023438 790 l 1
 455.999023438 730 426.999023438 700 380.999023438 700 c 0
 358.999023438 700 337.999023438 712 316.999023438 726 c 0
 298.999023438 737 279.999023438 748 262.999023438 748 c 0
 236.999023438 748 223.999023438 733 213.999023438 700 c 1
 189.999023438 705 l 1
 203.999023438 764 226.999023438 794 269.999023438 794 c 0
 299.999023438 794 321.999023438 780 341.999023438 766 c 0
 357.999023438 754 374.999023438 744 393.999023438 744 c 0
EndSplineSet
Substitution2: "'c2sc' Capitals to Small Capitals lookup 9 subtable" atilde.sc
AlternateSubs2: "'aalt' Access All Alternates lookup 0 subtable" atilde.sc
Position2: "'cpsp' Capital Spacing lookup 0 subtable" dx=5 dy=0 dh=10 dv=0
EndChar

StartChar: Adieresis
Encoding: 196 196 132
Width: 639
GlyphClass: 2
Flags: MW
HStem: -3 21G<19.998 19.998> 230 44<294.749 321.849 292.549 330.999> 638 20G<314.998 342.998 342.998 342.998> 664 90<193.499 218.499 433.499 458.499>
VStem: 160 91 400 91
LayerCount: 2
Fore
SplineSet
411.299804688 275.5 m 1
 384.399414062 345.200195312 351.098632812 427.400390625 309.999023438 521.80078125 c 1
 307.999023438 521.80078125 l 1
 202.598632812 275.900390625 l 1
 234.298828125 275.5 278.098632812 274 306.999023438 274 c 0
 336.69921875 274 378.399414062 274.700195312 411.299804688 275.5 c 1
182.999023438 228.299804688 m 1
 147.298828125 140.799804688 116.3984375 58.2998046875 99.998046875 -3 c 1
 87.998046875 0 65.998046875 0 54.998046875 0 c 0
 43.998046875 0 31.998046875 0 19.998046875 -3 c 1
 314.998046875 658 l 1
 342.998046875 658 l 1
 434.998046875 439 566.998046875 98 616.998046875 -3 c 1
 599.998046875 0 573.998046875 0 556.998046875 0 c 0
 539.998046875 0 523.998046875 0 506.998046875 -3 c 1
 500.8984375 19.2001953125 478.298828125 97.2001953125 429.298828125 228.299804688 c 1
 391.598632812 229.200195312 349.999023438 230 311.999023438 230 c 0
 277.499023438 230 220.999023438 229.200195312 182.999023438 228.299804688 c 1
399.999023438 709 m 0
 399.999023438 734 420.999023438 754 445.999023438 754 c 0
 470.999023438 754 490.999023438 734 490.999023438 709 c 0
 490.999023438 684 470.999023438 664 445.999023438 664 c 0
 420.999023438 664 399.999023438 684 399.999023438 709 c 0
159.999023438 709 m 0
 159.999023438 734 180.999023438 754 205.999023438 754 c 0
 230.999023438 754 250.999023438 734 250.999023438 709 c 0
 250.999023438 684 230.999023438 664 205.999023438 664 c 0
 180.999023438 664 159.999023438 684 159.999023438 709 c 0
EndSplineSet
Substitution2: "'ss01' Style Set 1 lookup 19 subtable" Adieresis.alt
Substitution2: "'c2sc' Capitals to Small Capitals lookup 9 subtable" adieresis.sc
AlternateSubs2: "'aalt' Access All Alternates lookup 0 subtable" adieresis.sc
Position2: "'cpsp' Capital Spacing lookup 0 subtable" dx=5 dy=0 dh=10 dv=0
EndChar

StartChar: Aring
Encoding: 197 197 133
Width: 639
GlyphClass: 2
Flags: MW
HStem: -3 21G<19.999 19.999> 230 44<294.75 321.849 292.549 331> 770 27<308.498 338.998>
VStem: 237 37 374 37 507 110
LayerCount: 2
Fore
SplineSet
411.299804688 275.5 m 1
 384.399414062 345.200195312 351.098632812 427.400390625 309.999023438 521.80078125 c 1
 307.999023438 521.80078125 l 1
 202.598632812 275.900390625 l 1
 234.298828125 275.5 278.098632812 274 306.999023438 274 c 0
 336.69921875 274 378.399414062 274.700195312 411.299804688 275.5 c 1
236.999023438 714 m 0
 236.999023438 760 277.998046875 797 323.998046875 797 c 0
 369.998046875 797 410.998046875 761 410.998046875 714 c 0
 410.998046875 678.299804688 386.498046875 647 352.3984375 635.599609375 c 1
 443.798828125 416.399414062 568.69921875 94.599609375 616.999023438 -3 c 1
 599.999023438 0 573.999023438 0 556.999023438 0 c 0
 539.999023438 0 523.999023438 0 506.999023438 -3 c 1
 500.899414062 19.2001953125 478.299804688 97.2001953125 429.299804688 228.299804688 c 1
 391.599609375 229.200195312 350 230 312 230 c 0
 277.5 230 221 229.200195312 183 228.299804688 c 1
 147.299804688 140.799804688 116.399414062 58.2998046875 99.9990234375 -3 c 1
 87.9990234375 0 65.9990234375 0 54.9990234375 0 c 0
 43.9990234375 0 31.9990234375 0 19.9990234375 -3 c 1
 303.999023438 633.299804688 l 1
 266.798828125 642.099609375 236.999023438 674.799804688 236.999023438 714 c 0
323.998046875 770 m 0
 292.998046875 770 273.998046875 744 273.998046875 714 c 0
 273.998046875 686 292.998046875 658 323.998046875 658 c 0
 354.998046875 658 373.998046875 686 373.998046875 714 c 0
 373.998046875 745 353.998046875 770 323.998046875 770 c 0
EndSplineSet
Substitution2: "'c2sc' Capitals to Small Capitals lookup 9 subtable" aring.sc
AlternateSubs2: "'aalt' Access All Alternates lookup 0 subtable" aring.sc
Position2: "'cpsp' Capital Spacing lookup 0 subtable" dx=5 dy=0 dh=10 dv=0
EndChar

StartChar: AE
Encoding: 198 198 134
Width: 802
GlyphClass: 2
Flags: MW
HStem: 0 55.8 280 44<324.351 343.95 322.6 350.651> 290.9 42.1 594.3 50.7
AnchorPoint: "Anchor-5" 322 700 basechar 0
AnchorPoint: "Anchor-4" 322 798 basechar 0
AnchorPoint: "Anchor-3" 270 -108 basechar 0
AnchorPoint: "Anchor-2" 58 8 basechar 0
LayerCount: 2
Fore
SplineSet
397.200195312 324.700195312 m 1xd0
 356.500976562 533.5 l 1
 354.500976562 533.5 l 1
 318.201171875 469.5 280.500976562 397.599609375 245.000976562 325.69921875 c 1
 274.600585938 325.099609375 310.200195312 324 335 324 c 0
 352.900390625 324 375.100585938 324.299804688 397.200195312 324.700195312 c 1xd0
222.000976562 278.5 m 1
 170.600585938 171.799804688 125.501953125 69.099609375 98.001953125 -3 c 1
 86.001953125 0 64.001953125 0 53.001953125 0 c 0
 42.001953125 0 30.001953125 0 18.001953125 -3 c 1
 124.001953125 200 221.001953125 410 366.001953125 645.700195312 c 1
 366.202148438 645.299804688 l 1
 368.001953125 648 l 1
 368.001953125 648 385.001953125 645 419.001953125 645 c 2
 632.001953125 645 l 2
 653.001953125 645 676.001953125 646 692.001953125 648 c 1
 694.001953125 645 l 1
 693.001953125 631 692.001953125 622 692.001953125 614 c 0
 692.001953125 605 693.001953125 596 694.001953125 588 c 1
 692.001953125 584 l 1
 692.001953125 584 614.702148438 594.299804688 509.001953125 594.299804688 c 0
 433.501953125 594.299804688 419.202148438 585.299804688 424.40234375 545.5 c 0
 438.602539062 475.099609375 454.602539062 402.399414062 470.702148438 332.999023438 c 1
 582.801757812 333.19921875 637.501953125 338.099609375 695.001953125 343 c 1
 698.001953125 340 l 1
 696.001953125 331 695.001953125 321 695.001953125 312 c 0
 695.001953125 303 696.001953125 293 698.001953125 284 c 1
 695.001953125 281 l 1
 633.702148438 287.200195312 535.40234375 290.299804688 480.501953125 290.899414062 c 1xb0
 502.001953125 199.899414062 523.001953125 116.899414062 539.501953125 55.7998046875 c 1
 639.301757812 59.2001953125 752.001953125 66 752.001953125 66 c 1
 754.001953125 62 l 1
 753.001953125 54 752.001953125 39 752.001953125 29 c 0
 752.001953125 19 753.001953125 14 754.001953125 0 c 1
 752.001953125 -3 l 1
 736.001953125 -1 713.001953125 0 692.001953125 0 c 2
 555.001953125 0 l 1
 553.501953125 0 l 1
 500.001953125 0 l 2
 483.001953125 0 467.001953125 0 450.001953125 -3 c 1
 450.001953125 32.7001953125 436.6015625 117.299804688 405.901367188 279.399414062 c 1
 383.701171875 279.799804688 361.30078125 280 340.000976562 280 c 0
 308.701171875 280 259.30078125 279.299804688 222.000976562 278.5 c 1
EndSplineSet
Substitution2: "'c2sc' Capitals to Small Capitals lookup 9 subtable" ae.sc
AlternateSubs2: "'aalt' Access All Alternates lookup 0 subtable" ae.sc
Position2: "'cpsp' Capital Spacing lookup 0 subtable" dx=5 dy=0 dh=10 dv=0
EndChar

StartChar: Ccedilla
Encoding: 199 199 135
Width: 682
GlyphClass: 2
Flags: MW
HStem: -204 29<339 364 339 385.5> -100 32<357.5 411> -9.8 50.8 611 47<325 411>
VStem: 52 103 400 62<-148 -124.5>
LayerCount: 2
Fore
SplineSet
367 -100 m 0
 348 -100 337.999023438 -101 321.999023438 -106 c 1
 315.999023438 -100 l 1
 353.69921875 -9.400390625 l 1
 153.399414062 1.5 51.9990234375 159.700195312 51.9990234375 315 c 0
 51.9990234375 512 210.999023438 658 379.999023438 658 c 0
 501.999023438 658 597.999023438 613 597.999023438 613 c 1
 599.999023438 610 l 1
 588.19921875 560.700195312 583.599609375 550 580 499 c 1
 570 498 l 1
 529 580 456 611 366 611 c 0
 284 611 155 537 155 334 c 0
 155 188 230 41 385 41 c 0
 478 41 527 66 598 144 c 1
 622 125 l 1
 556.799804688 39.599609375 479.599609375 -6.2001953125 387.799804688 -9.7998046875 c 1
 365 -71 l 1
 373 -69 382 -68 391 -68 c 0
 431 -68 462 -92 462 -130 c 0
 462 -173 416 -204 355 -204 c 0
 323 -204 306 -198 281 -187 c 1
 281 -175 284 -168 291 -161 c 1
 318 -171 329 -175 349 -175 c 0
 379 -175 400 -161 400 -135 c 0
 400 -114 390 -100 367 -100 c 0
EndSplineSet
Substitution2: "'c2sc' Capitals to Small Capitals lookup 9 subtable" ccedilla.sc
AlternateSubs2: "'aalt' Access All Alternates lookup 0 subtable" ccedilla.sc
Position2: "'cpsp' Capital Spacing lookup 0 subtable" dx=5 dy=0 dh=10 dv=0
EndChar

StartChar: Egrave
Encoding: 200 200 136
Width: 548
GlyphClass: 2
Flags: MW
HStem: 0 56<129.5 265 198 265 198 420> 317 50<190 214> 589 56<198 265> 697 21G<362 370>
VStem: 104 86<200 317 367 445>
AnchorPoint: "Anchor-3" 279 -107 basechar 0
AnchorPoint: "Anchor-2" 279 4 basechar 0
LayerCount: 2
Fore
SplineSet
245 817 m 1
 366 733 l 2
 377 725 381 719 381 712 c 0
 381 704 374 697 366 697 c 0
 358 697 344 700 323 709 c 2
 169 772 l 1
 187.299804688 789.700195312 210.799804688 805.400390625 245 817 c 1
190 200 m 2
 190 183 191 80 198 56 c 1
 332 56 480 68 480 68 c 1
 482 64 l 1
 481 56 480 41 480 31 c 0
 480 21 481 14 482 0 c 1
 480 -3 l 1
 464 -1 441 0 420 0 c 2
 147 0 l 2
 112 0 95 -3 95 -3 c 1
 94 0 l 1
 102 54 104 125 104 200 c 2
 104 445 l 2
 104 520 102 588 94 645 c 1
 96 648 l 1
 96 648 113 645 147 645 c 2
 410 645 l 2
 431 645 454 646 470 648 c 1
 472 645 l 1
 471 631 470 615 470 607 c 0
 470 598 471 589 472 581 c 1
 470 577 l 1
 470 577 332 589 198 589 c 1
 191 565 190 462 190 445 c 2
 190 367 l 1
 308 367 354 372 413 377 c 1
 416 374 l 1
 414 365 413 351 413 342 c 0
 413 333 414 319 416 310 c 1
 413 307 l 1
 344 314 238 317 190 317 c 1
 190 200 l 2
EndSplineSet
Substitution2: "'c2sc' Capitals to Small Capitals lookup 9 subtable" egrave.sc
AlternateSubs2: "'aalt' Access All Alternates lookup 0 subtable" egrave.sc
Position2: "'cpsp' Capital Spacing lookup 0 subtable" dx=5 dy=0 dh=10 dv=0
EndChar

StartChar: Eacute
Encoding: 201 201 137
Width: 548
GlyphClass: 2
Flags: MW
HStem: 0 56<129.5 265 198 265 198 420> 317 50<190 214> 589 56<198 265> 698 21G<221.5 230.5>
VStem: 104 86<200 317 367 445>
AnchorPoint: "Anchor-3" 279 -107 basechar 0
AnchorPoint: "Anchor-2" 279 4 basechar 0
LayerCount: 2
Fore
SplineSet
350 820 m 1
 378.599609375 806.700195312 399.299804688 789.299804688 412 768 c 1
 268 710 l 2
 247 701 235 698 226 698 c 0
 217 698 211 705 211 713 c 0
 211 720 213 725 226 734 c 2
 350 820 l 1
190 200 m 2
 190 183 191 80 198 56 c 1
 332 56 480 68 480 68 c 1
 482 64 l 1
 481 56 480 41 480 31 c 0
 480 21 481 14 482 0 c 1
 480 -3 l 1
 464 -1 441 0 420 0 c 2
 147 0 l 2
 112 0 95 -3 95 -3 c 1
 94 0 l 1
 102 54 104 125 104 200 c 2
 104 445 l 2
 104 520 102 588 94 645 c 1
 96 648 l 1
 96 648 113 645 147 645 c 2
 410 645 l 2
 431 645 454 646 470 648 c 1
 472 645 l 1
 471 631 470 615 470 607 c 0
 470 598 471 589 472 581 c 1
 470 577 l 1
 470 577 332 589 198 589 c 1
 191 565 190 462 190 445 c 2
 190 367 l 1
 308 367 354 372 413 377 c 1
 416 374 l 1
 414 365 413 351 413 342 c 0
 413 333 414 319 416 310 c 1
 413 307 l 1
 344 314 238 317 190 317 c 1
 190 200 l 2
EndSplineSet
Substitution2: "'c2sc' Capitals to Small Capitals lookup 9 subtable" eacute.sc
AlternateSubs2: "'aalt' Access All Alternates lookup 0 subtable" eacute.sc
Position2: "'cpsp' Capital Spacing lookup 0 subtable" dx=5 dy=0 dh=10 dv=0
EndChar

StartChar: Ecircumflex
Encoding: 202 202 138
Width: 548
GlyphClass: 2
Flags: MW
HStem: 0 56<129.5 265 198 265 198 420> 317 50<190 214> 589 56<198 265> 690 21G<175 189>
VStem: 104 86<200 317 367 445>
LayerCount: 2
Fore
SplineSet
190 200 m 2
 190 183 191 80 198 56 c 1
 332 56 480 68 480 68 c 1
 482 64 l 1
 481 56 480 41 480 31 c 0
 480 21 481 14 482 0 c 1
 480 -3 l 1
 464 -1 441 0 420 0 c 2
 147 0 l 2
 112 0 95 -3 95 -3 c 1
 94 0 l 1
 102 54 104 125 104 200 c 2
 104 445 l 2
 104 520 102 588 94 645 c 1
 96 648 l 1
 96 648 113 645 147 645 c 2
 410 645 l 2
 431 645 454 646 470 648 c 1
 472 645 l 1
 471 631 470 615 470 607 c 0
 470 598 471 589 472 581 c 1
 470 577 l 1
 470 577 332 589 198 589 c 1
 191 565 190 462 190 445 c 2
 190 367 l 1
 308 367 354 372 413 377 c 1
 416 374 l 1
 414 365 413 351 413 342 c 0
 413 333 414 319 416 310 c 1
 413 307 l 1
 344 314 238 317 190 317 c 1
 190 200 l 2
317 805 m 1
 347 769 382 738 418 711 c 1
 402 690 l 1
 363 708 329 727 296 752 c 1
 259 725 227 707 189 690 c 1
 175 711 l 1
 212 739 243 771 274 805 c 1
 317 805 l 1
EndSplineSet
Substitution2: "'c2sc' Capitals to Small Capitals lookup 9 subtable" ecircumflex.sc
AlternateSubs2: "'aalt' Access All Alternates lookup 0 subtable" ecircumflex.sc
Position2: "'cpsp' Capital Spacing lookup 0 subtable" dx=5 dy=0 dh=10 dv=0
EndChar

StartChar: Edieresis
Encoding: 203 203 139
Width: 548
GlyphClass: 2
Flags: MW
HStem: 0 56<129.5 265 198 265 198 420> 317 50<190 214> 589 56<198 265> 703 96<180 206 369 395>
VStem: 104 86<200 317 367 445> 145 96<738 764> 334 96<738 764>
LayerCount: 2
Fore
SplineSet
190 200 m 2xfa
 190 183 191 80 198 56 c 1
 332 56 480 68 480 68 c 1
 482 64 l 1
 481 56 480 41 480 31 c 0
 480 21 481 14 482 0 c 1
 480 -3 l 1
 464 -1 441 0 420 0 c 2
 147 0 l 2
 112 0 95 -3 95 -3 c 1
 94 0 l 1
 102 54 104 125 104 200 c 2
 104 445 l 2
 104 520 102 588 94 645 c 1
 96 648 l 1
 96 648 113 645 147 645 c 2
 410 645 l 2
 431 645 454 646 470 648 c 1
 472 645 l 1
 471 631 470 615 470 607 c 0
 470 598 471 589 472 581 c 1
 470 577 l 1
 470 577 332 589 198 589 c 1
 191 565 190 462 190 445 c 2
 190 367 l 1
 308 367 354 372 413 377 c 1
 416 374 l 1
 414 365 413 351 413 342 c 0
 413 333 414 319 416 310 c 1
 413 307 l 1
 344 314 238 317 190 317 c 1
 190 200 l 2xfa
145 751 m 0xf6
 145 777 167 799 193 799 c 0
 219 799 241 777 241 751 c 0
 241 725 219 703 193 703 c 0
 167 703 145 725 145 751 c 0xf6
334 751 m 0
 334 777 356 799 382 799 c 0
 408 799 430 777 430 751 c 0
 430 725 408 703 382 703 c 0
 356 703 334 725 334 751 c 0
EndSplineSet
Substitution2: "'c2sc' Capitals to Small Capitals lookup 9 subtable" edieresis.sc
AlternateSubs2: "'aalt' Access All Alternates lookup 0 subtable" edieresis.sc
Position2: "'cpsp' Capital Spacing lookup 0 subtable" dx=5 dy=0 dh=10 dv=0
EndChar

StartChar: Igrave
Encoding: 204 204 140
Width: 294
GlyphClass: 2
Flags: MW
HStem: -3 21G<95 95 198 198> 628 20G<96 96 199 199> 697 21G<216 224>
VStem: 104 86<200 445>
LayerCount: 2
Fore
SplineSet
99 817 m 1
 220 733 l 2
 231 725 235 719 235 712 c 0
 235 704 228 697 220 697 c 0
 212 697 198 700 177 709 c 2
 23 772 l 1
 41.2998046875 789.700195312 64.7998046875 805.400390625 99 817 c 1
104 445 m 2
 104 520 102 588 94 645 c 1
 96 648 l 1
 96 648 113 645 147 645 c 0
 182 645 199 648 199 648 c 1
 200 645 l 1
 192 592 190 520 190 445 c 2
 190 200 l 2
 190 125 192 57 200 0 c 1
 198 -3 l 1
 198 -3 181 0 147 0 c 0
 112 0 95 -3 95 -3 c 1
 94 0 l 1
 102 54 104 125 104 200 c 2
 104 445 l 2
EndSplineSet
Substitution2: "'c2sc' Capitals to Small Capitals lookup 9 subtable" igrave.sc
AlternateSubs2: "'aalt' Access All Alternates lookup 0 subtable" igrave.sc
Position2: "'cpsp' Capital Spacing lookup 0 subtable" dx=5 dy=0 dh=10 dv=0
EndChar

StartChar: Iacute
Encoding: 205 205 141
Width: 294
GlyphClass: 2
Flags: MW
HStem: -3 21G<95 95 198 198> 628 20G<96 96 199 199> 697 21G<81.5 90.5>
VStem: 104 86<200 445>
LayerCount: 2
Fore
SplineSet
210 819 m 1
 238.599609375 805.700195312 259.299804688 788.299804688 272 767 c 1
 128 709 l 2
 107 700 95 697 86 697 c 0
 77 697 71 704 71 712 c 0
 71 719 73 724 86 733 c 2
 210 819 l 1
104 445 m 2
 104 520 102 588 94 645 c 1
 96 648 l 1
 96 648 113 645 147 645 c 0
 182 645 199 648 199 648 c 1
 200 645 l 1
 192 592 190 520 190 445 c 2
 190 200 l 2
 190 125 192 57 200 0 c 1
 198 -3 l 1
 198 -3 181 0 147 0 c 0
 112 0 95 -3 95 -3 c 1
 94 0 l 1
 102 54 104 125 104 200 c 2
 104 445 l 2
EndSplineSet
Substitution2: "'c2sc' Capitals to Small Capitals lookup 9 subtable" iacute.sc
AlternateSubs2: "'aalt' Access All Alternates lookup 0 subtable" iacute.sc
Position2: "'cpsp' Capital Spacing lookup 0 subtable" dx=5 dy=0 dh=10 dv=0
EndChar

StartChar: Icircumflex
Encoding: 206 206 142
Width: 294
GlyphClass: 2
Flags: MW
HStem: -3 21G<95 95 198 198> 628 20G<96 96 199 199> 690 21G<25 39>
VStem: 104 86<200 445>
LayerCount: 2
Fore
SplineSet
104 445 m 2
 104 520 102 588 94 645 c 1
 96 648 l 1
 96 648 113 645 147 645 c 0
 182 645 199 648 199 648 c 1
 200 645 l 1
 192 592 190 520 190 445 c 2
 190 200 l 2
 190 125 192 57 200 0 c 1
 198 -3 l 1
 198 -3 181 0 147 0 c 0
 112 0 95 -3 95 -3 c 1
 94 0 l 1
 102 54 104 125 104 200 c 2
 104 445 l 2
167 805 m 1
 197 769 232 738 268 711 c 1
 252 690 l 1
 213 708 179 727 146 752 c 1
 109 725 77 707 39 690 c 1
 25 711 l 1
 62 739 93 771 124 805 c 1
 167 805 l 1
EndSplineSet
Substitution2: "'c2sc' Capitals to Small Capitals lookup 9 subtable" icircumflex.sc
AlternateSubs2: "'aalt' Access All Alternates lookup 0 subtable" icircumflex.sc
Position2: "'cpsp' Capital Spacing lookup 0 subtable" dx=5 dy=0 dh=10 dv=0
EndChar

StartChar: Idieresis
Encoding: 207 207 143
Width: 294
GlyphClass: 2
Flags: MW
HStem: -3 21G<95 95 198 198> 628 20G<96 96 199 199> 702 96<48 74 237 263>
VStem: 13 96<737 763> 104 86<200 445> 202 96<737 763>
LayerCount: 2
Fore
SplineSet
104 445 m 2xec
 104 520 102 588 94 645 c 1
 96 648 l 1
 96 648 113 645 147 645 c 0
 182 645 199 648 199 648 c 1
 200 645 l 1
 192 592 190 520 190 445 c 2
 190 200 l 2
 190 125 192 57 200 0 c 1
 198 -3 l 1
 198 -3 181 0 147 0 c 0
 112 0 95 -3 95 -3 c 1
 94 0 l 1
 102 54 104 125 104 200 c 2
 104 445 l 2xec
13 750 m 0xf4
 13 776 35 798 61 798 c 0
 87 798 109 776 109 750 c 0
 109 724 87 702 61 702 c 0
 35 702 13 724 13 750 c 0xf4
202 750 m 0
 202 776 224 798 250 798 c 0
 276 798 298 776 298 750 c 0
 298 724 276 702 250 702 c 0
 224 702 202 724 202 750 c 0
EndSplineSet
Substitution2: "'c2sc' Capitals to Small Capitals lookup 9 subtable" idieresis.sc
AlternateSubs2: "'aalt' Access All Alternates lookup 0 subtable" idieresis.sc
Position2: "'cpsp' Capital Spacing lookup 0 subtable" dx=5 dy=0 dh=10 dv=0
EndChar

StartChar: Eth
Encoding: 208 208 144
Width: 710
GlyphClass: 2
Flags: MW
HStem: -2 44<278.5 369.5 250 400.5> 287 39<17 104 17 104 190 288> 604 44<280 382>
VStem: 104 86<200 287 326 445 445 482.5> 555 103<185 361>
LayerCount: 2
Fore
SplineSet
147 645 m 0
 211 645 248 648 312 648 c 0
 504 648 658 494 658 308 c 0
 658 62 471 -2 330 -2 c 0
 227 -2 218 0 147 0 c 0
 112 0 95 -3 95 -3 c 1
 94 0 l 1
 102 54 104 125 104 200 c 2
 104 287 l 1
 17 287 l 1
 17 326 l 1
 104 326 l 1
 104 445 l 2
 104 520 102 588 94 645 c 1
 96 648 l 1
 96 648 113 645 147 645 c 0
190 82 m 2
 190 50 201 42 299 42 c 0
 440 42 555 82 555 284 c 0
 555 438 490 604 274 604 c 0
 225 604 190 599 190 564 c 2
 190 326 l 1
 288 326 l 1
 288 287 l 1
 190 287 l 1
 190 82 l 2
EndSplineSet
Substitution2: "'c2sc' Capitals to Small Capitals lookup 9 subtable" eth.sc
AlternateSubs2: "'aalt' Access All Alternates lookup 0 subtable" eth.sc
Position2: "'cpsp' Capital Spacing lookup 0 subtable" dx=5 dy=0 dh=10 dv=0
EndChar

StartChar: Ntilde
Encoding: 209 209 145
Width: 718
GlyphClass: 2
Flags: MW
HStem: -3 21G<85 85 170 170> 628 20G<553 553 633 633> 698 44 746 46
VStem: 99 63 213 24<697.999 702.999> 467 24<787.999 793.999> 561 53 561 73
LayerCount: 2
Fore
SplineSet
99 645 m 1xff
 101 647.999023438 l 1
 101 647.999023438 118 644.999023438 152 644.999023438 c 0
 156.5 644.999023438 166 646.999023438 166 646.999023438 c 1
 509 202.999023438 l 2
 552.299804688 146.899414062 561 123.599609375 561 178 c 2xff
 561 445 l 2
 561 520 559 588 551 645 c 1
 553 648 l 1
 553 648 573.700195312 645 598 645 c 0
 620.299804688 645 633 648 633 648 c 1
 634 645 l 1xfe80
 618 423 619 249 614 21 c 0
 613 2 607 -10 593 -10 c 0
 577 -10 561 -1 550 14 c 2
 201 455 l 2
 163.900390625 503 162 500 162 439 c 2
 162 200 l 2
 162 125 164 57 172 0 c 1
 170 -3 l 1
 170 -3 144.299804688 0 120 0 c 0
 97.7001953125 0 85 -3 85 -3 c 1
 84 0 l 1
 100 159 108 455 99 645 c 1xff
417 741.999023438 m 0
 439 741.999023438 453 751.999023438 467 793.999023438 c 1
 491 787.999023438 l 1
 479 727.999023438 450 697.999023438 404 697.999023438 c 0
 382 697.999023438 361 709.999023438 340 723.999023438 c 0
 322 734.999023438 303 745.999023438 286 745.999023438 c 0
 260 745.999023438 247 730.999023438 237 697.999023438 c 1
 213 702.999023438 l 1
 227 761.999023438 250 791.999023438 293 791.999023438 c 0
 323 791.999023438 345 777.999023438 365 763.999023438 c 0
 381 751.999023438 398 741.999023438 417 741.999023438 c 0
EndSplineSet
Substitution2: "'c2sc' Capitals to Small Capitals lookup 9 subtable" ntilde.sc
AlternateSubs2: "'aalt' Access All Alternates lookup 0 subtable" ntilde.sc
Position2: "'cpsp' Capital Spacing lookup 0 subtable" dx=5 dy=0 dh=10 dv=0
EndChar

StartChar: Ograve
Encoding: 210 210 146
Width: 741
GlyphClass: 2
Flags: MW
HStem: -10 44<329 446 329 464.5> 614 44<307 425.5> 699 21G<421 429>
VStem: 52 103<231 408> 586 103<229 414>
LayerCount: 2
Fore
SplineSet
304 819 m 1
 425 735 l 2
 436 727 440 721 440 714 c 0
 440 706 433 699 425 699 c 0
 417 699 403 702 382 711 c 2
 228 774 l 1
 246.299804688 791.700195312 269.799804688 807.400390625 304 819 c 1
689 329 m 0
 689 129 560 -10 369 -10 c 0
 197 -10 52 113 52 310 c 0
 52 506 189 658 368 658 c 0
 548 658 689 527 689 329 c 0
355 614 m 0
 259 614 155 537 155 327 c 0
 155 135 269 34 389 34 c 0
 503 34 586 131 586 310 c 0
 586 518 496 614 355 614 c 0
EndSplineSet
Substitution2: "'c2sc' Capitals to Small Capitals lookup 9 subtable" ograve.sc
AlternateSubs2: "'aalt' Access All Alternates lookup 0 subtable" ograve.sc
Position2: "'cpsp' Capital Spacing lookup 0 subtable" dx=5 dy=0 dh=10 dv=0
EndChar

StartChar: Oacute
Encoding: 211 211 147
Width: 741
GlyphClass: 2
Flags: MW
HStem: -10 44<329 446 329 464.5> 614 44<307 425.5> 698 21G<258.5 267.5>
VStem: 52 103<231 408> 586 103<229 414>
LayerCount: 2
Fore
SplineSet
387 820 m 1
 415.599609375 806.700195312 436.299804688 789.299804688 449 768 c 1
 305 710 l 2
 284 701 272 698 263 698 c 0
 254 698 248 705 248 713 c 0
 248 720 250 725 263 734 c 2
 387 820 l 1
689 329 m 0
 689 129 560 -10 369 -10 c 0
 197 -10 52 113 52 310 c 0
 52 506 189 658 368 658 c 0
 548 658 689 527 689 329 c 0
355 614 m 0
 259 614 155 537 155 327 c 0
 155 135 269 34 389 34 c 0
 503 34 586 131 586 310 c 0
 586 518 496 614 355 614 c 0
EndSplineSet
Substitution2: "'c2sc' Capitals to Small Capitals lookup 9 subtable" oacute.sc
AlternateSubs2: "'aalt' Access All Alternates lookup 0 subtable" oacute.sc
Position2: "'cpsp' Capital Spacing lookup 0 subtable" dx=5 dy=0 dh=10 dv=0
EndChar

StartChar: Ocircumflex
Encoding: 212 212 148
Width: 741
GlyphClass: 2
Flags: MW
HStem: -10 44<329 446 329 464.5> 614 44<307 425.5> 690 21G<246 260>
VStem: 52 103<231 408> 586 103<229 414>
LayerCount: 2
Fore
SplineSet
689 329 m 0
 689 129 560 -10 369 -10 c 0
 197 -10 52 113 52 310 c 0
 52 506 189 658 368 658 c 0
 548 658 689 527 689 329 c 0
355 614 m 0
 259 614 155 537 155 327 c 0
 155 135 269 34 389 34 c 0
 503 34 586 131 586 310 c 0
 586 518 496 614 355 614 c 0
388 805 m 1
 418 769 453 738 489 711 c 1
 473 690 l 1
 434 708 400 727 367 752 c 1
 330 725 298 707 260 690 c 1
 246 711 l 1
 283 739 314 771 345 805 c 1
 388 805 l 1
EndSplineSet
Substitution2: "'c2sc' Capitals to Small Capitals lookup 9 subtable" ocircumflex.sc
AlternateSubs2: "'aalt' Access All Alternates lookup 0 subtable" ocircumflex.sc
Position2: "'cpsp' Capital Spacing lookup 0 subtable" dx=5 dy=0 dh=10 dv=0
EndChar

StartChar: Otilde
Encoding: 213 213 149
Width: 741
GlyphClass: 2
Flags: MW
HStem: -10 44<329 446 329 464.5> 614 44<307 425.5> 698 44<415.5 435> 746 46<281 302.5>
VStem: 52 103<231 408> 221 24<698 703> 475 24<788 794> 586 103<229 414>
LayerCount: 2
Fore
SplineSet
689 329 m 0
 689 129 560 -10 369 -10 c 0
 197 -10 52 113 52 310 c 0
 52 506 189 658 368 658 c 0
 548 658 689 527 689 329 c 0
355 614 m 0
 259 614 155 537 155 327 c 0
 155 135 269 34 389 34 c 0
 503 34 586 131 586 310 c 0
 586 518 496 614 355 614 c 0
425 742 m 0
 447 742 461 752 475 794 c 1
 499 788 l 1
 487 728 458 698 412 698 c 0
 390 698 369 710 348 724 c 0
 330 735 311 746 294 746 c 0
 268 746 255 731 245 698 c 1
 221 703 l 1
 235 762 258 792 301 792 c 0
 331 792 353 778 373 764 c 0
 389 752 406 742 425 742 c 0
EndSplineSet
Substitution2: "'c2sc' Capitals to Small Capitals lookup 9 subtable" otilde.sc
AlternateSubs2: "'aalt' Access All Alternates lookup 0 subtable" otilde.sc
Position2: "'cpsp' Capital Spacing lookup 0 subtable" dx=5 dy=0 dh=10 dv=0
EndChar

StartChar: Odieresis
Encoding: 214 214 150
Width: 741
GlyphClass: 2
Flags: MW
HStem: -10 44<329 446 329 464.5> 614 44<307 425.5> 664 90<157.5 182.5 556.5 581.5>
VStem: 52 103<231 408> 124 91<696.5 721.5> 524 90<696.5 721.5> 586 103<229 414>
LayerCount: 2
Fore
SplineSet
689 329 m 0xf2
 689 129 560 -10 369 -10 c 0
 197 -10 52 113 52 310 c 0
 52 506 189 658 368 658 c 0
 548 658 689 527 689 329 c 0xf2
355 614 m 0
 259 614 155 537 155 327 c 0
 155 135 269 34 389 34 c 0
 503 34 586 131 586 310 c 0
 586 518 496 614 355 614 c 0
524 709 m 0xe4
 524 734 544 754 569 754 c 0
 594 754 614 734 614 709 c 0
 614 684 594 664 569 664 c 0
 544 664 524 684 524 709 c 0xe4
124 709 m 0xe8
 124 734 145 754 170 754 c 0
 195 754 215 734 215 709 c 0
 215 684 195 664 170 664 c 0
 145 664 124 684 124 709 c 0xe8
EndSplineSet
Substitution2: "'ss01' Style Set 1 lookup 19 subtable" Odieresis.alt
Substitution2: "'c2sc' Capitals to Small Capitals lookup 9 subtable" odieresis.sc
AlternateSubs2: "'aalt' Access All Alternates lookup 0 subtable" odieresis.sc
Position2: "'cpsp' Capital Spacing lookup 0 subtable" dx=5 dy=0 dh=10 dv=0
EndChar

StartChar: multiply
Encoding: 215 215 151
Width: 527
GlyphClass: 2
Flags: W
LayerCount: 2
Fore
SplineSet
298 230 m 1
 421 108 l 1
 386 73 l 1
 264 195 l 1
 142 73 l 1
 106 108 l 1
 229 230 l 1
 106 353 l 1
 142 388 l 1
 264 265 l 1
 386 388 l 1
 421 353 l 1
 298 230 l 1
EndSplineSet
EndChar

StartChar: Oslash
Encoding: 216 216 152
Width: 741
GlyphClass: 2
Flags: MW
HStem: -10 44 614 44
VStem: 52 103 586 103
LayerCount: 2
Fore
SplineSet
538.5 518.599609375 m 1
 216.599609375 121.098632812 l 1
 260.899414062 63.4990234375 324.099609375 33.9990234375 389 33.9990234375 c 0
 503 33.9990234375 586 130.999023438 586 309.999023438 c 0
 586 400.19921875 569.099609375 469.19921875 538.5 518.599609375 c 1
355 613.999023438 m 0
 259 613.999023438 155.000976562 536.999023438 155.000976562 326.999023438 c 0
 155.000976562 262.19921875 168.000976562 207.798828125 189.80078125 164.098632812 c 1
 508.600585938 556.499023438 l 1
 469.600585938 595.298828125 417.200195312 613.999023438 355 613.999023438 c 0
108.000976562 -13.0009765625 m 1
 89.0009765625 -13.0009765625 75.0009765625 3.9990234375 72.0009765625 18.9990234375 c 1
 131.000976562 91.5986328125 l 1
 82.1005859375 145.999023438 52.0009765625 220.298828125 52.0009765625 309.999023438 c 0
 52.0009765625 505.999023438 189.000976562 657.999023438 368.000976562 657.999023438 c 0
 435.600585938 657.999023438 497.600585938 639.499023438 548.80078125 605.999023438 c 1
 591.000976562 657.999023438 l 1
 610.000976562 657.999023438 624.701171875 642.899414062 627.000976562 627.999023438 c 1
 586.000976562 577.298828125 l 1
 649.701171875 519.499023438 689.000976562 433.598632812 689.000976562 328.999023438 c 0
 689.000976562 128.999023438 560.000976562 -10.0009765625 369.000976562 -10.0009765625 c 0
 292.500976562 -10.0009765625 221.401367188 14.298828125 166.000976562 58.5986328125 c 1
 108.000976562 -13.0009765625 l 1
EndSplineSet
Substitution2: "'c2sc' Capitals to Small Capitals lookup 9 subtable" oslash.sc
AlternateSubs2: "'aalt' Access All Alternates lookup 0 subtable" oslash.sc
Position2: "'cpsp' Capital Spacing lookup 0 subtable" dx=5 dy=0 dh=10 dv=0
EndChar

StartChar: Ugrave
Encoding: 217 217 153
Width: 692
GlyphClass: 2
Flags: MW
HStem: -10 56<292 439.5> 628 20G<96 96 199 199 537 537 607 607> 698 21G<453 461>
VStem: 104 86<242 269 269 445> 545 53<277 295 295 445>
LayerCount: 2
Fore
SplineSet
336 818 m 1
 457 734 l 2
 468 726 472 720 472 713 c 0
 472 705 465 698 457 698 c 0
 449 698 435 701 414 710 c 2
 260 773 l 1
 278.299804688 790.700195312 301.799804688 806.400390625 336 818 c 1
545 445 m 2
 545 520 543 588 535 645 c 1
 537 648 l 1
 537 648 547.700195312 645 572 645 c 0
 594.299804688 645 607 648 607 648 c 1
 608 645 l 1
 600 592 598 520 598 445 c 2
 598 295 l 2
 598 117 542 -10 337 -10 c 0
 247 -10 104 32 104 236 c 2
 104 445 l 2
 104 520 102 588 94 645 c 1
 96 648 l 1
 96 648 113 645 147 645 c 0
 182 645 199 648 199 648 c 1
 200 645 l 1
 192 592 190 520 190 445 c 2
 190 269 l 2
 190 215 190 46 358 46 c 0
 527 46 545 165 545 277 c 2
 545 445 l 2
EndSplineSet
Substitution2: "'c2sc' Capitals to Small Capitals lookup 9 subtable" ugrave.sc
AlternateSubs2: "'aalt' Access All Alternates lookup 0 subtable" ugrave.sc
Position2: "'cpsp' Capital Spacing lookup 0 subtable" dx=5 dy=0 dh=10 dv=0
EndChar

StartChar: Uacute
Encoding: 218 218 154
Width: 692
GlyphClass: 2
Flags: MW
HStem: -10 56<292 439.5> 628 20G<96 96 199 199 537 537 607 607> 697 21G<296.5 305.5>
VStem: 104 86<242 269 269 445> 545 53<277 295 295 445>
LayerCount: 2
Fore
SplineSet
425 819 m 1
 453.599609375 805.700195312 474.299804688 788.299804688 487 767 c 1
 343 709 l 2
 322 700 310 697 301 697 c 0
 292 697 286 704 286 712 c 0
 286 719 288 724 301 733 c 2
 425 819 l 1
545 445 m 2
 545 520 543 588 535 645 c 1
 537 648 l 1
 537 648 547.700195312 645 572 645 c 0
 594.299804688 645 607 648 607 648 c 1
 608 645 l 1
 600 592 598 520 598 445 c 2
 598 295 l 2
 598 117 542 -10 337 -10 c 0
 247 -10 104 32 104 236 c 2
 104 445 l 2
 104 520 102 588 94 645 c 1
 96 648 l 1
 96 648 113 645 147 645 c 0
 182 645 199 648 199 648 c 1
 200 645 l 1
 192 592 190 520 190 445 c 2
 190 269 l 2
 190 215 190 46 358 46 c 0
 527 46 545 165 545 277 c 2
 545 445 l 2
EndSplineSet
Substitution2: "'c2sc' Capitals to Small Capitals lookup 9 subtable" uacute.sc
AlternateSubs2: "'aalt' Access All Alternates lookup 0 subtable" uacute.sc
Position2: "'cpsp' Capital Spacing lookup 0 subtable" dx=5 dy=0 dh=10 dv=0
EndChar

StartChar: Ucircumflex
Encoding: 219 219 155
Width: 692
GlyphClass: 2
Flags: MW
HStem: -10 56<292 439.5> 628 20G<96 96 199 199 537 537 607 607> 690 21G<258 272>
VStem: 104 86<242 269 269 445> 545 53<277 295 295 445>
LayerCount: 2
Fore
SplineSet
400 805 m 1
 430 769 465 738 501 711 c 1
 485 690 l 1
 446 708 412 727 379 752 c 1
 342 725 310 707 272 690 c 1
 258 711 l 1
 295 739 326 771 357 805 c 1
 400 805 l 1
545 445 m 2
 545 520 543 588 535 645 c 1
 537 648 l 1
 537 648 547.700195312 645 572 645 c 0
 594.299804688 645 607 648 607 648 c 1
 608 645 l 1
 600 592 598 520 598 445 c 2
 598 295 l 2
 598 117 542 -10 337 -10 c 0
 247 -10 104 32 104 236 c 2
 104 445 l 2
 104 520 102 588 94 645 c 1
 96 648 l 1
 96 648 113 645 147 645 c 0
 182 645 199 648 199 648 c 1
 200 645 l 1
 192 592 190 520 190 445 c 2
 190 269 l 2
 190 215 190 46 358 46 c 0
 527 46 545 165 545 277 c 2
 545 445 l 2
EndSplineSet
Substitution2: "'c2sc' Capitals to Small Capitals lookup 9 subtable" ucircumflex.sc
AlternateSubs2: "'aalt' Access All Alternates lookup 0 subtable" ucircumflex.sc
Position2: "'cpsp' Capital Spacing lookup 0 subtable" dx=5 dy=0 dh=10 dv=0
EndChar

StartChar: Udieresis
Encoding: 220 220 156
Width: 692
GlyphClass: 2
Flags: MW
HStem: -10 56<292 439.5> 628 20G<96 96 199 199 537 537 607 607> 664 90<283.5 308.5 447.5 472.5>
VStem: 104 86<242 269 269 445> 251 90<696.5 721.5> 415 90<696.5 721.5> 545 53<277 295 295 445>
LayerCount: 2
Fore
SplineSet
545 445 m 2
 545 520 543 588 535 645 c 1
 537 648 l 1
 537 648 547.700195312 645 572 645 c 0
 594.299804688 645 607 648 607 648 c 1
 608 645 l 1
 600 592 598 520 598 445 c 2
 598 295 l 2
 598 117 542 -10 337 -10 c 0
 247 -10 104 32 104 236 c 2
 104 445 l 2
 104 520 102 588 94 645 c 1
 96 648 l 1
 96 648 113 645 147 645 c 0
 182 645 199 648 199 648 c 1
 200 645 l 1
 192 592 190 520 190 445 c 2
 190 269 l 2
 190 215 190 46 358 46 c 0
 527 46 545 165 545 277 c 2
 545 445 l 2
415 709 m 0
 415 734 435 754 460 754 c 0
 485 754 505 734 505 709 c 0
 505 684 485 664 460 664 c 0
 435 664 415 684 415 709 c 0
251 709 m 0
 251 734 271 754 296 754 c 0
 321 754 341 734 341 709 c 0
 341 684 321 664 296 664 c 0
 271 664 251 684 251 709 c 0
EndSplineSet
Substitution2: "'ss01' Style Set 1 lookup 19 subtable" Udieresis.alt
Substitution2: "'c2sc' Capitals to Small Capitals lookup 9 subtable" udieresis.sc
AlternateSubs2: "'aalt' Access All Alternates lookup 0 subtable" udieresis.sc
Position2: "'cpsp' Capital Spacing lookup 0 subtable" dx=5 dy=0 dh=10 dv=0
EndChar

StartChar: Yacute
Encoding: 221 221 157
Width: 575
GlyphClass: 2
Flags: MW
HStem: -3 21G 628 20G 698 21G
VStem: 246 88.3
LayerCount: 2
Fore
SplineSet
334.299804688 285.599609375 m 1
 335.200195312 186.5 337.900390625 44.90234375 342 -2.998046875 c 1
 326 0.001953125 305 0.001953125 290 0.001953125 c 0
 275 0.001953125 255 0.001953125 239 -2.998046875 c 1
 244.700195312 52.501953125 245.799804688 177.501953125 246 275.1015625 c 1
 207.900390625 340.201171875 56 588.000976562 16 648.000976562 c 1
 33 645.000976562 56 645.000976562 73 645.000976562 c 0
 90 645.000976562 113 645.000976562 130 648.000976562 c 1
 183.700195312 542.600585938 242 448.700195312 305.200195312 340.200195312 c 1
 363 431.100585938 429.5 543.200195312 480 648 c 1
 492 645 509 645 522 645 c 0
 534 645 551 645 564 648 c 1
 443.299804688 463.5 375.299804688 365.5 334.299804688 285.599609375 c 1
360 820.001953125 m 1
 388.599609375 806.702148438 409.299804688 789.301757812 422 768.001953125 c 1
 278 710.001953125 l 2
 257 701.001953125 245 698.001953125 236 698.001953125 c 0
 227 698.001953125 221 705.001953125 221 713.001953125 c 0
 221 720.001953125 223 725.001953125 236 734.001953125 c 2
 360 820.001953125 l 1
EndSplineSet
Substitution2: "'c2sc' Capitals to Small Capitals lookup 9 subtable" yacute.sc
AlternateSubs2: "'aalt' Access All Alternates lookup 0 subtable" yacute.sc
Position2: "'cpsp' Capital Spacing lookup 0 subtable" dx=5 dy=0 dh=10 dv=0
EndChar

StartChar: Thorn
Encoding: 222 222 158
Width: 545
GlyphClass: 2
Flags: MW
HStem: -3 21G 147 41 474.6 49.6 485 41 628 20G
VStem: 104 86<200.001 445> 405 98<305.501 378.501 305.501 403.001>
LayerCount: 2
Fore
SplineSet
190 192.400390625 m 1xee
 200.299804688 189.700195312 223.5 188.000976562 259 188.000976562 c 0
 331 188.000976562 405 214.000976562 405 343.000976562 c 0
 405 463.000976562 336 485.000976562 277 485.000976562 c 0xde
 258.599609375 485.000976562 212.099609375 480.30078125 190.099609375 474.600585938 c 1
 190 464.80078125 190 454.900390625 190 445 c 2
 190 200 l 1
 190 192.400390625 l 1xee
104 445.000976562 m 2
 104 520.000976562 101.999023438 588.000976562 93.9990234375 645.000976562 c 1
 95.9990234375 648.000976562 l 1
 95.9990234375 648.000976562 112.999023438 645.000976562 146.999023438 645.000976562 c 0
 181.999023438 645.000976562 198.999023438 648.000976562 198.999023438 648.000976562 c 1
 199.999023438 645.000976562 l 1
 194.899414062 611.100585938 192.299804688 569.500976562 191 524.201171875 c 1xee
 225.900390625 526.000976562 259.5 526.000976562 278 526.000976562 c 0
 463 526.000976562 503 414.000976562 503 343.000976562 c 0
 503 268.000976562 442 147.000976562 264 147.000976562 c 0
 230.700195312 147.000976562 205.600585938 148.80078125 190.30078125 153.30078125 c 1
 191.100585938 96.701171875 193.700195312 44.9013671875 200 0.0009765625 c 1
 198 -2.9990234375 l 1
 198 -2.9990234375 181 0.0009765625 147 0.0009765625 c 0
 112 0.0009765625 95 -2.9990234375 95 -2.9990234375 c 1
 94 0.0009765625 l 1
 102 54.0009765625 104 125.000976562 104 200.000976562 c 2
 104 445.000976562 l 2
EndSplineSet
Substitution2: "'c2sc' Capitals to Small Capitals lookup 9 subtable" thorn.sc
AlternateSubs2: "'aalt' Access All Alternates lookup 0 subtable" thorn.sc
Position2: "'cpsp' Capital Spacing lookup 0 subtable" dx=5 dy=0 dh=10 dv=0
EndChar

StartChar: germandbls
Encoding: 223 223 159
Width: 545
GlyphClass: 2
Flags: MW
HStem: -10 40<335.5 365 335.5 396> -3 21G 385 44<40.5 75.5 51.5 75.5 51.5 87> 658 40<262.5 319.5>
VStem: 99 80<200 369 369 375> 371 79<548.5 601> 416 88<120.5 202.5>
LayerCount: 2
Fore
SplineSet
350 -10 m 0xba
 299.5 -10 249 13 241 18 c 1x7a
 240 21 l 1
 251 40 252 52 259 79 c 1
 270 80 l 1
 281 60 321 30 350 30 c 0
 380 30 416 55 416 156 c 0xba
 416 249 350 332 266 396 c 1
 266 409 l 1
 333 461 371 501 371 574 c 0
 371 628 346 658 293 658 c 0
 189 658 179 550 179 442 c 2
 179 200 l 2
 179 125 180 57 189 0 c 1
 187 -3 l 1
 187 -3 173 0 139 0 c 0
 104 0 90 -3 90 -3 c 1
 89 0 l 1
 98 54 99 125 99 200 c 2
 99 369 l 2
 99 381 96 385 87 385 c 2
 43 385 l 2
 38 385 37 386 37 390 c 2
 37 409 l 2
 37 417 43 429 60 429 c 0
 91 429 99 450 99 477 c 0
 99 642 223 698 302 698 c 0
 406 698 450 635 450 587 c 0x7c
 450 510 406 464 336 411 c 1
 336 409 l 1
 415 357 504 289 504 173 c 0
 504 68 442 -10 350 -10 c 0xba
EndSplineSet
Substitution2: "'smcp' Lowercase to Small Capitals lookup 3 subtable" germandbls.sc
EndChar

StartChar: agrave
Encoding: 224 224 160
Width: 481
GlyphClass: 2
Flags: MW
HStem: -10 51<177.5 197.5> 394 45<191 233>
VStem: 45 81<86.5 124.5 86.5 132> 311 79<272.5 332.5>
LayerCount: 2
Fore
SplineSet
386 76 m 0
 386 56 391 45 403 45 c 0
 418 45 431 59 441 66 c 1
 444 64 l 1
 461 43 l 1
 428 3 405 -10 372 -10 c 0
 322 -10 310 32 308 48 c 1
 306 48 l 1
 253 3 225 -10 170 -10 c 0
 96 -10 45 24 45 98 c 0
 45 166 109 220 211 243 c 2
 304 264 l 2
 307 265 311 269 311 276 c 0
 311 389 251 394 215 394 c 0
 167 394 133 354 105 309 c 1
 92 310 l 1
 75 377 l 1
 78 381 l 1
 103 402 149 439 225 439 c 0
 301 439 390 412 390 277 c 0
 390 266 386 105 386 76 c 0
310 225 m 1
 225 202 l 2
 147 180.900390625 126 147 126 102 c 0
 126 71 155 41 200 41 c 0
 230 41 264 59 292 80 c 0
 300 86 306 93 306 106 c 2
 310 225 l 1
196 671 m 2
 266 545 l 2
 271 535 272 528 272 521 c 0
 272 516 265 510 257 510 c 0
 251 510 244 515 228 530 c 2
 114 639 l 1
 116 650 l 1
 124 656 147 673 181 673 c 0
 186 673 192 672 196 671 c 2
EndSplineSet
Substitution2: "'smcp' Lowercase to Small Capitals lookup 3 subtable" agrave.sc
AlternateSubs2: "'aalt' Access All Alternates lookup 0 subtable" agrave.sc
EndChar

StartChar: aacute
Encoding: 225 225 161
Width: 481
GlyphClass: 2
Flags: MW
HStem: -10 51<177.5 197.5> 394 45<191 233>
VStem: 45 81<86.5 124.5 86.5 132> 311 79<272.5 332.5>
LayerCount: 2
Fore
SplineSet
386 76 m 0
 386 56 391 45 403 45 c 0
 418 45 431 59 441 66 c 1
 444 64 l 1
 461 43 l 1
 428 3 405 -10 372 -10 c 0
 322 -10 310 32 308 48 c 1
 306 48 l 1
 253 3 225 -10 170 -10 c 0
 96 -10 45 24 45 98 c 0
 45 166 109 220 211 243 c 2
 304 264 l 2
 307 265 311 269 311 276 c 0
 311 389 251 394 215 394 c 0
 167 394 133 354 105 309 c 1
 92 310 l 1
 75 377 l 1
 78 381 l 1
 103 402 149 439 225 439 c 0
 301 439 390 412 390 277 c 0
 390 266 386 105 386 76 c 0
310 225 m 1
 225 202 l 2
 147 180.900390625 126 147 126 102 c 0
 126 71 155 41 200 41 c 0
 230 41 264 59 292 80 c 0
 300 86 306 93 306 106 c 2
 310 225 l 1
244 671 m 2
 247 672 253.000976562 673 258.000976562 673 c 0
 264.401367188 673 290.000976562 672 313.000976562 650 c 1
 316.000976562 639 l 1
 201.000976562 530 l 2
 186.000976562 515 178.000976562 511 171.000976562 511 c 0
 164.000976562 511 157.000976562 517 157.000976562 524 c 0
 157.000976562 535.200195312 160.30078125 539.200195312 168.400390625 552 c 2
 244 671 l 2
EndSplineSet
Substitution2: "'smcp' Lowercase to Small Capitals lookup 3 subtable" aacute.sc
AlternateSubs2: "'aalt' Access All Alternates lookup 0 subtable" aacute.sc
EndChar

StartChar: acircumflex
Encoding: 226 226 162
Width: 481
GlyphClass: 2
Flags: MW
HStem: -10 51<177.5 197.5> 394 45<191 233> 626 20G<190 240 240 240>
VStem: 45 81<86.5 124.5 86.5 132> 311 79<272.5 332.5>
LayerCount: 2
Fore
SplineSet
386 76 m 0
 386 56 391 45 403 45 c 0
 418 45 431 59 441 66 c 1
 444 64 l 1
 461 43 l 1
 428 3 405 -10 372 -10 c 0
 322 -10 310 32 308 48 c 1
 306 48 l 1
 253 3 225 -10 170 -10 c 0
 96 -10 45 24 45 98 c 0
 45 166 109 220 211 243 c 2
 304 264 l 2
 307 265 311 269 311 276 c 0
 311 389 251 394 215 394 c 0
 167 394 133 354 105 309 c 1
 92 310 l 1
 75 377 l 1
 78 381 l 1
 103 402 149 439 225 439 c 0
 301 439 390 412 390 277 c 0
 390 266 386 105 386 76 c 0
310 225 m 1
 225 202 l 2
 147 180.900390625 126 147 126 102 c 0
 126 71 155 41 200 41 c 0
 230 41 264 59 292 80 c 0
 300 86 306 93 306 106 c 2
 310 225 l 1
240 646 m 1
 269 599 305 557 341 517 c 1
 320 503 l 1
 281 532 248 557 214 593 c 1
 177 555 145 530 107 503 c 1
 87 517 l 1
 123 557 161 600 190 646 c 1
 240 646 l 1
EndSplineSet
Substitution2: "'smcp' Lowercase to Small Capitals lookup 3 subtable" acircumflex.sc
AlternateSubs2: "'aalt' Access All Alternates lookup 0 subtable" acircumflex.sc
EndChar

StartChar: atilde
Encoding: 227 227 163
Width: 481
GlyphClass: 2
Flags: MW
HStem: -10 51<177.5 197.5> 394 45<191 233> 526 44<273.5 293> 574 46<139 160.5>
VStem: 45 81<86.5 124.5 86.5 132> 79 24<526 531> 311 79<272.5 332.5> 333 24<616 622>
LayerCount: 2
Fore
SplineSet
386 76 m 0xfa
 386 56 391 45 403 45 c 0
 418 45 431 59 441 66 c 1
 444 64 l 1
 461 43 l 1
 428 3 405 -10 372 -10 c 0
 322 -10 310 32 308 48 c 1
 306 48 l 1
 253 3 225 -10 170 -10 c 0
 96 -10 45 24 45 98 c 0
 45 166 109 220 211 243 c 2
 304 264 l 2
 307 265 311 269 311 276 c 0
 311 389 251 394 215 394 c 0
 167 394 133 354 105 309 c 1
 92 310 l 1
 75 377 l 1
 78 381 l 1
 103 402 149 439 225 439 c 0
 301 439 390 412 390 277 c 0
 390 266 386 105 386 76 c 0xfa
310 225 m 1
 225 202 l 2
 147 180.900390625 126 147 126 102 c 0
 126 71 155 41 200 41 c 0
 230 41 264 59 292 80 c 0
 300 86 306 93 306 106 c 2
 310 225 l 1
283 570 m 0
 305 570 319 580 333 622 c 1
 357 616 l 1
 345 556 316 526 270 526 c 0
 248 526 227 538 206 552 c 0
 188 563 169 574 152 574 c 0
 126 574 113 559 103 526 c 1
 79 531 l 1xf5
 93 590 116 620 159 620 c 0
 189 620 211 606 231 592 c 0
 247 580 264 570 283 570 c 0
EndSplineSet
Substitution2: "'smcp' Lowercase to Small Capitals lookup 3 subtable" atilde.sc
AlternateSubs2: "'aalt' Access All Alternates lookup 0 subtable" atilde.sc
EndChar

StartChar: adieresis
Encoding: 228 228 164
Width: 481
GlyphClass: 2
Flags: MW
HStem: -10 51<177.5 197.5> 394 45<191 233> 527 95<117 143 286 312>
VStem: 45 81<86.5 124.5 86.5 132> 83 94<561 587> 252 94<561 587> 311 79<272.5 332.5>
LayerCount: 2
Fore
SplineSet
386 76 m 0xf2
 386 56 391 45 403 45 c 0
 418 45 431 59 441 66 c 1
 444 64 l 1
 461 43 l 1
 428 3 405 -10 372 -10 c 0
 322 -10 310 32 308 48 c 1
 306 48 l 1
 253 3 225 -10 170 -10 c 0
 96 -10 45 24 45 98 c 0
 45 166 109 220 211 243 c 2
 304 264 l 2
 307 265 311 269 311 276 c 0
 311 389 251 394 215 394 c 0
 167 394 133 354 105 309 c 1
 92 310 l 1
 75 377 l 1
 78 381 l 1
 103 402 149 439 225 439 c 0
 301 439 390 412 390 277 c 0
 390 266 386 105 386 76 c 0xf2
310 225 m 1
 225 202 l 2
 147 180.900390625 126 147 126 102 c 0
 126 71 155 41 200 41 c 0
 230 41 264 59 292 80 c 0
 300 86 306 93 306 106 c 2
 310 225 l 1
252 574 m 0xe4
 252 600 273 622 299 622 c 0
 325 622 346 600 346 574 c 0
 346 548 325 527 299 527 c 0
 273 527 252 548 252 574 c 0xe4
83 574 m 0xe8
 83 600 104 622 130 622 c 0
 156 622 177 600 177 574 c 0
 177 548 156 527 130 527 c 0
 104 527 83 548 83 574 c 0xe8
EndSplineSet
Substitution2: "'smcp' Lowercase to Small Capitals lookup 3 subtable" adieresis.sc
AlternateSubs2: "'aalt' Access All Alternates lookup 0 subtable" adieresis.sc
EndChar

StartChar: aring
Encoding: 229 229 165
Width: 481
GlyphClass: 2
Flags: MW
HStem: -10 51<177.5 197.5> 394 45<191 233> 499 27<194.5 225.5 194.5 234> 638 27<194.5 225>
VStem: 45 81<86.5 124.5 86.5 132> 123 37<568 597 568 605> 260 37<568 597.5> 311 79<272.5 332.5>
LayerCount: 2
Fore
SplineSet
386 76 m 0xfb
 386 56 391 45 403 45 c 0
 418 45 431 59 441 66 c 1
 444 64 l 1
 461 43 l 1
 428 3 405 -10 372 -10 c 0
 322 -10 310 32 308 48 c 1
 306 48 l 1
 253 3 225 -10 170 -10 c 0
 96 -10 45 24 45 98 c 0
 45 166 109 220 211 243 c 2
 304 264 l 2
 307 265 311 269 311 276 c 0
 311 389 251 394 215 394 c 0
 167 394 133 354 105 309 c 1
 92 310 l 1
 75 377 l 1
 78 381 l 1
 103 402 149 439 225 439 c 0
 301 439 390 412 390 277 c 0
 390 266 386 105 386 76 c 0xfb
310 225 m 1
 225 202 l 2
 147 180.900390625 126 147 126 102 c 0
 126 71 155 41 200 41 c 0
 230 41 264 59 292 80 c 0
 300 86 306 93 306 106 c 2
 310 225 l 1
123 582 m 0xf7
 123 628 164 665 210 665 c 0
 256 665 297 629 297 582 c 0
 297 537 258 499 210 499 c 0
 164 499 123 536 123 582 c 0xf7
210 638 m 0
 179 638 160 612 160 582 c 0
 160 554 179 526 210 526 c 0
 241 526 260 554 260 582 c 0
 260 613 240 638 210 638 c 0
EndSplineSet
Substitution2: "'smcp' Lowercase to Small Capitals lookup 3 subtable" aring.sc
AlternateSubs2: "'aalt' Access All Alternates lookup 0 subtable" aring.sc
EndChar

StartChar: ae
Encoding: 230 230 166
Width: 687
GlyphClass: 2
Flags: MW
HStem: -10 50 218 40 394 45
VStem: 39 82<83.501 131.501 83.501 142.5> 296 78<190.001 215.001> 562 84<293.551 322.001>
AnchorPoint: "Anchor-5" 339 549 basechar 0
AnchorPoint: "Anchor-4" 332 644 basechar 0
AnchorPoint: "Anchor-3" 327 -109 basechar 0
AnchorPoint: "Anchor-2" 167 -5 basechar 0
AnchorPoint: "Anchor-1" 604 30 basechar 0
LayerCount: 2
Fore
SplineSet
202 394 m 0
 157.5 394 115 350.000976562 89 305.000976562 c 1
 76 306.000976562 l 1
 60 373.000976562 l 1
 63 377.000976562 l 1
 87.5 397.500976562 138.5 439.000976562 211 439.000976562 c 0
 235 439.000976562 311 436.000976562 348 369.000976562 c 1
 381 414.000976562 433 439.000976562 490 439.000976562 c 0
 604 439.000976562 646 343.000976562 646 309.000976562 c 0
 646 278.100585938 640 254.000976562 620 237.000976562 c 1
 584.299804688 217.30078125 509.5 225.400390625 374 218 c 1
 374 112 423 44 498 44 c 0
 552 44 591 77 621 112 c 1
 641 84 l 1
 612 30 550 -10 484 -10 c 0
 393 -10 360 34 340 59 c 1
 294 15 245 -10 190 -10 c 0
 85 -10 39 33 39 101 c 0
 39 184 126 243 296 255 c 1
 294.799804688 348.599609375 274.799804688 394 202 394 c 0
375 258.000976562 m 1
 515 266.000976562 562 245.000976562 562 306.000976562 c 0
 562 338.000976562 537 394.000976562 489 394.000976562 c 0
 426 394.000976562 383 343.000976562 375 258.000976562 c 1
296 215.000976562 m 1
 163 203.000976562 121 157.000976562 121 106.000976562 c 0
 121 61.0009765625 145 40.0009765625 192 40.0009765625 c 0
 228 40.0009765625 271 61.0009765625 285 100.000976562 c 0
 291.400390625 117.901367188 296 165.000976562 296 215.000976562 c 1
EndSplineSet
Substitution2: "'smcp' Lowercase to Small Capitals lookup 3 subtable" ae.sc
EndChar

StartChar: ccedilla
Encoding: 231 231 167
Width: 435
GlyphClass: 2
Flags: MW
HStem: -198 29<205 230 205 251.5> -94 32<223.5 277> 399 40<218 270.25>
VStem: 36 86<164.5 278 164.5 286> 266 62<-142 -118.5>
LayerCount: 2
Fore
SplineSet
233 -94 m 0
 214 -94 204 -94.9990234375 188 -99.9990234375 c 1
 182 -93.9990234375 l 1
 217.400390625 -8.9990234375 l 1
 104.700195312 1.1005859375 36 87.400390625 36 218 c 0
 36 354 148 439 252 439 c 0
 302 439 362 427 393 411 c 1
 395 408 l 1
 372 326 l 1
 359 325 l 1
 332.5 370.5 289.5 399 251 399 c 0
 185 399 122 333 122 223 c 0
 122 106 185 40 262 40 c 0
 305 40 334 53 372 87 c 1
 376 87 l 1
 395 66 l 1
 357.599609375 18.2998046875 307.099609375 -6.7001953125 251.599609375 -9.7001953125 c 1
 231 -65 l 1
 239 -63 248 -62 257 -62 c 0
 297 -62 328 -86 328 -124 c 0
 328 -167 282 -198 221 -198 c 0
 189 -198 172 -192 147 -181 c 1
 147 -169 150 -162 157 -155 c 1
 184 -165 195 -169 215 -169 c 0
 245 -169 266 -155 266 -129 c 0
 266 -108 256 -94 233 -94 c 0
EndSplineSet
Substitution2: "'smcp' Lowercase to Small Capitals lookup 3 subtable" ccedilla.sc
AlternateSubs2: "'aalt' Access All Alternates lookup 0 subtable" ccedilla.sc
EndChar

StartChar: egrave
Encoding: 232 232 168
Width: 450
GlyphClass: 2
Flags: MW
HStem: -10 59 233 42 399 40
VStem: 34 88<203.949 232.999 203.949 282.499> 320 89
LayerCount: 2
Fore
SplineSet
389 104 m 1
 409.000976562 78.9990234375 l 1
 371.000976562 26.9990234375 310.000976562 -10.0009765625 238.000976562 -10.0009765625 c 0
 170.600585938 -10.0009765625 113.400390625 14.69921875 79 55.9990234375 c 0
 45.5 96.19921875 34 152.298828125 34 208.999023438 c 0
 34 355.999023438 144 438.999023438 239 438.999023438 c 0
 371 438.999023438 409 333.999023438 409 249.999023438 c 0
 409 238.999023438 402 232.999023438 391 232.999023438 c 2
 122 232.999023438 l 1
 122 174.899414062 128.400390625 134.099609375 146 106 c 0
 173.5 62 220.799804688 49 255 49 c 0
 310 49 354 66 389 104 c 1
125.000976562 274.999023438 m 1
 306.000976562 274.999023438 l 2
 316.000976562 274.999023438 320.000976562 279.999023438 320.000976562 288.999023438 c 0
 320.000976562 363.999023438 275.000976562 398.999023438 239.000976562 398.999023438 c 0
 216.000976562 398.999023438 142.000976562 378.999023438 125.000976562 274.999023438 c 1
210.000976562 670.999023438 m 2
 280.000976562 544.999023438 l 2
 285.000976562 534.999023438 286.000976562 527.999023438 286.000976562 520.999023438 c 0
 286.000976562 515.999023438 279.000976562 509.999023438 271.000976562 509.999023438 c 0
 265.000976562 509.999023438 258.000976562 514.999023438 242.000976562 529.999023438 c 2
 128.000976562 638.999023438 l 1
 130.000976562 649.999023438 l 1
 138.000976562 655.999023438 161.000976562 672.999023438 195.000976562 672.999023438 c 0
 200.000976562 672.999023438 206.000976562 671.999023438 210.000976562 670.999023438 c 2
EndSplineSet
Substitution2: "'smcp' Lowercase to Small Capitals lookup 3 subtable" egrave.sc
AlternateSubs2: "'aalt' Access All Alternates lookup 0 subtable" egrave.sc
EndChar

StartChar: eacute
Encoding: 233 233 169
Width: 450
GlyphClass: 2
Flags: MW
HStem: -10 59 233 42 399 40
VStem: 34 88<203.949 232.999 203.949 282.499> 320 89
LayerCount: 2
Fore
SplineSet
389 104 m 1
 409.000976562 78.9990234375 l 1
 371.000976562 26.9990234375 310.000976562 -10.0009765625 238.000976562 -10.0009765625 c 0
 170.600585938 -10.0009765625 113.400390625 14.69921875 79 55.9990234375 c 0
 45.5 96.19921875 34 152.298828125 34 208.999023438 c 0
 34 355.999023438 144 438.999023438 239 438.999023438 c 0
 371 438.999023438 409 333.999023438 409 249.999023438 c 0
 409 238.999023438 402 232.999023438 391 232.999023438 c 2
 122 232.999023438 l 1
 122 174.899414062 128.400390625 134.099609375 146 106 c 0
 173.5 62 220.799804688 49 255 49 c 0
 310 49 354 66 389 104 c 1
125.000976562 274.999023438 m 1
 306.000976562 274.999023438 l 2
 316.000976562 274.999023438 320.000976562 279.999023438 320.000976562 288.999023438 c 0
 320.000976562 363.999023438 275.000976562 398.999023438 239.000976562 398.999023438 c 0
 216.000976562 398.999023438 142.000976562 378.999023438 125.000976562 274.999023438 c 1
270.000976562 670.999023438 m 2
 273.000976562 671.999023438 279.001953125 672.999023438 284.001953125 672.999023438 c 0
 290.40234375 672.999023438 316.001953125 671.999023438 339.001953125 649.999023438 c 1
 342.001953125 638.999023438 l 1
 227.001953125 529.999023438 l 2
 212.001953125 514.999023438 204.001953125 510.999023438 197.001953125 510.999023438 c 0
 190.001953125 510.999023438 183.001953125 516.999023438 183.001953125 523.999023438 c 0
 183.001953125 535.19921875 186.301757812 539.19921875 194.401367188 551.999023438 c 2
 270.000976562 670.999023438 l 2
EndSplineSet
Substitution2: "'smcp' Lowercase to Small Capitals lookup 3 subtable" eacute.sc
AlternateSubs2: "'aalt' Access All Alternates lookup 0 subtable" eacute.sc
EndChar

StartChar: ecircumflex
Encoding: 234 234 170
Width: 450
GlyphClass: 2
Flags: MW
HStem: -10 59 233 42 399 40 626 20G
VStem: 34 88<203.949 232.999 203.949 282.499> 320 89
LayerCount: 2
Fore
SplineSet
389 104 m 1
 409.000976562 78.9990234375 l 1
 371.000976562 26.9990234375 310.000976562 -10.0009765625 238.000976562 -10.0009765625 c 0
 170.600585938 -10.0009765625 113.400390625 14.69921875 79 55.9990234375 c 0
 45.5 96.19921875 34 152.298828125 34 208.999023438 c 0
 34 355.999023438 144 438.999023438 239 438.999023438 c 0
 371 438.999023438 409 333.999023438 409 249.999023438 c 0
 409 238.999023438 402 232.999023438 391 232.999023438 c 2
 122 232.999023438 l 1
 122 174.899414062 128.400390625 134.099609375 146 106 c 0
 173.5 62 220.799804688 49 255 49 c 0
 310 49 354 66 389 104 c 1
125.000976562 274.999023438 m 1
 306.000976562 274.999023438 l 2
 316.000976562 274.999023438 320.000976562 279.999023438 320.000976562 288.999023438 c 0
 320.000976562 363.999023438 275.000976562 398.999023438 239.000976562 398.999023438 c 0
 216.000976562 398.999023438 142.000976562 378.999023438 125.000976562 274.999023438 c 1
258.000976562 645.999023438 m 1
 287.000976562 598.999023438 323.000976562 556.999023438 359.000976562 516.999023438 c 1
 338.000976562 502.999023438 l 1
 299.000976562 531.999023438 266.000976562 556.999023438 232.000976562 592.999023438 c 1
 195.000976562 554.999023438 163.000976562 529.999023438 125.000976562 502.999023438 c 1
 105.000976562 516.999023438 l 1
 141.000976562 556.999023438 179.000976562 599.999023438 208.000976562 645.999023438 c 1
 258.000976562 645.999023438 l 1
EndSplineSet
Substitution2: "'smcp' Lowercase to Small Capitals lookup 3 subtable" ecircumflex.sc
AlternateSubs2: "'aalt' Access All Alternates lookup 0 subtable" ecircumflex.sc
EndChar

StartChar: edieresis
Encoding: 235 235 171
Width: 450
GlyphClass: 2
Flags: MW
HStem: -10 59 233 42 399 40 527 95
VStem: 34 88<203.949 232.999 203.949 282.499> 99 94 268 94 320 89
LayerCount: 2
Fore
SplineSet
389 104 m 1xf9
 409.000976562 78.9990234375 l 1
 371.000976562 26.9990234375 310.000976562 -10.0009765625 238.000976562 -10.0009765625 c 0
 170.600585938 -10.0009765625 113.400390625 14.69921875 79 55.9990234375 c 0
 45.5 96.19921875 34 152.298828125 34 208.999023438 c 0
 34 355.999023438 144 438.999023438 239 438.999023438 c 0
 371 438.999023438 409 333.999023438 409 249.999023438 c 0
 409 238.999023438 402 232.999023438 391 232.999023438 c 2
 122 232.999023438 l 1
 122 174.899414062 128.400390625 134.099609375 146 106 c 0
 173.5 62 220.799804688 49 255 49 c 0
 310 49 354 66 389 104 c 1xf9
125.000976562 274.999023438 m 1
 306.000976562 274.999023438 l 2
 316.000976562 274.999023438 320.000976562 279.999023438 320.000976562 288.999023438 c 0
 320.000976562 363.999023438 275.000976562 398.999023438 239.000976562 398.999023438 c 0
 216.000976562 398.999023438 142.000976562 378.999023438 125.000976562 274.999023438 c 1
268.000976562 573.999023438 m 0xf2
 268.000976562 599.999023438 289.000976562 621.999023438 315.000976562 621.999023438 c 0
 341.000976562 621.999023438 362.000976562 599.999023438 362.000976562 573.999023438 c 0
 362.000976562 547.999023438 341.000976562 526.999023438 315.000976562 526.999023438 c 0
 289.000976562 526.999023438 268.000976562 547.999023438 268.000976562 573.999023438 c 0xf2
99.0009765625 573.999023438 m 0xf4
 99.0009765625 599.999023438 120.000976562 621.999023438 146.000976562 621.999023438 c 0
 172.000976562 621.999023438 193.000976562 599.999023438 193.000976562 573.999023438 c 0
 193.000976562 547.999023438 172.000976562 526.999023438 146.000976562 526.999023438 c 0
 120.000976562 526.999023438 99.0009765625 547.999023438 99.0009765625 573.999023438 c 0xf4
EndSplineSet
Substitution2: "'smcp' Lowercase to Small Capitals lookup 3 subtable" edieresis.sc
AlternateSubs2: "'aalt' Access All Alternates lookup 0 subtable" edieresis.sc
EndChar

StartChar: igrave
Encoding: 236 236 172
Width: 260
GlyphClass: 2
Flags: MW
HStem: -3 21G<81 81 178 178> 419 20G<171 174>
VStem: 90 80<180 235 235 251 142 272.5>
LayerCount: 2
Fore
SplineSet
90 235 m 2
 90 310 88 368 80 411 c 1
 82 414 l 1
 122 417 146 429 171 439 c 0
 177 439 180 436 180 429 c 0
 172 368 170 326 170 251 c 2
 170 180 l 2
 170 104 172 57 180 0 c 1
 178 -3 l 1
 178 -3 164 0 130 0 c 0
 95 0 81 -3 81 -3 c 1
 80 0 l 1
 88 54 90 105 90 180 c 2
 90 235 l 2
110 671 m 2
 180 545 l 2
 185 535 186 528 186 521 c 0
 186 516 179 510 171 510 c 0
 165 510 158 515 142 530 c 2
 28 639 l 1
 30 650 l 1
 38 656 61 673 95 673 c 0
 100 673 106 672 110 671 c 2
EndSplineSet
Substitution2: "'smcp' Lowercase to Small Capitals lookup 3 subtable" igrave.sc
AlternateSubs2: "'aalt' Access All Alternates lookup 0 subtable" igrave.sc
EndChar

StartChar: iacute
Encoding: 237 237 173
Width: 260
GlyphClass: 2
Flags: MW
HStem: -3 21G<81 81 178 178> 419 20G<171 174>
VStem: 90 80<180 235 235 251 142 272.5>
LayerCount: 2
Fore
SplineSet
90 235 m 2
 90 310 88 368 80 411 c 1
 82 414 l 1
 122 417 146 429 171 439 c 0
 177 439 180 436 180 429 c 0
 172 368 170 326 170 251 c 2
 170 180 l 2
 170 104 172 57 180 0 c 1
 178 -3 l 1
 178 -3 164 0 130 0 c 0
 95 0 81 -3 81 -3 c 1
 80 0 l 1
 88 54 90 105 90 180 c 2
 90 235 l 2
174 671 m 2
 177 672 183.000976562 673 188.000976562 673 c 0
 194.401367188 673 220.000976562 672 243.000976562 650 c 1
 246.000976562 639 l 1
 131.000976562 530 l 2
 116.000976562 515 108.000976562 511 101.000976562 511 c 0
 94.0009765625 511 87.0009765625 517 87.0009765625 524 c 0
 87.0009765625 535.200195312 90.30078125 539.200195312 98.400390625 552 c 2
 174 671 l 2
EndSplineSet
Substitution2: "'smcp' Lowercase to Small Capitals lookup 3 subtable" iacute.sc
AlternateSubs2: "'aalt' Access All Alternates lookup 0 subtable" iacute.sc
EndChar

StartChar: icircumflex
Encoding: 238 238 174
Width: 260
GlyphClass: 2
Flags: MW
HStem: -3 21G<81 81 178 178> 419 20G<171 174> 626 20G<111 161 161 161>
VStem: 90 80<180 235 235 251 142 272.5>
LayerCount: 2
Fore
SplineSet
90 235 m 2
 90 310 88 368 80 411 c 1
 82 414 l 1
 122 417 146 429 171 439 c 0
 177 439 180 436 180 429 c 0
 172 368 170 326 170 251 c 2
 170 180 l 2
 170 104 172 57 180 0 c 1
 178 -3 l 1
 178 -3 164 0 130 0 c 0
 95 0 81 -3 81 -3 c 1
 80 0 l 1
 88 54 90 105 90 180 c 2
 90 235 l 2
161 646 m 1
 190 599 226 557 262 517 c 1
 241 503 l 1
 202 532 169 557 135 593 c 1
 98 555 66 530 28 503 c 1
 8 517 l 1
 44 557 82 600 111 646 c 1
 161 646 l 1
EndSplineSet
Substitution2: "'smcp' Lowercase to Small Capitals lookup 3 subtable" icircumflex.sc
AlternateSubs2: "'aalt' Access All Alternates lookup 0 subtable" icircumflex.sc
EndChar

